<svg xmlns="http://www.w3.org/2000/svg" id="svg2" width="620.409" height="176.772" fill-rule="evenodd" stroke-linejoin="round" stroke-width="28.222" preserveAspectRatio="xMidYMid" version="1.2" viewBox="0 0 16415.333 4677.111" xml:space="preserve"><metadata id="metadata652"/><g id="g186" class="com.sun.star.drawing.CustomShape" transform="translate(-3285.9 -3185.9)"><g id="id6"><rect id="rect189" width="1303" height="1203" x="3299" y="3199" fill="none" class="BoundingBox"/><path id="path191" fill="#00f" d="m3950 4400h-650v-1200h1300v1200h-650z"/><path id="path193" fill="none" stroke="#3465a4" d="m3950 4400h-650v-1200h1300v1200h-650z"/><text id="text195" class="TextShape"><tspan id="tspan197" class="TextParagraph" font-family="sans-serif" font-size="635" font-weight="400"><tspan id="tspan199" x="3739" y="4021" class="TextPosition"><tspan id="tspan201" fill="#fff">B</tspan></tspan></tspan></text></g></g><g id="g203" class="com.sun.star.drawing.CustomShape" transform="translate(-3285.9 -3185.9)"><g id="id7"><rect id="rect206" width="1303" height="1203" x="4599" y="3199" fill="none" class="BoundingBox"/><path id="path208" fill="#0c0" d="m5250 4400h-650v-1200h1300v1200h-650z"/><path id="path210" fill="none" stroke="#3465a4" d="m5250 4400h-650v-1200h1300v1200h-650z"/><text id="text212" class="TextShape"><tspan id="tspan214" class="TextParagraph" font-family="sans-serif" font-size="635" font-weight="400"><tspan id="tspan216" x="5003" y="4021" class="TextPosition"><tspan id="tspan218" fill="#fff">G</tspan></tspan></tspan></text></g></g><g id="g220" class="com.sun.star.drawing.CustomShape" transform="translate(-3285.9 -3185.9)"><g id="id8"><rect id="rect223" width="1303" height="1203" x="3299" y="4399" fill="none" class="BoundingBox"/><path id="path225" fill="#0c0" d="m3950 5600h-650v-1200h1300v1200h-650z"/><path id="path227" fill="none" stroke="#3465a4" d="m3950 5600h-650v-1200h1300v1200h-650z"/><text id="text229" class="TextShape"><tspan id="tspan231" class="TextParagraph" font-family="sans-serif" font-size="635" font-weight="400"><tspan id="tspan233" x="3703" y="5221" class="TextPosition"><tspan id="tspan235" fill="#fff">G</tspan></tspan></tspan></text></g></g><g id="g237" class="com.sun.star.drawing.CustomShape" transform="translate(-3285.9 -3185.9)"><g id="id9"><rect id="rect240" width="1303" height="1203" x="4599" y="4399" fill="none" class="BoundingBox"/><path id="path242" fill="red" d="m5250 5600h-650v-1200h1300v1200h-650z"/><path id="path244" fill="none" stroke="#3465a4" d="m5250 5600h-650v-1200h1300v1200h-650z"/><text id="text246" class="TextShape"><tspan id="tspan248" class="TextParagraph" font-family="sans-serif" font-size="635" font-weight="400"><tspan id="tspan250" x="5022" y="5221" class="TextPosition"><tspan id="tspan252" fill="#fff">R</tspan></tspan></tspan></text></g></g><g id="g254" class="com.sun.star.drawing.CustomShape" transform="translate(-3285.9 -3185.9)"><g id="id10" fill="none"><rect id="rect257" width="1003" height="1003" x="5999" y="3299" class="BoundingBox"/><path id="path259" stroke="#00f" d="m6500 4300h-500v-1e3h1e3v1e3h-500z"/></g></g><g id="g261" class="com.sun.star.drawing.CustomShape" transform="translate(-3285.9 -3185.9)"><g id="id11" fill="none"><rect id="rect264" width="1003" height="1003" x="4699" y="5699" class="BoundingBox"/><path id="path266" stroke="#0c0" d="m5200 6700h-500v-1e3h1e3v1e3h-500z"/></g></g><g id="g268" class="com.sun.star.drawing.TextShape" transform="translate(-3285.9 -3185.9)"><g id="id12"><rect id="rect271" width="2374" height="963" x="4000" y="6900" fill="none" class="BoundingBox"/><text id="text273" class="TextShape"><tspan id="tspan275" class="TextParagraph" font-family="sans-serif" font-size="635" font-weight="400"><tspan id="tspan277" x="4250" y="7601" class="TextPosition"><tspan id="tspan279" fill="#000">BGGR</tspan></tspan></tspan></text></g></g><g id="g281" class="com.sun.star.drawing.CustomShape" transform="translate(-3285.9 -3185.9)"><g id="id13"><rect id="rect284" width="1303" height="1203" x="8799" y="3199" fill="none" class="BoundingBox"/><path id="path286" fill="#00f" d="m9450 4400h-650v-1200h1300v1200h-650z"/><path id="path288" fill="none" stroke="#3465a4" d="m9450 4400h-650v-1200h1300v1200h-650z"/><text id="text290" class="TextShape"><tspan id="tspan292" class="TextParagraph" font-family="sans-serif" font-size="635" font-weight="400"><tspan id="tspan294" x="9239" y="4021" class="TextPosition"><tspan id="tspan296" fill="#fff">B</tspan></tspan></tspan></text></g></g><g id="g298" class="com.sun.star.drawing.CustomShape" transform="translate(-3285.9 -3185.9)"><g id="id14"><rect id="rect301" width="1303" height="1203" x="7499" y="3199" fill="none" class="BoundingBox"/><path id="path303" fill="#0c0" d="m8150 4400h-650v-1200h1300v1200h-650z"/><path id="path305" fill="none" stroke="#3465a4" d="m8150 4400h-650v-1200h1300v1200h-650z"/><text id="text307" class="TextShape"><tspan id="tspan309" class="TextParagraph" font-family="sans-serif" font-size="635" font-weight="400"><tspan id="tspan311" x="7903" y="4021" class="TextPosition"><tspan id="tspan313" fill="#fff">G</tspan></tspan></tspan></text></g></g><g id="g315" class="com.sun.star.drawing.CustomShape" transform="translate(-3285.9 -3185.9)"><g id="id15"><rect id="rect318" width="1303" height="1203" x="8799" y="4399" fill="none" class="BoundingBox"/><path id="path320" fill="#0c0" d="m9450 5600h-650v-1200h1300v1200h-650z"/><path id="path322" fill="none" stroke="#3465a4" d="m9450 5600h-650v-1200h1300v1200h-650z"/><text id="text324" class="TextShape"><tspan id="tspan326" class="TextParagraph" font-family="sans-serif" font-size="635" font-weight="400"><tspan id="tspan328" x="9203" y="5221" class="TextPosition"><tspan id="tspan330" fill="#fff">G</tspan></tspan></tspan></text></g></g><g id="g332" class="com.sun.star.drawing.CustomShape" transform="translate(-3285.9 -3185.9)"><g id="id16"><rect id="rect335" width="1303" height="1203" x="7499" y="4399" fill="none" class="BoundingBox"/><path id="path337" fill="red" d="m8150 5600h-650v-1200h1300v1200h-650z"/><path id="path339" fill="none" stroke="#3465a4" d="m8150 5600h-650v-1200h1300v1200h-650z"/><text id="text341" class="TextShape"><tspan id="tspan343" class="TextParagraph" font-family="sans-serif" font-size="635" font-weight="400"><tspan id="tspan345" x="7922" y="5221" class="TextPosition"><tspan id="tspan347" fill="#fff">R</tspan></tspan></tspan></text></g></g><g id="g349" class="com.sun.star.drawing.TextShape" transform="translate(-3285.9 -3185.9)"><g id="id17"><rect id="rect352" width="2374" height="963" x="8200" y="6900" fill="none" class="BoundingBox"/><text id="text354" class="TextShape"><tspan id="tspan356" class="TextParagraph" font-family="sans-serif" font-size="635" font-weight="400"><tspan id="tspan358" x="8450" y="7601" class="TextPosition"><tspan id="tspan360" fill="#000">GBRG</tspan></tspan></tspan></text></g></g><g id="g362" class="com.sun.star.drawing.CustomShape" transform="translate(-3285.9 -3185.9)"><g id="id18"><rect id="rect365" width="1303" height="1203" x="17299" y="4399" fill="none" class="BoundingBox"/><path id="path367" fill="#00f" d="m17950 5600h-650v-1200h1300v1200h-650z"/><path id="path369" fill="none" stroke="#3465a4" d="m17950 5600h-650v-1200h1300v1200h-650z"/><text id="text371" class="TextShape"><tspan id="tspan373" class="TextParagraph" font-family="sans-serif" font-size="635" font-weight="400"><tspan id="tspan375" x="17739" y="5221" class="TextPosition"><tspan id="tspan377" fill="#fff">B</tspan></tspan></tspan></text></g></g><g id="g379" class="com.sun.star.drawing.CustomShape" transform="translate(-3285.9 -3185.9)"><g id="id19"><rect id="rect382" width="1303" height="1203" x="17299" y="3199" fill="none" class="BoundingBox"/><path id="path384" fill="#0c0" d="m17950 4400h-650v-1200h1300v1200h-650z"/><path id="path386" fill="none" stroke="#3465a4" d="m17950 4400h-650v-1200h1300v1200h-650z"/><text id="text388" class="TextShape"><tspan id="tspan390" class="TextParagraph" font-family="sans-serif" font-size="635" font-weight="400"><tspan id="tspan392" x="17703" y="4021" class="TextPosition"><tspan id="tspan394" fill="#fff">G</tspan></tspan></tspan></text></g></g><g id="g396" class="com.sun.star.drawing.CustomShape" transform="translate(-3285.9 -3185.9)"><g id="id20"><rect id="rect399" width="1303" height="1203" x="15999" y="4399" fill="none" class="BoundingBox"/><path id="path401" fill="#0c0" d="m16650 5600h-650v-1200h1300v1200h-650z"/><path id="path403" fill="none" stroke="#3465a4" d="m16650 5600h-650v-1200h1300v1200h-650z"/><text id="text405" class="TextShape"><tspan id="tspan407" class="TextParagraph" font-family="sans-serif" font-size="635" font-weight="400"><tspan id="tspan409" x="16403" y="5221" class="TextPosition"><tspan id="tspan411" fill="#fff">G</tspan></tspan></tspan></text></g></g><g id="g413" class="com.sun.star.drawing.CustomShape" transform="translate(-3285.9 -3185.9)"><g id="id21"><rect id="rect416" width="1303" height="1203" x="15999" y="3199" fill="none" class="BoundingBox"/><path id="path418" fill="red" d="m16650 4400h-650v-1200h1300v1200h-650z"/><path id="path420" fill="none" stroke="#3465a4" d="m16650 4400h-650v-1200h1300v1200h-650z"/><text id="text422" class="TextShape"><tspan id="tspan424" class="TextParagraph" font-family="sans-serif" font-size="635" font-weight="400"><tspan id="tspan426" x="16422" y="4021" class="TextPosition"><tspan id="tspan428" fill="#fff">R</tspan></tspan></tspan></text></g></g><g id="g430" class="com.sun.star.drawing.TextShape" transform="translate(-3285.9 -3185.9)"><g id="id22"><rect id="rect433" width="2374" height="963" x="16700" y="6900" fill="none" class="BoundingBox"/><text id="text435" class="TextShape"><tspan id="tspan437" class="TextParagraph" font-family="sans-serif" font-size="635" font-weight="400"><tspan id="tspan439" x="16950" y="7601" class="TextPosition"><tspan id="tspan441" fill="#000">RGGB</tspan></tspan></tspan></text></g></g><g id="g443" class="com.sun.star.drawing.CustomShape" transform="translate(-3285.9 -3185.9)"><g id="id23"><rect id="rect446" width="1303" height="1203" x="11699" y="4399" fill="none" class="BoundingBox"/><path id="path448" fill="#00f" d="m12350 5600h-650v-1200h1300v1200h-650z"/><path id="path450" fill="none" stroke="#3465a4" d="m12350 5600h-650v-1200h1300v1200h-650z"/><text id="text452" class="TextShape"><tspan id="tspan454" class="TextParagraph" font-family="sans-serif" font-size="635" font-weight="400"><tspan id="tspan456" x="12139" y="5221" class="TextPosition"><tspan id="tspan458" fill="#fff">B</tspan></tspan></tspan></text></g></g><g id="g460" class="com.sun.star.drawing.CustomShape" transform="translate(-3285.9 -3185.9)"><g id="id24"><rect id="rect463" width="1303" height="1203" x="11699" y="3199" fill="none" class="BoundingBox"/><path id="path465" fill="#0c0" d="m12350 4400h-650v-1200h1300v1200h-650z"/><path id="path467" fill="none" stroke="#3465a4" d="m12350 4400h-650v-1200h1300v1200h-650z"/><text id="text469" class="TextShape"><tspan id="tspan471" class="TextParagraph" font-family="sans-serif" font-size="635" font-weight="400"><tspan id="tspan473" x="12103" y="4021" class="TextPosition"><tspan id="tspan475" fill="#fff">G</tspan></tspan></tspan></text></g></g><g id="g477" class="com.sun.star.drawing.CustomShape" transform="translate(-3285.9 -3185.9)"><g id="id25"><rect id="rect480" width="1303" height="1203" x="12999" y="4399" fill="none" class="BoundingBox"/><path id="path482" fill="#0c0" d="m13650 5600h-650v-1200h1300v1200h-650z"/><path id="path484" fill="none" stroke="#3465a4" d="m13650 5600h-650v-1200h1300v1200h-650z"/><text id="text486" class="TextShape"><tspan id="tspan488" class="TextParagraph" font-family="sans-serif" font-size="635" font-weight="400"><tspan id="tspan490" x="13403" y="5221" class="TextPosition"><tspan id="tspan492" fill="#fff">G</tspan></tspan></tspan></text></g></g><g id="g494" class="com.sun.star.drawing.CustomShape" transform="translate(-3285.9 -3185.9)"><g id="id26"><rect id="rect497" width="1303" height="1203" x="12999" y="3199" fill="none" class="BoundingBox"/><path id="path499" fill="red" d="m13650 4400h-650v-1200h1300v1200h-650z"/><path id="path501" fill="none" stroke="#3465a4" d="m13650 4400h-650v-1200h1300v1200h-650z"/><text id="text503" class="TextShape"><tspan id="tspan505" class="TextParagraph" font-family="sans-serif" font-size="635" font-weight="400"><tspan id="tspan507" x="13422" y="4021" class="TextPosition"><tspan id="tspan509" fill="#fff">R</tspan></tspan></tspan></text></g></g><g id="g511" class="com.sun.star.drawing.TextShape" transform="translate(-3285.9 -3185.9)"><g id="id27"><rect id="rect514" width="2374" height="963" x="12400" y="6900" fill="none" class="BoundingBox"/><text id="text516" class="TextShape"><tspan id="tspan518" class="TextParagraph" font-family="sans-serif" font-size="635" font-weight="400"><tspan id="tspan520" x="12650" y="7601" class="TextPosition"><tspan id="tspan522" fill="#000">GRBG</tspan></tspan></tspan></text></g></g><g id="g524" class="com.sun.star.drawing.CustomShape" transform="translate(-3285.9 -3185.9)"><g id="id28" fill="none"><rect id="rect527" width="1003" height="1003" x="5999" y="5699" class="BoundingBox"/><path id="path529" stroke="#00f" d="m6500 6700h-500v-1e3h1e3v1e3h-500z"/></g></g><g id="g531" class="com.sun.star.drawing.CustomShape" transform="translate(-3285.9 -3185.9)"><g id="id29" fill="none"><rect id="rect534" width="1003" height="1003" x="3399" y="5699" class="BoundingBox"/><path id="path536" stroke="#00f" d="m3900 6700h-500v-1e3h1e3v1e3h-500z"/></g></g><g id="g538" class="com.sun.star.drawing.CustomShape" transform="translate(-3285.9 -3185.9)"><g id="id30" fill="none"><rect id="rect541" width="1003" height="1003" x="5999" y="4499" class="BoundingBox"/><path id="path543" stroke="#0c0" d="m6500 5500h-500v-1e3h1e3v1e3h-500z"/></g></g><g id="g545" class="com.sun.star.drawing.CustomShape" transform="translate(-3285.9 -3185.9)"><g id="id31" fill="none"><rect id="rect548" width="1003" height="1003" x="7599" y="5799" class="BoundingBox"/><path id="path550" stroke="#0c0" d="m8100 6800h-500v-1e3h1e3v1e3h-500z"/></g></g><g id="g552" class="com.sun.star.drawing.CustomShape" transform="translate(-3285.9 -3185.9)"><g id="id32" fill="none"><rect id="rect555" width="1003" height="1003" x="10199" y="5799" class="BoundingBox"/><path id="path557" stroke="#0c0" d="m10700 6800h-500v-1e3h1e3v1e3h-500z"/></g></g><g id="g559" class="com.sun.star.drawing.CustomShape" transform="translate(-3285.9 -3185.9)"><g id="id33" fill="none"><rect id="rect562" width="1003" height="1003" x="8899" y="5799" class="BoundingBox"/><path id="path564" stroke="#00f" d="m9400 6800h-500v-1e3h1e3v1e3h-500z"/></g></g><g id="g566" class="com.sun.star.drawing.CustomShape" transform="translate(-3285.9 -3185.9)"><g id="id34" fill="none"><rect id="rect569" width="1003" height="1003" x="10199" y="4499" class="BoundingBox"/><path id="path571" stroke="red" d="m10700 5500h-500v-1e3h1e3v1e3h-500z"/></g></g><g id="g573" class="com.sun.star.drawing.CustomShape" transform="translate(-3285.9 -3185.9)"><g id="id35" fill="none"><rect id="rect576" width="1003" height="1003" x="10199" y="3299" class="BoundingBox"/><path id="path578" stroke="#0c0" d="m10700 4300h-500v-1e3h1e3v1e3h-500z"/></g></g><g id="g580" class="com.sun.star.drawing.CustomShape" transform="translate(-3285.9 -3185.9)"><g id="id36" fill="none"><rect id="rect583" width="1003" height="1003" x="14399" y="3299" class="BoundingBox"/><path id="path585" stroke="#0c0" d="m14900 4300h-500v-1e3h1e3v1e3h-500z"/></g></g><g id="g587" class="com.sun.star.drawing.CustomShape" transform="translate(-3285.9 -3185.9)"><g id="id37" fill="none"><rect id="rect590" width="1003" height="1003" x="14399" y="5799" class="BoundingBox"/><path id="path592" stroke="#0c0" d="m14900 6800h-500v-1e3h1e3v1e3h-500z"/></g></g><g id="g594" class="com.sun.star.drawing.CustomShape" transform="translate(-3285.9 -3185.9)"><g id="id38" fill="none"><rect id="rect597" width="1003" height="1003" x="11799" y="5799" class="BoundingBox"/><path id="path599" stroke="#0c0" d="m12300 6800h-500v-1e3h1e3v1e3h-500z"/></g></g><g id="g601" class="com.sun.star.drawing.CustomShape" transform="translate(-3285.9 -3185.9)"><g id="id39" fill="none"><rect id="rect604" width="1003" height="1003" x="14399" y="4499" class="BoundingBox"/><path id="path606" stroke="#00f" d="m14900 5500h-500v-1e3h1e3v1e3h-500z"/></g></g><g id="g608" class="com.sun.star.drawing.CustomShape" transform="translate(-3285.9 -3185.9)"><g id="id40" fill="none"><rect id="rect611" width="1003" height="1003" x="13099" y="5799" class="BoundingBox"/><path id="path613" stroke="red" d="m13600 6800h-500v-1e3h1e3v1e3h-500z"/></g></g><g id="g615" class="com.sun.star.drawing.CustomShape" transform="translate(-3285.9 -3185.9)"><g id="id41" fill="none"><rect id="rect618" width="1003" height="1003" x="16099" y="5799" class="BoundingBox"/><path id="path620" stroke="red" d="m16600 6800h-500v-1e3h1e3v1e3h-500z"/></g></g><g id="g622" class="com.sun.star.drawing.CustomShape" transform="translate(-3398.8 -3185.9)"><g id="id42" fill="none"><rect id="rect625" width="1003" height="1003" x="18799" y="5799" class="BoundingBox"/><path id="path627" stroke="red" d="m19300 6800h-500v-1e3h1e3v1e3h-500z"/></g></g><g id="g629" class="com.sun.star.drawing.CustomShape" transform="translate(-3398.8 -3185.9)"><g id="id43" fill="none"><rect id="rect632" width="1003" height="1003" x="18799" y="3299" class="BoundingBox"/><path id="path634" stroke="red" d="m19300 4300h-500v-1e3h1e3v1e3h-500z"/></g></g><g id="g636" class="com.sun.star.drawing.CustomShape" transform="translate(-3285.9 -3185.9)"><g id="id44" fill="none"><rect id="rect639" width="1003" height="1003" x="17399" y="5799" class="BoundingBox"/><path id="path641" stroke="#0c0" d="m17900 6800h-500v-1e3h1e3v1e3h-500z"/></g></g><g id="g643" class="com.sun.star.drawing.CustomShape" transform="translate(-3398.8 -3185.9)"><g id="id45" fill="none"><rect id="rect646" width="1003" height="1003" x="18799" y="4499" class="BoundingBox"/><path id="path648" stroke="#0c0" d="m19300 5500h-500v-1e3h1e3v1e3h-500z"/></g></g></svg>