<svg xmlns="http://www.w3.org/2000/svg" id="svg2" width="941.14" height="540.51" fill-rule="evenodd" stroke-linejoin="round" stroke-width="28.222" preserveAspectRatio="xMidYMid" version="1.2" viewBox="0 0 24900.998 14300.999" xml:space="preserve"><metadata id="metadata325"/><defs id="defs4" class="ClipPathGroup"><marker id="marker6261" orient="auto" overflow="visible"><path id="path6263" fill="red" fill-rule="evenodd" stroke="red" stroke-width="1pt" d="m0 0 5-5-17.5 5 17.5 5-5-5z" transform="matrix(-.4 0 0 -.4 -4 0)"/></marker><marker id="marker6125" orient="auto" overflow="visible"><path id="path6127" fill="red" fill-rule="evenodd" stroke="red" stroke-width="1pt" d="m0 0 5-5-17.5 5 17.5 5-5-5z" transform="matrix(-.4 0 0 -.4 -4 0)"/></marker><marker id="marker6001" orient="auto" overflow="visible"><path id="path6003" fill="red" fill-rule="evenodd" stroke="red" stroke-width="1pt" d="m0 0 5-5-17.5 5 17.5 5-5-5z" transform="matrix(-.4 0 0 -.4 -4 0)"/></marker><marker id="marker5693" orient="auto" overflow="visible"><path id="path5695" fill="red" fill-rule="evenodd" stroke="red" stroke-width="1pt" d="m0 0 5-5-17.5 5 17.5 5-5-5z" transform="matrix(-.4 0 0 -.4 -4 0)"/></marker><marker id="marker5575" orient="auto" overflow="visible"><path id="path5577" fill="navy" fill-rule="evenodd" stroke="navy" stroke-width="1pt" d="m0 0 5-5-17.5 5 17.5 5-5-5z" transform="matrix(-.4 0 0 -.4 -4 0)"/></marker><marker id="marker5469" orient="auto" overflow="visible"><path id="path5471" fill="navy" fill-rule="evenodd" stroke="navy" stroke-width="1pt" d="m0 0 5-5-17.5 5 17.5 5-5-5z" transform="matrix(-.4 0 0 -.4 -4 0)"/></marker><marker id="marker5259" orient="auto" overflow="visible"><path id="path5261" fill="navy" fill-rule="evenodd" stroke="navy" stroke-width="1pt" d="m0 0 5-5-17.5 5 17.5 5-5-5z" transform="matrix(-.4 0 0 -.4 -4 0)"/></marker><marker id="Arrow2Mend" orient="auto" overflow="visible"><path id="path4241" fill="navy" fill-rule="evenodd" stroke="navy" stroke-linejoin="round" stroke-width=".625" d="m8.7186 4.0337-10.926-4.0177 10.926-4.0177c-1.7455 2.3721-1.7354 5.6175-6e-7 8.0354z" transform="scale(-.6)"/></marker></defs><g id="g204" class="com.sun.star.drawing.CustomShape" transform="translate(-1350,-3250)"><g id="id6"><rect id="rect207" width="24901" height="14301" x="1350" y="3250" fill="none" class="BoundingBox"/><path id="path209" fill="#fff" d="m13800 17500h-12400v-14200h24800v14200h-12400z"/><path id="path211" fill="none" stroke="red" stroke-linejoin="round" stroke-width="100" d="m13800 17500h-12400v-14200h24800v14200h-12400z"/><text id="text213" class="TextShape"><tspan id="tspan215" class="TextParagraph" font-family="sans-serif" font-size="846" font-weight="400"><tspan id="tspan217" x="1652" y="17093" fill="red" class="TextPosition"><tspan id="tspan221">V4L2_SEL_FLAG_GE</tspan></tspan></tspan></text></g></g><rect id="rect226" width="18101" height="10101" x="3000" y="2200" fill="none" class="BoundingBox"/><path id="path228" fill="#fff" d="m12050 12250h-9e3v-1e4h18000v1e4h-9e3z"/><path id="path230" fill="none" stroke="#000" stroke-linejoin="round" stroke-width="100" d="m12050 12250h-9e3v-1e4h18000v1e4h-9e3z"/><text id="text232" x="-1350" y="-3250" class="TextShape"><tspan id="tspan234" class="TextParagraph" font-family="sans-serif" font-size="987" font-weight="400"><tspan id="tspan236" x="3227" y="11503" fill="#000" class="TextPosition"><tspan id="tspan240">ORIGINAL</tspan></tspan></tspan></text><g id="g242" class="com.sun.star.drawing.CustomShape" transform="translate(-1350,-3250)"><g id="id8"><rect id="rect245" width="7901" height="5501" x="7050" y="7950" fill="none" class="BoundingBox"/><path id="path247" fill="#fff" d="m11000 13400h-3900v-5400h7800v5400h-3900z"/><path id="path249" fill="none" stroke="#3465a4" stroke-linejoin="round" stroke-width="100" d="m11000 13400h-3900v-5400h7800v5400h-3900z"/><text id="text251" class="TextShape"><tspan id="tspan253" class="TextParagraph" font-family="sans-serif" font-size="776" font-weight="400"><tspan id="tspan255" x="7228" y="10969" class="TextPosition"><tspan id="tspan257" fill="navy">V4L2_SEL_FLAG_LE</tspan></tspan></tspan></text></g></g><rect id="rect262" width="7101" height="101" x="13700" y="7100" fill="none" class="BoundingBox"/><path id="path264" fill="none" stroke="navy" stroke-linejoin="round" stroke-width="99.991" marker-end="url(#Arrow2Mend)" d="m20750 7150h-7e3"/><rect id="rect269" width="2101" height="101" x="3400" y="7100" fill="none" class="BoundingBox"/><path id="path271" fill="none" stroke="navy" stroke-linejoin="round" stroke-width="100" marker-end="url(#marker5575)" d="m3450 7150h2e3"/><rect id="rect276" width="101" height="1501" x="9800" y="2900" fill="none" class="BoundingBox"/><path id="path278" fill="none" stroke="navy" stroke-linejoin="round" stroke-width="100" marker-end="url(#marker5259)" d="m9850 2950v1400"/><rect id="rect283" width="101" height="1301" x="9600" y="10600" fill="none" class="BoundingBox"/><path id="path285" fill="none" stroke="navy" stroke-linejoin="round" stroke-width="100" marker-end="url(#marker5469)" d="m9650 11850v-1200"/><rect id="rect290" width="2051" height="601" x="450" y="6850" fill="none" class="BoundingBox"/><path id="path292" fill="none" stroke="red" stroke-linejoin="round" stroke-width="132.48" marker-end="url(#marker6125)" d="m2450 7150h-2000.9"/><rect id="rect299" width="2651" height="601" x="21600" y="6750" fill="none" class="BoundingBox"/><path id="path301" fill="none" stroke="red" stroke-linejoin="round" stroke-width="120.41" marker-end="url(#marker6001)" d="m21650 7050h2522.6"/><rect id="rect308" width="601" height="1451" x="9550" y="550" fill="none" class="BoundingBox"/><path id="path310" fill="none" stroke="red" stroke-linejoin="round" stroke-width="164.04" marker-end="url(#marker6261)" d="m9837 1950v-1453"/><rect id="rect317" width="601" height="1451" x="9350" y="12500" fill="none" class="BoundingBox"/><path id="path319" fill="none" stroke="red" stroke-linejoin="round" stroke-width="166.96" marker-end="url(#marker5693)" d="m9650 12550v1505.2"/></svg>