<svg xmlns="http://www.w3.org/2000/svg" xmlns:svg="http://www.w3.org/2000/svg" id="svg2" width="545.319" height="265.634" fill-rule="evenodd" stroke-linejoin="round" stroke-width="28.222" preserveAspectRatio="xMidYMid" version="1.2" viewBox="0 0 14428.222 7028.223" xml:space="preserve"><metadata id="metadata953"/><g id="g188" class="com.sun.star.drawing.CustomShape" transform="translate(-3285.889,-3185.889)"><g id="id6"><rect id="rect191" width="2403" height="1403" x="3299" y="3199" fill="none" stroke="none" class="BoundingBox"/><path id="path193" fill="none" stroke="#3465a4" d="m 4500,4600 -1200,0 0,-1400 2400,0 0,1400 -1200,0 z"/><text id="text195" class="TextShape"><tspan id="tspan197" class="TextParagraph" font-family="sans-serif" font-size="635" font-weight="400"><tspan id="tspan199" x="4325" y="4121" class="TextPosition"><tspan id="tspan201" fill="#000" stroke="none">0</tspan></tspan></tspan></text></g></g><g id="g203" class="com.sun.star.drawing.CustomShape" transform="translate(-3285.889,-3185.889)"><g id="id7"><rect id="rect206" width="2403" height="1403" x="5699" y="3199" fill="none" stroke="none" class="BoundingBox"/><path id="path208" fill="none" stroke="#3465a4" d="m 6900,4600 -1200,0 0,-1400 2400,0 0,1400 -1200,0 z"/></g></g><g id="g210" class="com.sun.star.drawing.CustomShape" transform="translate(-3285.889,-3185.889)"><g id="id8"><rect id="rect213" width="2403" height="1403" x="8099" y="3199" fill="none" stroke="none" class="BoundingBox"/><path id="path215" fill="none" stroke="#3465a4" d="m 9300,4600 -1200,0 0,-1400 2400,0 0,1400 -1200,0 z"/><text id="text217" class="TextShape"><tspan id="tspan219" class="TextParagraph" font-family="sans-serif" font-size="635" font-weight="400"><tspan id="tspan221" x="9125" y="4121" class="TextPosition"><tspan id="tspan223" fill="#000" stroke="none">6</tspan></tspan></tspan></text></g></g><g id="g225" class="com.sun.star.drawing.CustomShape" transform="translate(-3285.889,-3185.889)"><g id="id9"><rect id="rect228" width="2403" height="1403" x="5699" y="3199" fill="none" stroke="none" class="BoundingBox"/><path id="path230" fill="none" stroke="#3465a4" d="m 6900,4600 -1200,0 0,-1400 2400,0 0,1400 -1200,0 z"/><text id="text232" class="TextShape"><tspan id="tspan234" class="TextParagraph" font-family="sans-serif" font-size="635" font-weight="400"><tspan id="tspan236" x="6725" y="4121" class="TextPosition"><tspan id="tspan238" fill="#000" stroke="none">1</tspan></tspan></tspan></text></g></g><g id="g240" class="com.sun.star.drawing.CustomShape" transform="translate(-3285.889,-3185.889)"><g id="id10"><rect id="rect243" width="2403" height="1403" x="10499" y="3199" fill="none" stroke="none" class="BoundingBox"/><path id="path245" fill="none" stroke="#3465a4" d="m 11700,4600 -1200,0 0,-1400 2400,0 0,1400 -1200,0 z"/><text id="text247" class="TextShape"><tspan id="tspan249" class="TextParagraph" font-family="sans-serif" font-size="635" font-weight="400"><tspan id="tspan251" x="11525" y="4121" class="TextPosition"><tspan id="tspan253" fill="#000" stroke="none">7</tspan></tspan></tspan></text></g></g><g id="g255" class="com.sun.star.drawing.CustomShape" transform="translate(-3285.889,-3185.889)"><g id="id11"><rect id="rect258" width="2403" height="1403" x="12899" y="3199" fill="none" stroke="none" class="BoundingBox"/><path id="path260" fill="none" stroke="#3465a4" d="m 14100,4600 -1200,0 0,-1400 2400,0 0,1400 -1200,0 z"/></g></g><g id="g262" class="com.sun.star.drawing.CustomShape" transform="translate(-3285.889,-3185.889)"><g id="id12"><rect id="rect265" width="2403" height="1403" x="15299" y="3199" fill="none" stroke="none" class="BoundingBox"/><path id="path267" fill="none" stroke="#3465a4" d="m 16500,4600 -1200,0 0,-1400 2400,0 0,1400 -1200,0 z"/><text id="text269" class="TextShape"><tspan id="tspan271" class="TextParagraph" font-family="sans-serif" font-size="635" font-weight="400"><tspan id="tspan273" x="16325" y="4121" class="TextPosition"><tspan id="tspan275" fill="#000" stroke="none">9</tspan></tspan></tspan></text></g></g><g id="g277" class="com.sun.star.drawing.CustomShape" transform="translate(-3285.889,-3185.889)"><g id="id13"><rect id="rect280" width="2403" height="1403" x="12899" y="3199" fill="none" stroke="none" class="BoundingBox"/><path id="path282" fill="none" stroke="#3465a4" d="m 14100,4600 -1200,0 0,-1400 2400,0 0,1400 -1200,0 z"/><text id="text284" class="TextShape"><tspan id="tspan286" class="TextParagraph" font-family="sans-serif" font-size="635" font-weight="400"><tspan id="tspan288" x="13925" y="4121" class="TextPosition"><tspan id="tspan290" fill="#000" stroke="none">8</tspan></tspan></tspan></text></g></g><g id="g292" class="com.sun.star.drawing.CustomShape" transform="translate(-3285.889,-3185.889)"><g id="id14"><rect id="rect295" width="2403" height="1403" x="3299" y="4599" fill="none" stroke="none" class="BoundingBox"/><path id="path297" fill="none" stroke="#3465a4" d="m 4500,6000 -1200,0 0,-1400 2400,0 0,1400 -1200,0 z"/><text id="text299" class="TextShape"><tspan id="tspan301" class="TextParagraph" font-family="sans-serif" font-size="635" font-weight="400"><tspan id="tspan303" x="4325" y="5521" class="TextPosition"><tspan id="tspan305" fill="#000" stroke="none">2</tspan></tspan></tspan></text></g></g><g id="g307" class="com.sun.star.drawing.CustomShape" transform="translate(-3285.889,-3185.889)"><g id="id15"><rect id="rect310" width="2403" height="1403" x="5699" y="4599" fill="none" stroke="none" class="BoundingBox"/><path id="path312" fill="none" stroke="#3465a4" d="m 6900,6000 -1200,0 0,-1400 2400,0 0,1400 -1200,0 z"/></g></g><g id="g314" class="com.sun.star.drawing.CustomShape" transform="translate(-3285.889,-3185.889)"><g id="id16"><rect id="rect317" width="2403" height="1403" x="8099" y="4599" fill="none" stroke="none" class="BoundingBox"/><path id="path319" fill="none" stroke="#3465a4" d="m 9300,6000 -1200,0 0,-1400 2400,0 0,1400 -1200,0 z"/><text id="text321" class="TextShape"><tspan id="tspan323" class="TextParagraph" font-family="sans-serif" font-size="635" font-weight="400"><tspan id="tspan325" x="9125" y="5521" class="TextPosition"><tspan id="tspan327" fill="#000" stroke="none">4</tspan></tspan></tspan></text></g></g><g id="g329" class="com.sun.star.drawing.CustomShape" transform="translate(-3285.889,-3185.889)"><g id="id17"><rect id="rect332" width="2403" height="1403" x="5699" y="4599" fill="none" stroke="none" class="BoundingBox"/><path id="path334" fill="none" stroke="#3465a4" d="m 6900,6000 -1200,0 0,-1400 2400,0 0,1400 -1200,0 z"/><text id="text336" class="TextShape"><tspan id="tspan338" class="TextParagraph" font-family="sans-serif" font-size="635" font-weight="400"><tspan id="tspan340" x="6725" y="5521" class="TextPosition"><tspan id="tspan342" fill="#000" stroke="none">3</tspan></tspan></tspan></text></g></g><g id="g344" class="com.sun.star.drawing.CustomShape" transform="translate(-3285.889,-3185.889)"><g id="id18"><rect id="rect347" width="2403" height="1403" x="10499" y="4599" fill="none" stroke="none" class="BoundingBox"/><path id="path349" fill="none" stroke="#3465a4" d="m 11700,6000 -1200,0 0,-1400 2400,0 0,1400 -1200,0 z"/><text id="text351" class="TextShape"><tspan id="tspan353" class="TextParagraph" font-family="sans-serif" font-size="635" font-weight="400"><tspan id="tspan355" x="11525" y="5521" class="TextPosition"><tspan id="tspan357" fill="#000" stroke="none">5</tspan></tspan></tspan></text></g></g><g id="g359" class="com.sun.star.drawing.CustomShape" transform="translate(-3285.889,-3185.889)"><g id="id19"><rect id="rect362" width="2403" height="1403" x="12899" y="4599" fill="none" stroke="none" class="BoundingBox"/><path id="path364" fill="none" stroke="#3465a4" d="m 14100,6000 -1200,0 0,-1400 2400,0 0,1400 -1200,0 z"/></g></g><g id="g366" class="com.sun.star.drawing.CustomShape" transform="translate(-3285.889,-3185.889)"><g id="id20"><rect id="rect369" width="2403" height="1403" x="15299" y="4599" fill="none" stroke="none" class="BoundingBox"/><path id="path371" fill="none" stroke="#3465a4" d="m 16500,6000 -1200,0 0,-1400 2400,0 0,1400 -1200,0 z"/><text id="text373" class="TextShape"><tspan id="tspan375" class="TextParagraph" font-family="sans-serif" font-size="635" font-weight="400"><tspan id="tspan377" x="16149" y="5521" class="TextPosition"><tspan id="tspan379" fill="#000" stroke="none">11</tspan></tspan></tspan></text></g></g><g id="g381" class="com.sun.star.drawing.CustomShape" transform="translate(-3285.889,-3185.889)"><g id="id21"><rect id="rect384" width="2403" height="1403" x="12899" y="4599" fill="none" stroke="none" class="BoundingBox"/><path id="path386" fill="none" stroke="#3465a4" d="m 14100,6000 -1200,0 0,-1400 2400,0 0,1400 -1200,0 z"/><text id="text388" class="TextShape"><tspan id="tspan390" class="TextParagraph" font-family="sans-serif" font-size="635" font-weight="400"><tspan id="tspan392" x="13749" y="5521" class="TextPosition"><tspan id="tspan394" fill="#000" stroke="none">10</tspan></tspan></tspan></text></g></g><g id="g396" class="com.sun.star.drawing.CustomShape" transform="translate(-3285.889,-3185.889)"><g id="id22"><rect id="rect399" width="2403" height="1403" x="3299" y="5999" fill="none" stroke="none" class="BoundingBox"/><path id="path401" fill="none" stroke="#3465a4" d="m 4500,7400 -1200,0 0,-1400 2400,0 0,1400 -1200,0 z"/><text id="text403" class="TextShape"><tspan id="tspan405" class="TextParagraph" font-family="sans-serif" font-size="635" font-weight="400"><tspan id="tspan407" x="4149" y="6921" class="TextPosition"><tspan id="tspan409" fill="#000" stroke="none">12</tspan></tspan></tspan></text></g></g><g id="g411" class="com.sun.star.drawing.CustomShape" transform="translate(-3285.889,-3185.889)"><g id="id23"><rect id="rect414" width="2403" height="1403" x="5699" y="5999" fill="none" stroke="none" class="BoundingBox"/><path id="path416" fill="none" stroke="#3465a4" d="m 6900,7400 -1200,0 0,-1400 2400,0 0,1400 -1200,0 z"/></g></g><g id="g418" class="com.sun.star.drawing.CustomShape" transform="translate(-3285.889,-3185.889)"><g id="id24"><rect id="rect421" width="2403" height="1403" x="8099" y="5999" fill="none" stroke="none" class="BoundingBox"/><path id="path423" fill="none" stroke="#3465a4" d="m 9300,7400 -1200,0 0,-1400 2400,0 0,1400 -1200,0 z"/><text id="text425" class="TextShape"><tspan id="tspan427" class="TextParagraph" font-family="sans-serif" font-size="635" font-weight="400"><tspan id="tspan429" x="8949" y="6921" class="TextPosition"><tspan id="tspan431" fill="#000" stroke="none">18</tspan></tspan></tspan></text></g></g><g id="g433" class="com.sun.star.drawing.CustomShape" transform="translate(-3285.889,-3185.889)"><g id="id25"><rect id="rect436" width="2403" height="1403" x="5699" y="5999" fill="none" stroke="none" class="BoundingBox"/><path id="path438" fill="none" stroke="#3465a4" d="m 6900,7400 -1200,0 0,-1400 2400,0 0,1400 -1200,0 z"/><text id="text440" class="TextShape"><tspan id="tspan442" class="TextParagraph" font-family="sans-serif" font-size="635" font-weight="400"><tspan id="tspan444" x="6549" y="6921" class="TextPosition"><tspan id="tspan446" fill="#000" stroke="none">13</tspan></tspan></tspan></text></g></g><g id="g448" class="com.sun.star.drawing.CustomShape" transform="translate(-3285.889,-3185.889)"><g id="id26"><rect id="rect451" width="2403" height="1403" x="10499" y="5999" fill="none" stroke="none" class="BoundingBox"/><path id="path453" fill="none" stroke="#3465a4" d="m 11700,7400 -1200,0 0,-1400 2400,0 0,1400 -1200,0 z"/><text id="text455" class="TextShape"><tspan id="tspan457" class="TextParagraph" font-family="sans-serif" font-size="635" font-weight="400"><tspan id="tspan459" x="11349" y="6921" class="TextPosition"><tspan id="tspan461" fill="#000" stroke="none">19</tspan></tspan></tspan></text></g></g><g id="g463" class="com.sun.star.drawing.CustomShape" transform="translate(-3285.889,-3185.889)"><g id="id27"><rect id="rect466" width="2403" height="1403" x="12899" y="5999" fill="none" stroke="none" class="BoundingBox"/><path id="path468" fill="none" stroke="#3465a4" d="m 14100,7400 -1200,0 0,-1400 2400,0 0,1400 -1200,0 z"/></g></g><g id="g470" class="com.sun.star.drawing.CustomShape" transform="translate(-3285.889,-3185.889)"><g id="id28"><rect id="rect473" width="2403" height="1403" x="15299" y="5999" fill="none" stroke="none" class="BoundingBox"/><path id="path475" fill="none" stroke="#3465a4" d="m 16500,7400 -1200,0 0,-1400 2400,0 0,1400 -1200,0 z"/><text id="text477" class="TextShape"><tspan id="tspan479" class="TextParagraph" font-family="sans-serif" font-size="635" font-weight="400"><tspan id="tspan481" x="16149" y="6921" class="TextPosition"><tspan id="tspan483" fill="#000" stroke="none">21</tspan></tspan></tspan></text></g></g><g id="g485" class="com.sun.star.drawing.CustomShape" transform="translate(-3285.889,-3185.889)"><g id="id29"><rect id="rect488" width="2403" height="1403" x="12899" y="5999" fill="none" stroke="none" class="BoundingBox"/><path id="path490" fill="none" stroke="#3465a4" d="m 14100,7400 -1200,0 0,-1400 2400,0 0,1400 -1200,0 z"/><text id="text492" class="TextShape"><tspan id="tspan494" class="TextParagraph" font-family="sans-serif" font-size="635" font-weight="400"><tspan id="tspan496" x="13749" y="6921" class="TextPosition"><tspan id="tspan498" fill="#000" stroke="none">20</tspan></tspan></tspan></text></g></g><g id="g500" class="com.sun.star.drawing.CustomShape" transform="translate(-3285.889,-3185.889)"><g id="id30"><rect id="rect503" width="2403" height="1403" x="3299" y="7399" fill="none" stroke="none" class="BoundingBox"/><path id="path505" fill="none" stroke="#3465a4" d="m 4500,8800 -1200,0 0,-1400 2400,0 0,1400 -1200,0 z"/><text id="text507" class="TextShape"><tspan id="tspan509" class="TextParagraph" font-family="sans-serif" font-size="635" font-weight="400"><tspan id="tspan511" x="4149" y="8321" class="TextPosition"><tspan id="tspan513" fill="#000" stroke="none">14</tspan></tspan></tspan></text></g></g><g id="g515" class="com.sun.star.drawing.CustomShape" transform="translate(-3285.889,-3185.889)"><g id="id31"><rect id="rect518" width="2403" height="1403" x="5699" y="7399" fill="none" stroke="none" class="BoundingBox"/><path id="path520" fill="none" stroke="#3465a4" d="m 6900,8800 -1200,0 0,-1400 2400,0 0,1400 -1200,0 z"/></g></g><g id="g522" class="com.sun.star.drawing.CustomShape" transform="translate(-3285.889,-3185.889)"><g id="id32"><rect id="rect525" width="2403" height="1403" x="8099" y="7399" fill="none" stroke="none" class="BoundingBox"/><path id="path527" fill="none" stroke="#3465a4" d="m 9300,8800 -1200,0 0,-1400 2400,0 0,1400 -1200,0 z"/><text id="text529" class="TextShape"><tspan id="tspan531" class="TextParagraph" font-family="sans-serif" font-size="635" font-weight="400"><tspan id="tspan533" x="8949" y="8321" class="TextPosition"><tspan id="tspan535" fill="#000" stroke="none">16</tspan></tspan></tspan></text></g></g><g id="g537" class="com.sun.star.drawing.CustomShape" transform="translate(-3285.889,-3185.889)"><g id="id33"><rect id="rect540" width="2403" height="1403" x="5699" y="7399" fill="none" stroke="none" class="BoundingBox"/><path id="path542" fill="none" stroke="#3465a4" d="m 6900,8800 -1200,0 0,-1400 2400,0 0,1400 -1200,0 z"/><text id="text544" class="TextShape"><tspan id="tspan546" class="TextParagraph" font-family="sans-serif" font-size="635" font-weight="400"><tspan id="tspan548" x="6549" y="8321" class="TextPosition"><tspan id="tspan550" fill="#000" stroke="none">15</tspan></tspan></tspan></text></g></g><g id="g552" class="com.sun.star.drawing.CustomShape" transform="translate(-3285.889,-3185.889)"><g id="id34"><rect id="rect555" width="2403" height="1403" x="10499" y="7399" fill="none" stroke="none" class="BoundingBox"/><path id="path557" fill="none" stroke="#3465a4" d="m 11700,8800 -1200,0 0,-1400 2400,0 0,1400 -1200,0 z"/><text id="text559" class="TextShape"><tspan id="tspan561" class="TextParagraph" font-family="sans-serif" font-size="635" font-weight="400"><tspan id="tspan563" x="11349" y="8321" class="TextPosition"><tspan id="tspan565" fill="#000" stroke="none">17</tspan></tspan></tspan></text></g></g><g id="g567" class="com.sun.star.drawing.CustomShape" transform="translate(-3285.889,-3185.889)"><g id="id35"><rect id="rect570" width="2403" height="1403" x="12899" y="7399" fill="none" stroke="none" class="BoundingBox"/><path id="path572" fill="none" stroke="#3465a4" d="m 14100,8800 -1200,0 0,-1400 2400,0 0,1400 -1200,0 z"/></g></g><g id="g574" class="com.sun.star.drawing.CustomShape" transform="translate(-3285.889,-3185.889)"><g id="id36"><rect id="rect577" width="2403" height="1403" x="15299" y="7399" fill="none" stroke="none" class="BoundingBox"/><path id="path579" fill="none" stroke="#3465a4" d="m 16500,8800 -1200,0 0,-1400 2400,0 0,1400 -1200,0 z"/><text id="text581" class="TextShape"><tspan id="tspan583" class="TextParagraph" font-family="sans-serif" font-size="635" font-weight="400"><tspan id="tspan585" x="16149" y="8321" class="TextPosition"><tspan id="tspan587" fill="#000" stroke="none">23</tspan></tspan></tspan></text></g></g><g id="g589" class="com.sun.star.drawing.CustomShape" transform="translate(-3285.889,-3185.889)"><g id="id37"><rect id="rect592" width="2403" height="1403" x="12899" y="7399" fill="none" stroke="none" class="BoundingBox"/><path id="path594" fill="none" stroke="#3465a4" d="m 14100,8800 -1200,0 0,-1400 2400,0 0,1400 -1200,0 z"/><text id="text596" class="TextShape"><tspan id="tspan598" class="TextParagraph" font-family="sans-serif" font-size="635" font-weight="400"><tspan id="tspan600" x="13749" y="8321" class="TextPosition"><tspan id="tspan602" fill="#000" stroke="none">22</tspan></tspan></tspan></text></g></g><g id="g604" class="com.sun.star.drawing.CustomShape" transform="translate(-3285.889,-3185.889)"><g id="id38"><rect id="rect607" width="2403" height="1403" x="3299" y="8799" fill="none" stroke="none" class="BoundingBox"/><path id="path609" fill="none" stroke="#3465a4" d="m 4500,10200 -1200,0 0,-1400 2400,0 0,1400 -1200,0 z"/><text id="text611" class="TextShape"><tspan id="tspan613" class="TextParagraph" font-family="sans-serif" font-size="635" font-weight="400"><tspan id="tspan615" x="4149" y="9721" class="TextPosition"><tspan id="tspan617" fill="#000" stroke="none">24</tspan></tspan></tspan></text></g></g><g id="g619" class="com.sun.star.drawing.CustomShape" transform="translate(-3285.889,-3185.889)"><g id="id39"><rect id="rect622" width="2403" height="1403" x="5699" y="8799" fill="none" stroke="none" class="BoundingBox"/><path id="path624" fill="none" stroke="#3465a4" d="m 6900,10200 -1200,0 0,-1400 2400,0 0,1400 -1200,0 z"/></g></g><g id="g626" class="com.sun.star.drawing.CustomShape" transform="translate(-3285.889,-3185.889)"><g id="id40"><rect id="rect629" width="2403" height="1403" x="8099" y="8799" fill="none" stroke="none" class="BoundingBox"/><path id="path631" fill="none" stroke="#3465a4" d="m 9300,10200 -1200,0 0,-1400 2400,0 0,1400 -1200,0 z"/><text id="text633" class="TextShape"><tspan id="tspan635" class="TextParagraph" font-family="sans-serif" font-size="635" font-weight="400"><tspan id="tspan637" x="8949" y="9721" class="TextPosition"><tspan id="tspan639" fill="#000" stroke="none">26</tspan></tspan></tspan></text></g></g><g id="g641" class="com.sun.star.drawing.CustomShape" transform="translate(-3285.889,-3185.889)"><g id="id41"><rect id="rect644" width="2403" height="1403" x="5699" y="8799" fill="none" stroke="none" class="BoundingBox"/><path id="path646" fill="none" stroke="#3465a4" d="m 6900,10200 -1200,0 0,-1400 2400,0 0,1400 -1200,0 z"/><text id="text648" class="TextShape"><tspan id="tspan650" class="TextParagraph" font-family="sans-serif" font-size="635" font-weight="400"><tspan id="tspan652" x="6549" y="9721" class="TextPosition"><tspan id="tspan654" fill="#000" stroke="none">25</tspan></tspan></tspan></text></g></g><g id="g656" class="com.sun.star.drawing.CustomShape" transform="translate(-3285.889,-3185.889)"><g id="id42"><rect id="rect659" width="2403" height="1403" x="10499" y="8799" fill="none" stroke="none" class="BoundingBox"/><path id="path661" fill="none" stroke="#3465a4" d="m 11700,10200 -1200,0 0,-1400 2400,0 0,1400 -1200,0 z"/><text id="text663" class="TextShape"><tspan id="tspan665" class="TextParagraph" font-family="sans-serif" font-size="635" font-weight="400"><tspan id="tspan667" x="11349" y="9721" class="TextPosition"><tspan id="tspan669" fill="#000" stroke="none">27</tspan></tspan></tspan></text></g></g><g id="g671" class="com.sun.star.drawing.CustomShape" transform="translate(-3285.889,-3185.889)"><g id="id43"><rect id="rect674" width="2403" height="1403" x="12899" y="8799" fill="none" stroke="none" class="BoundingBox"/><path id="path676" fill="none" stroke="#3465a4" d="m 14100,10200 -1200,0 0,-1400 2400,0 0,1400 -1200,0 z"/></g></g><g id="g678" class="com.sun.star.drawing.CustomShape" transform="translate(-3285.889,-3185.889)"><g id="id44"><rect id="rect681" width="2403" height="1403" x="15299" y="8799" fill="none" stroke="none" class="BoundingBox"/><path id="path683" fill="none" stroke="#3465a4" d="m 16500,10200 -1200,0 0,-1400 2400,0 0,1400 -1200,0 z"/><text id="text685" class="TextShape"><tspan id="tspan687" class="TextParagraph" font-family="sans-serif" font-size="635" font-weight="400"><tspan id="tspan689" x="16149" y="9721" class="TextPosition"><tspan id="tspan691" fill="#000" stroke="none">29</tspan></tspan></tspan></text></g></g><g id="g693" class="com.sun.star.drawing.CustomShape" transform="translate(-3285.889,-3185.889)"><g id="id45"><rect id="rect696" width="2403" height="1403" x="12899" y="8799" fill="none" stroke="none" class="BoundingBox"/><path id="path698" fill="none" stroke="#3465a4" d="m 14100,10200 -1200,0 0,-1400 2400,0 0,1400 -1200,0 z"/><text id="text700" class="TextShape"><tspan id="tspan702" class="TextParagraph" font-family="sans-serif" font-size="635" font-weight="400"><tspan id="tspan704" x="13749" y="9721" class="TextPosition"><tspan id="tspan706" fill="#000" stroke="none">28</tspan></tspan></tspan></text></g></g><g id="g708" class="com.sun.star.drawing.LineShape" transform="translate(-3285.889,-3185.889)"><g id="id46"><rect id="rect711" width="1402" height="301" x="5199" y="3850" fill="none" stroke="none" class="BoundingBox"/><path id="path713" fill="none" stroke="#f33" d="m 5200,4000 970,0"/><path id="path715" fill="#f33" stroke="none" d="m 6600,4000 -450,-150 0,300 450,-150 z"/></g></g><g id="g717" class="com.sun.star.drawing.LineShape" transform="translate(-3285.889,-3185.889)"><g id="id47"><rect id="rect720" width="1202" height="802" x="5000" y="4299" fill="none" stroke="none" class="BoundingBox"/><path id="path722" fill="none" stroke="#f33" d="m 6200,4300 -842,561"/><path id="path724" fill="#f33" stroke="none" d="m 5000,5100 458,-125 -167,-249 -291,374 z"/></g></g><g id="g726" class="com.sun.star.drawing.LineShape" transform="translate(-3285.889,-3185.889)"><g id="id48"><rect id="rect729" width="1202" height="301" x="5399" y="5250" fill="none" stroke="none" class="BoundingBox"/><path id="path731" fill="none" stroke="#f33" d="m 5400,5400 770,0"/><path id="path733" fill="#f33" stroke="none" d="m 6600,5400 -450,-150 0,300 450,-150 z"/></g></g><g id="g735" class="com.sun.star.drawing.LineShape" transform="translate(-3285.889,-3185.889)"><g id="id49"><rect id="rect738" width="1202" height="301" x="7599" y="5250" fill="none" stroke="none" class="BoundingBox"/><path id="path740" fill="none" stroke="#f33" d="m 7600,5400 770,0"/><path id="path742" fill="#f33" stroke="none" d="m 8800,5400 -450,-150 0,300 450,-150 z"/></g></g><g id="g744" class="com.sun.star.drawing.LineShape" transform="translate(-3285.889,-3185.889)"><g id="id50"><rect id="rect747" width="1402" height="301" x="9799" y="5250" fill="none" stroke="none" class="BoundingBox"/><path id="path749" fill="none" stroke="#f33" d="m 9800,5400 970,0"/><path id="path751" fill="#f33" stroke="none" d="m 11200,5400 -450,-150 0,300 450,-150 z"/></g></g><g id="g753" class="com.sun.star.drawing.LineShape" transform="translate(-3285.889,-3185.889)"><g id="id51"><rect id="rect756" width="1202" height="802" x="9900" y="4200" fill="none" stroke="none" class="BoundingBox"/><path id="path758" fill="none" stroke="#f33" d="m 11100,5000 -842,-561"/><path id="path760" fill="#f33" stroke="none" d="m 9900,4200 291,374 167,-249 -458,-125 z"/></g></g><g id="g762" class="com.sun.star.drawing.LineShape" transform="translate(-3285.889,-3185.889)"><g id="id52"><rect id="rect765" width="1402" height="301" x="9999" y="3850" fill="none" stroke="none" class="BoundingBox"/><path id="path767" fill="none" stroke="#f33" d="m 10000,4000 970,0"/><path id="path769" fill="#f33" stroke="none" d="m 11400,4000 -450,-150 0,300 450,-150 z"/></g></g><g id="g771" class="com.sun.star.drawing.LineShape" transform="translate(-3285.889,-3185.889)"><g id="id53"><rect id="rect774" width="1202" height="301" x="12399" y="3850" fill="none" stroke="none" class="BoundingBox"/><path id="path776" fill="none" stroke="#f33" d="m 12400,4000 770,0"/><path id="path778" fill="#f33" stroke="none" d="m 13600,4000 -450,-150 0,300 450,-150 z"/></g></g><g id="g780" class="com.sun.star.drawing.LineShape" transform="translate(-3285.889,-3185.889)"><g id="id54"><rect id="rect783" width="1202" height="301" x="14799" y="3850" fill="none" stroke="none" class="BoundingBox"/><path id="path785" fill="none" stroke="#f33" d="m 14800,4000 770,0"/><path id="path787" fill="#f33" stroke="none" d="m 16000,4000 -450,-150 0,300 450,-150 z"/></g></g><g id="g789" class="com.sun.star.drawing.LineShape" transform="translate(-3285.889,-3185.889)"><g id="id55"><rect id="rect792" width="1402" height="602" x="14400" y="4399" fill="none" stroke="none" class="BoundingBox"/><path id="path794" fill="none" stroke="#f33" d="m 15800,4400 -1005,431"/><path id="path796" fill="#f33" stroke="none" d="m 14400,5000 473,-39 -118,-276 -355,315 z"/></g></g><g id="g798" class="com.sun.star.drawing.LineShape" transform="translate(-3285.889,-3185.889)"><g id="id56"><rect id="rect801" width="1402" height="301" x="14599" y="5250" fill="none" stroke="none" class="BoundingBox"/><path id="path803" fill="none" stroke="#f33" d="m 14600,5400 970,0"/><path id="path805" fill="#f33" stroke="none" d="m 16000,5400 -450,-150 0,300 450,-150 z"/></g></g><g id="g807" class="com.sun.star.drawing.LineShape" transform="translate(-3285.889,-3185.889)"><g id="id57"><rect id="rect810" width="1402" height="301" x="5199" y="6550" fill="none" stroke="none" class="BoundingBox"/><path id="path812" fill="none" stroke="#f33" d="m 5200,6700 970,0"/><path id="path814" fill="#f33" stroke="none" d="m 6600,6700 -450,-150 0,300 450,-150 z"/></g></g><g id="g816" class="com.sun.star.drawing.LineShape" transform="translate(-3285.889,-3129.4446)"><g id="id58"><rect id="rect819" width="1202" height="802" x="5000" y="6999" fill="none" stroke="none" class="BoundingBox"/><path id="path821" fill="none" stroke="#f33" d="m 6200,7000 -842,561"/><path id="path823" fill="#f33" stroke="none" d="m 5000,7800 458,-125 -167,-249 -291,374 z"/></g></g><g id="g825" class="com.sun.star.drawing.LineShape" transform="translate(-3285.889,-3185.889)"><g id="id59"><rect id="rect828" width="1202" height="301" x="5399" y="7950" fill="none" stroke="none" class="BoundingBox"/><path id="path830" fill="none" stroke="#f33" d="m 5400,8100 770,0"/><path id="path832" fill="#f33" stroke="none" d="m 6600,8100 -450,-150 0,300 450,-150 z"/></g></g><g id="g834" class="com.sun.star.drawing.LineShape" transform="translate(-3285.889,-3185.889)"><g id="id60"><rect id="rect837" width="1202" height="301" x="7599" y="7950" fill="none" stroke="none" class="BoundingBox"/><path id="path839" fill="none" stroke="#f33" d="m 7600,8100 770,0"/><path id="path841" fill="#f33" stroke="none" d="m 8800,8100 -450,-150 0,300 450,-150 z"/></g></g><g id="g843" class="com.sun.star.drawing.LineShape" transform="translate(-3285.889,-3185.889)"><g id="id61"><rect id="rect846" width="1402" height="301" x="9799" y="7950" fill="none" stroke="none" class="BoundingBox"/><path id="path848" fill="none" stroke="#f33" d="m 9800,8100 970,0"/><path id="path850" fill="#f33" stroke="none" d="m 11200,8100 -450,-150 0,300 450,-150 z"/></g></g><g id="g852" class="com.sun.star.drawing.LineShape" transform="translate(-3285.889,-3129.4446)"><g id="id62"><rect id="rect855" width="1202" height="802" x="9900" y="6900" fill="none" stroke="none" class="BoundingBox"/><path id="path857" fill="none" stroke="#f33" d="m 11100,7700 -842,-561"/><path id="path859" fill="#f33" stroke="none" d="m 9900,6900 291,374 167,-249 -458,-125 z"/></g></g><g id="g861" class="com.sun.star.drawing.LineShape" transform="translate(-3285.889,-3185.889)"><g id="id63"><rect id="rect864" width="1402" height="301" x="9999" y="6550" fill="none" stroke="none" class="BoundingBox"/><path id="path866" fill="none" stroke="#f33" d="m 10000,6700 970,0"/><path id="path868" fill="#f33" stroke="none" d="m 11400,6700 -450,-150 0,300 450,-150 z"/></g></g><g id="g870" class="com.sun.star.drawing.LineShape" transform="translate(-3285.889,-3185.889)"><g id="id64"><rect id="rect873" width="1202" height="301" x="12399" y="6550" fill="none" stroke="none" class="BoundingBox"/><path id="path875" fill="none" stroke="#f33" d="m 12400,6700 770,0"/><path id="path877" fill="#f33" stroke="none" d="m 13600,6700 -450,-150 0,300 450,-150 z"/></g></g><g id="g879" class="com.sun.star.drawing.LineShape" transform="translate(-3285.889,-3185.889)"><g id="id65"><rect id="rect882" width="1202" height="301" x="14799" y="6550" fill="none" stroke="none" class="BoundingBox"/><path id="path884" fill="none" stroke="#f33" d="m 14800,6700 770,0"/><path id="path886" fill="#f33" stroke="none" d="m 16000,6700 -450,-150 0,300 450,-150 z"/></g></g><g id="g888" class="com.sun.star.drawing.LineShape" transform="translate(-3285.889,-3129.4446)"><g id="id66"><rect id="rect891" width="1402" height="602" x="14400" y="7099" fill="none" stroke="none" class="BoundingBox"/><path id="path893" fill="none" stroke="#f33" d="m 15800,7100 -1005,431"/><path id="path895" fill="#f33" stroke="none" d="m 14400,7700 473,-39 -118,-276 -355,315 z"/></g></g><g id="g897" class="com.sun.star.drawing.LineShape" transform="translate(-3285.889,-3185.889)"><g id="id67"><rect id="rect900" width="1402" height="301" x="14599" y="7950" fill="none" stroke="none" class="BoundingBox"/><path id="path902" fill="none" stroke="#f33" d="m 14600,8100 970,0"/><path id="path904" fill="#f33" stroke="none" d="m 16000,8100 -450,-150 0,300 450,-150 z"/></g></g><g id="g906" class="com.sun.star.drawing.LineShape" transform="translate(-3285.889,-3185.889)"><g id="id68"><rect id="rect909" width="1202" height="301" x="5399" y="9450" fill="none" stroke="none" class="BoundingBox"/><path id="path911" fill="none" stroke="#f33" d="m 5400,9600 770,0"/><path id="path913" fill="#f33" stroke="none" d="m 6600,9600 -450,-150 0,300 450,-150 z"/></g></g><g id="g915" class="com.sun.star.drawing.LineShape" transform="translate(-3285.889,-3185.889)"><g id="id69"><rect id="rect918" width="1202" height="301" x="7599" y="9450" fill="none" stroke="none" class="BoundingBox"/><path id="path920" fill="none" stroke="#f33" d="m 7600,9600 770,0"/><path id="path922" fill="#f33" stroke="none" d="m 8800,9600 -450,-150 0,300 450,-150 z"/></g></g><g id="g924" class="com.sun.star.drawing.LineShape" transform="translate(-3285.889,-3185.889)"><g id="id70"><rect id="rect927" width="1202" height="301" x="9999" y="9450" fill="none" stroke="none" class="BoundingBox"/><path id="path929" fill="none" stroke="#f33" d="m 10000,9600 770,0"/><path id="path931" fill="#f33" stroke="none" d="m 11200,9600 -450,-150 0,300 450,-150 z"/></g></g><g id="g933" class="com.sun.star.drawing.LineShape" transform="translate(-3285.889,-3185.889)"><g id="id71"><rect id="rect936" width="1202" height="301" x="12399" y="9450" fill="none" stroke="none" class="BoundingBox"/><path id="path938" fill="none" stroke="#f33" d="m 12400,9600 770,0"/><path id="path940" fill="#f33" stroke="none" d="m 13600,9600 -450,-150 0,300 450,-150 z"/></g></g><g id="g942" class="com.sun.star.drawing.LineShape" transform="translate(-3285.889,-3185.889)"><g id="id72"><rect id="rect945" width="1202" height="301" x="14799" y="9450" fill="none" stroke="none" class="BoundingBox"/><path id="path947" fill="none" stroke="#f33" d="m 14800,9600 770,0"/><path id="path949" fill="#f33" stroke="none" d="m 16000,9600 -450,-150 0,300 450,-150 z"/></g></g></svg>