<svg xmlns="http://www.w3.org/2000/svg" xmlns:svg="http://www.w3.org/2000/svg" id="svg2" width="363.901" height="106.893" fill-rule="evenodd" stroke-linejoin="round" stroke-width="28.222" preserveAspectRatio="xMidYMid" version="1.2" viewBox="0 0 9628.221 2828.222" xml:space="preserve"><metadata id="metadata383"/><defs id="defs4" class="ClipPathGroup"><clipPath id="presentation_clip_path" clipPathUnits="userSpaceOnUse"><rect id="rect7" width="28000" height="21000" x="0" y="0"/></clipPath></defs><g id="g177" class="SlideGroup" transform="translate(-3285.889,-3185.889)"><g id="g179"><g id="id1" class="Slide" clip-path="url(#presentation_clip_path)"><g id="g182" class="Page"><g id="g184" class="com.sun.star.drawing.CustomShape"><g id="id6"><rect id="rect187" width="2403" height="1403" x="3299" y="3199" fill="none" stroke="none" class="BoundingBox"/><path id="path189" fill="none" stroke="#3465a4" d="m 4500,4600 -1200,0 0,-1400 2400,0 0,1400 -1200,0 z"/><text id="text191" class="TextShape"><tspan id="tspan193" class="TextParagraph" font-family="sans-serif" font-size="635" font-weight="400"><tspan id="tspan195" x="4325" y="4121" class="TextPosition"><tspan id="tspan197" fill="#000" stroke="none">0</tspan></tspan></tspan></text></g></g><g id="g199" class="com.sun.star.drawing.CustomShape"><g id="id7"><rect id="rect202" width="2403" height="1403" x="5699" y="3199" fill="none" stroke="none" class="BoundingBox"/><path id="path204" fill="none" stroke="#3465a4" d="m 6900,4600 -1200,0 0,-1400 2400,0 0,1400 -1200,0 z"/></g></g><g id="g206" class="com.sun.star.drawing.CustomShape"><g id="id8"><rect id="rect209" width="2403" height="1403" x="8099" y="3199" fill="none" stroke="none" class="BoundingBox"/><path id="path211" fill="none" stroke="#3465a4" d="m 9300,4600 -1200,0 0,-1400 2400,0 0,1400 -1200,0 z"/><text id="text213" class="TextShape"><tspan id="tspan215" class="TextParagraph" font-family="sans-serif" font-size="635" font-weight="400"><tspan id="tspan217" x="9125" y="4121" class="TextPosition"><tspan id="tspan219" fill="#000" stroke="none">6</tspan></tspan></tspan></text></g></g><g id="g221" class="com.sun.star.drawing.CustomShape"><g id="id9"><rect id="rect224" width="2403" height="1403" x="5699" y="3199" fill="none" stroke="none" class="BoundingBox"/><path id="path226" fill="none" stroke="#3465a4" d="m 6900,4600 -1200,0 0,-1400 2400,0 0,1400 -1200,0 z"/><text id="text228" class="TextShape"><tspan id="tspan230" class="TextParagraph" font-family="sans-serif" font-size="635" font-weight="400"><tspan id="tspan232" x="6725" y="4121" class="TextPosition"><tspan id="tspan234" fill="#000" stroke="none">1</tspan></tspan></tspan></text></g></g><g id="g236" class="com.sun.star.drawing.CustomShape"><g id="id10"><rect id="rect239" width="2403" height="1403" x="10499" y="3199" fill="none" stroke="none" class="BoundingBox"/><path id="path241" fill="none" stroke="#3465a4" d="m 11700,4600 -1200,0 0,-1400 2400,0 0,1400 -1200,0 z"/><text id="text243" class="TextShape"><tspan id="tspan245" class="TextParagraph" font-family="sans-serif" font-size="635" font-weight="400"><tspan id="tspan247" x="11525" y="4121" class="TextPosition"><tspan id="tspan249" fill="#000" stroke="none">7</tspan></tspan></tspan></text></g></g><g id="g251" class="com.sun.star.drawing.CustomShape"><g id="id11"><rect id="rect254" width="2403" height="1403" x="3299" y="4599" fill="none" stroke="none" class="BoundingBox"/><path id="path256" fill="none" stroke="#3465a4" d="m 4500,6000 -1200,0 0,-1400 2400,0 0,1400 -1200,0 z"/><text id="text258" class="TextShape"><tspan id="tspan260" class="TextParagraph" font-family="sans-serif" font-size="635" font-weight="400"><tspan id="tspan262" x="4325" y="5521" class="TextPosition"><tspan id="tspan264" fill="#000" stroke="none">2</tspan></tspan></tspan></text></g></g><g id="g266" class="com.sun.star.drawing.CustomShape"><g id="id12"><rect id="rect269" width="2403" height="1403" x="5699" y="4599" fill="none" stroke="none" class="BoundingBox"/><path id="path271" fill="none" stroke="#3465a4" d="m 6900,6000 -1200,0 0,-1400 2400,0 0,1400 -1200,0 z"/></g></g><g id="g273" class="com.sun.star.drawing.CustomShape"><g id="id13"><rect id="rect276" width="2403" height="1403" x="8099" y="4599" fill="none" stroke="none" class="BoundingBox"/><path id="path278" fill="none" stroke="#3465a4" d="m 9300,6000 -1200,0 0,-1400 2400,0 0,1400 -1200,0 z"/><text id="text280" class="TextShape"><tspan id="tspan282" class="TextParagraph" font-family="sans-serif" font-size="635" font-weight="400"><tspan id="tspan284" x="9125" y="5521" class="TextPosition"><tspan id="tspan286" fill="#000" stroke="none">4</tspan></tspan></tspan></text></g></g><g id="g288" class="com.sun.star.drawing.CustomShape"><g id="id14"><rect id="rect291" width="2403" height="1403" x="5699" y="4599" fill="none" stroke="none" class="BoundingBox"/><path id="path293" fill="none" stroke="#3465a4" d="m 6900,6000 -1200,0 0,-1400 2400,0 0,1400 -1200,0 z"/><text id="text295" class="TextShape"><tspan id="tspan297" class="TextParagraph" font-family="sans-serif" font-size="635" font-weight="400"><tspan id="tspan299" x="6725" y="5521" class="TextPosition"><tspan id="tspan301" fill="#000" stroke="none">3</tspan></tspan></tspan></text></g></g><g id="g303" class="com.sun.star.drawing.CustomShape"><g id="id15"><rect id="rect306" width="2403" height="1403" x="10499" y="4599" fill="none" stroke="none" class="BoundingBox"/><path id="path308" fill="none" stroke="#3465a4" d="m 11700,6000 -1200,0 0,-1400 2400,0 0,1400 -1200,0 z"/><text id="text310" class="TextShape"><tspan id="tspan312" class="TextParagraph" font-family="sans-serif" font-size="635" font-weight="400"><tspan id="tspan314" x="11525" y="5521" class="TextPosition"><tspan id="tspan316" fill="#000" stroke="none">5</tspan></tspan></tspan></text></g></g><g id="g318" class="com.sun.star.drawing.LineShape"><g id="id16"><rect id="rect321" width="1402" height="301" x="5199" y="3850" fill="none" stroke="none" class="BoundingBox"/><path id="path323" fill="none" stroke="#f33" d="m 5200,4000 970,0"/><path id="path325" fill="#f33" stroke="none" d="m 6600,4000 -450,-150 0,300 450,-150 z"/></g></g><g id="g327" class="com.sun.star.drawing.LineShape"><g id="id17"><rect id="rect330" width="1202" height="802" x="5000" y="4299" fill="none" stroke="none" class="BoundingBox"/><path id="path332" fill="none" stroke="#f33" d="m 6200,4300 -842,561"/><path id="path334" fill="#f33" stroke="none" d="m 5000,5100 458,-125 -167,-249 -291,374 z"/></g></g><g id="g336" class="com.sun.star.drawing.LineShape"><g id="id18"><rect id="rect339" width="1202" height="301" x="5399" y="5250" fill="none" stroke="none" class="BoundingBox"/><path id="path341" fill="none" stroke="#f33" d="m 5400,5400 770,0"/><path id="path343" fill="#f33" stroke="none" d="m 6600,5400 -450,-150 0,300 450,-150 z"/></g></g><g id="g345" class="com.sun.star.drawing.LineShape"><g id="id19"><rect id="rect348" width="1202" height="301" x="7599" y="5250" fill="none" stroke="none" class="BoundingBox"/><path id="path350" fill="none" stroke="#f33" d="m 7600,5400 770,0"/><path id="path352" fill="#f33" stroke="none" d="m 8800,5400 -450,-150 0,300 450,-150 z"/></g></g><g id="g354" class="com.sun.star.drawing.LineShape"><g id="id20"><rect id="rect357" width="1402" height="301" x="9799" y="5250" fill="none" stroke="none" class="BoundingBox"/><path id="path359" fill="none" stroke="#f33" d="m 9800,5400 970,0"/><path id="path361" fill="#f33" stroke="none" d="m 11200,5400 -450,-150 0,300 450,-150 z"/></g></g><g id="g363" class="com.sun.star.drawing.LineShape"><g id="id21"><rect id="rect366" width="1202" height="802" x="9900" y="4200" fill="none" stroke="none" class="BoundingBox"/><path id="path368" fill="none" stroke="#f33" d="m 11100,5000 -842,-561"/><path id="path370" fill="#f33" stroke="none" d="m 9900,4200 291,374 167,-249 -458,-125 z"/></g></g><g id="g372" class="com.sun.star.drawing.LineShape"><g id="id22"><rect id="rect375" width="1402" height="301" x="9999" y="3850" fill="none" stroke="none" class="BoundingBox"/><path id="path377" fill="none" stroke="#f33" d="m 10000,4000 970,0"/><path id="path379" fill="#f33" stroke="none" d="m 11400,4000 -450,-150 0,300 450,-150 z"/></g></g></g></g></g></g></svg>