<svg xmlns="http://www.w3.org/2000/svg" xmlns:svg="http://www.w3.org/2000/svg" id="svg2" width="2223.318" height="653.075" version="1.1" viewBox="-186 71 1174.512 332.146"><metadata id="metadata260"/><g id="g4" transform="translate(-1.4982376,-7.6949076)"><rect id="rect6" width="208.1" height="249" x="318.9" y="129" fill="#fff"/><rect id="rect8" width="208.1" height="249" x="318.9" y="129" fill="none" fill-opacity="0" stroke="#ff765a" stroke-width="2"/></g><rect id="rect10" width="806" height="343" x="-3.498" y="65.305" fill="none" fill-opacity="0" stroke="#000" stroke-width="2"/><g id="g12" transform="translate(-1.4982376,-7.6949076)"><circle id="ellipse14" cx="-12.5" cy="166.712" r="8.5" fill="#fff"/><circle id="ellipse16" cx="-12.5" cy="166.712" r="8.5" fill="none" fill-opacity="0" stroke="#000" stroke-width="2"/><circle id="ellipse18" cx="-12.5" cy="166.712" r="8.5" fill="none" fill-opacity="0" stroke="#000" stroke-width="2"/></g><g id="g20" transform="translate(-1.4982376,-7.6949076)"><circle id="ellipse22" cx="815.232" cy="205.184" r="8.5" fill="#fff"/><circle id="ellipse24" cx="815.232" cy="205.184" r="8.5" fill="none" fill-opacity="0" stroke="#000" stroke-width="2"/><circle id="ellipse26" cx="815.232" cy="205.184" r="8.5" fill="none" fill-opacity="0" stroke="#000" stroke-width="2"/></g><g id="g28" transform="translate(-1.4982376,-7.6949076)"><line id="line30" x1="-184.5" x2="-30.736" y1="167" y2="166.729" fill="none" fill-opacity="0" stroke="#000" stroke-width="2"/><polygon id="polygon32" fill="#000" points="-33.245 161.734 -23.236 166.716 -33.227 171.734 -30.736 166.729"/><polygon id="polygon34" fill="none" fill-opacity="0" stroke="#000" stroke-width="2" points="-33.245 161.734 -23.236 166.716 -33.227 171.734 -30.736 166.729"/></g><g id="g36" transform="translate(-1.4982376,-7.6949076)"><line id="line38" x1="823.732" x2="980.066" y1="205.184" y2="205.212" fill="none" fill-opacity="0" stroke="#000" stroke-width="2"/><polygon id="polygon40" fill="#000" points="977.567 200.212 987.566 205.214 977.565 210.212 980.066 205.212"/><polygon id="polygon42" fill="none" fill-opacity="0" stroke="#000" stroke-width="2" points="977.567 200.212 987.566 205.214 977.565 210.212 980.066 205.212"/></g><text id="text44" x="-141.458" y="147.305" fill="#000" font-family="sanserif" font-size="12.8" font-style="normal" font-weight="normal" text-anchor="start"><tspan id="tspan46" x="-141.458" y="147.305">pad 0 (sink)</tspan></text><text id="text48" x="847.542" y="187.305" fill="#000" font-family="sanserif" font-size="12.8" font-style="normal" font-weight="normal" text-anchor="start"><tspan id="tspan50" x="847.542" y="187.305">pad 2 (source)</tspan></text><g id="g52" transform="translate(-1.4982376,-7.6949076)"><rect id="rect54" width="159" height="104" x="5.5" y="120" fill="#fff"/><rect id="rect56" width="159" height="104" x="5.5" y="120" fill="none" fill-opacity="0" stroke="brown" stroke-width="2"/></g><g id="g58" transform="translate(-1.4982376,-7.6949076)"><rect id="rect60" width="94" height="77" x="62.5" y="136" fill="#fff"/><rect id="rect62" width="94" height="77" x="62.5" y="136" fill="none" fill-opacity="0" stroke="#00f" stroke-width="2"/></g><text id="text68" x="8.04" y="81.219" fill="brown" font-family="sanserif" font-size="12.8" font-style="normal" font-weight="normal" text-anchor="start"><tspan id="tspan70" x="8.04" y="81.219">sink media</tspan> <tspan id="tspan72" x="8.04" y="97.219">bus format</tspan></text><g id="g74" transform="translate(-1.4982376,-7.6949076)"><rect id="rect76" width="165.2" height="172.478" x="333.644" y="185.65" fill="#fff"/><rect id="rect78" width="165.2" height="172.478" x="333.644" y="185.65" fill="none" fill-opacity="0" stroke="#0f0" stroke-width="2"/></g><line id="line80" x1="332.146" x2="61.002" y1="350.433" y2="205.305" fill="none" fill-opacity="0" stroke="#e60505" stroke-dasharray="4" stroke-width="2"/><line id="line82" x1="332.146" x2="61.002" y1="177.955" y2="128.305" fill="none" fill-opacity="0" stroke="#e60505" stroke-dasharray="4" stroke-width="2"/><line id="line84" x1="497.346" x2="155.002" y1="350.433" y2="205.305" fill="none" fill-opacity="0" stroke="#e60505" stroke-dasharray="4" stroke-width="2"/><line id="line86" x1="497.346" x2="155.002" y1="177.955" y2="128.305" fill="none" fill-opacity="0" stroke="#e60505" stroke-dasharray="4" stroke-width="2"/><text id="text88" x="333.206" y="141.747" fill="#0f0" font-family="sanserif" font-size="12.8" font-style="normal" font-weight="normal" text-anchor="start"><tspan id="tspan90" x="333.206" y="141.747">sink compose</tspan> <tspan id="tspan92" x="333.206" y="157.747">selection (scaling)</tspan></text><g id="g94" transform="translate(-1.4982376,-7.6949076)"><rect id="rect96" width="100.186" height="71.452" x="409.322" y="194.565" fill="#fff"/><rect id="rect98" width="100.186" height="71.452" x="409.322" y="194.565" fill="none" fill-opacity="0" stroke="#a020f0" stroke-width="2"/></g><text id="text100" x="688.002" y="97.433" fill="#8b6914" font-family="sanserif" font-size="12.8" font-style="normal" font-weight="normal" text-anchor="start"><tspan id="tspan102" x="688.002" y="97.433">source media</tspan> <tspan id="tspan104" x="688.002" y="113.433">bus format</tspan></text><g id="g106" transform="translate(-1.4982376,-7.6949076)"><rect id="rect108" width="100.186" height="71.452" x="688.488" y="173.834" fill="#fff"/><rect id="rect110" width="100.186" height="71.452" x="688.488" y="173.834" fill="none" fill-opacity="0" stroke="#8b6914" stroke-width="2"/></g><line id="line112" x1="686.99" x2="407.824" y1="237.591" y2="258.323" fill="none" fill-opacity="0" stroke="#e60505" stroke-dasharray="4" stroke-width="2"/><line id="line114" x1="686.99" x2="407.824" y1="166.139" y2="186.87" fill="none" fill-opacity="0" stroke="#e60505" stroke-dasharray="4" stroke-width="2"/><line id="line116" x1="787.176" x2="508.01" y1="237.591" y2="258.323" fill="none" fill-opacity="0" stroke="#e60505" stroke-dasharray="4" stroke-width="2"/><line id="line118" x1="787.176" x2="508.01" y1="166.139" y2="186.87" fill="none" fill-opacity="0" stroke="#e60505" stroke-dasharray="4" stroke-width="2"/><text id="text120" x="323.502" y="95.305" fill="#ff765a" font-family="sanserif" font-size="12.8" font-style="normal" font-weight="normal" text-anchor="start"><tspan id="tspan122" x="323.502" y="95.305">sink compose</tspan> <tspan id="tspan124" x="323.502" y="111.305">bounds selection</tspan></text><g id="g126" transform="translate(-1.4982376,-7.6949076)"><circle id="ellipse128" cx="-12.098" cy="341.512" r="8.5" fill="#fff"/><circle id="ellipse130" cx="-12.098" cy="341.512" r="8.5" fill="none" fill-opacity="0" stroke="#000" stroke-width="2"/><circle id="ellipse132" cx="-12.098" cy="341.512" r="8.5" fill="none" fill-opacity="0" stroke="#000" stroke-width="2"/></g><g id="g134" transform="translate(-1.4982376,-7.6949076)"><line id="line136" x1="-184.098" x2="-30.334" y1="341.8" y2="341.529" fill="none" fill-opacity="0" stroke="#000" stroke-width="2"/><polygon id="polygon138" fill="#000" points="-32.843 336.534 -22.834 341.516 -32.825 346.534 -30.334 341.529"/><polygon id="polygon140" fill="none" fill-opacity="0" stroke="#000" stroke-width="2" points="-32.843 336.534 -22.834 341.516 -32.825 346.534 -30.334 341.529"/></g><text id="text142" x="-140.498" y="321.305" fill="#000" font-family="sanserif" font-size="12.8" font-style="normal" font-weight="normal" text-anchor="start"><tspan id="tspan144" x="-140.498" y="321.305">pad 1 (sink)</tspan></text><g id="g146" transform="translate(-1.4982376,-7.6949076)"><rect id="rect148" width="112.092" height="82.2" x="7.808" y="292.8" fill="#fff"/><rect id="rect150" width="112.092" height="82.2" x="7.808" y="292.8" fill="none" fill-opacity="0" stroke="brown" stroke-width="2"/></g><g id="g152" transform="translate(-1.4982376,-7.6949076)"><rect id="rect154" width="58.1" height="50.2" x="52.9" y="314.8" fill="#fff"/><rect id="rect156" width="58.1" height="50.2" x="52.9" y="314.8" fill="none" fill-opacity="0" stroke="#00f" stroke-width="2"/></g><line id="line162" x1="357.402" x2="51.402" y1="244.205" y2="307.105" fill="none" fill-opacity="0" stroke="#e60505" stroke-dasharray="4" stroke-width="2"/><line id="line164" x1="357.402" x2="51.402" y1="308.305" y2="357.305" fill="none" fill-opacity="0" stroke="#e60505" stroke-dasharray="4" stroke-width="2"/><line id="line166" x1="432.502" x2="109.502" y1="308.305" y2="357.305" fill="none" fill-opacity="0" stroke="#e60505" stroke-dasharray="4" stroke-width="2"/><line id="line168" x1="432.502" x2="109.502" y1="244.205" y2="307.105" fill="none" fill-opacity="0" stroke="#e60505" stroke-dasharray="4" stroke-width="2"/><rect id="rect170" width="75.1" height="64.1" x="357.402" y="244.205" fill="none" fill-opacity="0" stroke="#0f0" stroke-width="2"/><rect id="rect172" width="64.738" height="48.534" x="441.764" y="276.771" fill="none" fill-opacity="0" stroke="#a020f0" stroke-width="2"/><g id="g174" transform="translate(-1.4982376,-7.6949076)"><rect id="rect176" width="63.572" height="49.266" x="693.428" y="324.734" fill="#fff"/><rect id="rect178" width="63.572" height="49.266" x="693.428" y="324.734" fill="none" fill-opacity="0" stroke="#8b6914" stroke-width="2"/></g><line id="line180" x1="691.93" x2="441.764" y1="366.305" y2="325.305" fill="none" fill-opacity="0" stroke="#e60505" stroke-dasharray="4" stroke-width="2"/><line id="line182" x1="691.93" x2="441.764" y1="317.039" y2="276.771" fill="none" fill-opacity="0" stroke="#e60505" stroke-dasharray="4" stroke-width="2"/><line id="line184" x1="755.502" x2="506.502" y1="366.305" y2="325.305" fill="none" fill-opacity="0" stroke="#e60505" stroke-dasharray="4" stroke-width="2"/><line id="line186" x1="755.502" x2="506.502" y1="317.039" y2="276.771" fill="none" fill-opacity="0" stroke="#e60505" stroke-dasharray="4" stroke-width="2"/><g id="g188" transform="translate(-1.4982376,-7.6949076)"><circle id="ellipse190" cx="815.44" cy="343.984" r="8.5" fill="#fff"/><circle id="ellipse192" cx="815.44" cy="343.984" r="8.5" fill="none" fill-opacity="0" stroke="#000" stroke-width="2"/><circle id="ellipse194" cx="815.44" cy="343.984" r="8.5" fill="none" fill-opacity="0" stroke="#000" stroke-width="2"/></g><g id="g196" transform="translate(-1.4982376,-7.6949076)"><line id="line198" x1="823.94" x2="980.274" y1="343.984" y2="344.012" fill="none" fill-opacity="0" stroke="#000" stroke-width="2"/><polygon id="polygon200" fill="#000" points="977.775 339.012 987.774 344.014 977.773 349.012 980.274 344.012"/><polygon id="polygon202" fill="none" fill-opacity="0" stroke="#000" stroke-width="2" points="977.775 339.012 987.774 344.014 977.773 349.012 980.274 344.012"/></g><text id="text204" x="847.75" y="326.105" fill="#000" font-family="sanserif" font-size="12.8" font-style="normal" font-weight="normal" text-anchor="start"><tspan id="tspan206" x="847.75" y="326.105">pad 3 (source)</tspan></text><text id="text208" x="195.502" y="83.305" fill="#00f" font-family="sanserif" font-size="12.8" font-style="normal" font-weight="normal" text-anchor="start"><tspan id="tspan210" x="195.502" y="83.305">sink</tspan> <tspan id="tspan212" x="195.502" y="99.305">crop</tspan> <tspan id="tspan214" x="195.502" y="115.305">selection</tspan></text><text id="text216" x="551.502" y="87.305" fill="#a020f0" font-family="sanserif" font-size="12.8" font-style="normal" font-weight="normal" text-anchor="start"><tspan id="tspan218" x="551.502" y="87.305">source</tspan> <tspan id="tspan220" x="551.502" y="103.305">crop</tspan> <tspan id="tspan222" x="551.502" y="119.305">selection</tspan></text><g id="g224" transform="translate(-1.4982376,-7.6949076)"><line id="line226" x1="211" x2="166.21" y1="132" y2="135.287" fill="none" fill-opacity="0" stroke="#00f" stroke-width="2"/><polygon id="polygon228" fill="#00f" points="169.069 140.091 158.73 135.836 168.337 130.118 166.21 135.287"/><polygon id="polygon230" fill="none" fill-opacity="0" stroke="#00f" stroke-width="2" points="169.069 140.091 158.73 135.836 168.337 130.118 166.21 135.287"/></g><g id="g232" transform="translate(-1.4982376,-7.6949076)"><line id="line234" x1="209" x2="115.581" y1="131" y2="306.209" fill="none" fill-opacity="0" stroke="#00f" stroke-width="2"/><polygon id="polygon236" fill="#00f" points="121.169 306.355 112.052 312.827 112.345 301.65 115.581 306.209"/><polygon id="polygon238" fill="none" fill-opacity="0" stroke="#00f" stroke-width="2" points="121.169 306.355 112.052 312.827 112.345 301.65 115.581 306.209"/></g><g id="g240" transform="translate(-1.4982376,-7.6949076)"><line id="line242" x1="550.492" x2="514.916" y1="133.214" y2="186.469" fill="none" fill-opacity="0" stroke="#a020f0" stroke-width="2"/><polygon id="polygon244" fill="#a020f0" points="520.463 187.168 510.75 192.706 512.147 181.613 514.916 186.469"/><polygon id="polygon246" fill="none" fill-opacity="0" stroke="#a020f0" stroke-width="2" points="520.463 187.168 510.75 192.706 512.147 181.613 514.916 186.469"/></g><g id="g248" transform="translate(-1.4982376,-7.6949076)"><line id="line250" x1="550.072" x2="510.618" y1="133.787" y2="275.089" fill="none" fill-opacity="0" stroke="#a020f0" stroke-width="2"/><polygon id="polygon252" fill="#a020f0" points="516.106 274.025 508.601 282.312 506.475 271.336 510.618 275.089"/><polygon id="polygon254" fill="none" fill-opacity="0" stroke="#a020f0" stroke-width="2" points="516.106 274.025 508.601 282.312 506.475 271.336 510.618 275.089"/></g></svg>