<svg xmlns="http://www.w3.org/2000/svg" xmlns:svg="http://www.w3.org/2000/svg" id="svg2" width="1617.629" height="375.49" version="1.1" viewBox="-194 128 840.07 194.723"><metadata id="metadata100"/><rect id="rect4" width="469.774" height="193" x="-9.6" y="128.86" fill="none" fill-opacity="0" stroke="#000" stroke-width="2"/><g id="g6" transform="translate(-1.6002426,-1.1395339)"><rect id="rect8" width="159" height="104" x="4.5" y="189" fill="#fff"/><rect id="rect10" width="159" height="104" x="4.5" y="189" fill="none" fill-opacity="0" stroke="brown" stroke-width="2"/></g><g id="g12" transform="translate(-1.6002426,-1.1395339)"><rect id="rect14" width="94" height="77" x="63.5" y="211" fill="#fff"/><rect id="rect16" width="94" height="77" x="63.5" y="211" fill="none" fill-opacity="0" stroke="#00f" stroke-width="2"/></g><text id="text18" x="72.9" y="226.61" fill="#00f" font-family="sanserif" font-size="12.8" font-style="normal" font-weight="normal" text-anchor="start"><tspan id="tspan20" x="72.9" y="226.61">sink</tspan> <tspan id="tspan22" x="72.9" y="242.61">crop</tspan> <tspan id="tspan24" x="72.9" y="258.61">selection</tspan></text><text id="text30" x="6.938" y="156.774" fill="brown" font-family="sanserif" font-size="12.8" font-style="normal" font-weight="normal" text-anchor="start"><tspan id="tspan32" x="6.938" y="156.774">sink media</tspan> <tspan id="tspan34" x="6.938" y="172.774">bus format</tspan></text><text id="text36" x="348.174" y="153.86" fill="#8b6914" font-family="sanserif" font-size="12.8" font-style="normal" font-weight="normal" text-anchor="start"><tspan id="tspan38" x="348.174" y="153.86">source media</tspan> <tspan id="tspan40" x="348.174" y="169.86">bus format</tspan></text><g id="g42" transform="translate(-1.6002426,-1.1395339)"><rect id="rect44" width="93.286" height="75.166" x="350.488" y="190.834" fill="#fff"/><rect id="rect46" width="93.286" height="75.166" x="350.488" y="190.834" fill="none" fill-opacity="0" stroke="#8b6914" stroke-width="2"/></g><line id="line48" x1="348.888" x2="61.9" y1="264.86" y2="286.86" fill="none" fill-opacity="0" stroke="#e60505" stroke-dasharray="4" stroke-width="2"/><line id="line50" x1="348.888" x2="61.9" y1="189.694" y2="209.86" fill="none" fill-opacity="0" stroke="#e60505" stroke-dasharray="4" stroke-width="2"/><line id="line52" x1="442.174" x2="155.9" y1="264.86" y2="286.86" fill="none" fill-opacity="0" stroke="#e60505" stroke-dasharray="4" stroke-width="2"/><line id="line54" x1="442.174" x2="155.9" y1="189.694" y2="209.86" fill="none" fill-opacity="0" stroke="#e60505" stroke-dasharray="4" stroke-width="2"/><g id="g56" transform="translate(-1.6002426,-1.1395339)"><circle id="ellipse58" cx="473.1" cy="219.984" r="8.5" fill="#fff"/><circle id="ellipse60" cx="473.1" cy="219.984" r="8.5" fill="none" fill-opacity="0" stroke="#000" stroke-width="2"/><circle id="ellipse62" cx="473.1" cy="219.984" r="8.5" fill="none" fill-opacity="0" stroke="#000" stroke-width="2"/></g><g id="g64" transform="translate(-1.6002426,-1.1395339)"><line id="line66" x1="481.6" x2="637.934" y1="219.984" y2="220.012" fill="none" fill-opacity="0" stroke="#000" stroke-width="2"/><polygon id="polygon68" fill="#000" points="635.435 215.012 645.434 220.014 635.433 225.012 637.934 220.012"/><polygon id="polygon70" fill="none" fill-opacity="0" stroke="#000" stroke-width="2" points="635.435 215.012 645.434 220.014 635.433 225.012 637.934 220.012"/></g><text id="text72" x="505.308" y="208.66" fill="#000" font-family="sanserif" font-size="12.8" font-style="normal" font-weight="normal" text-anchor="start"><tspan id="tspan74" x="505.308" y="208.66">pad 1 (source)</tspan></text><g id="g76" transform="translate(-1.6002426,-1.1395339)"><circle id="ellipse78" cx="-20.398" cy="241.512" r="8.5" fill="#fff"/><circle id="ellipse80" cx="-20.398" cy="241.512" r="8.5" fill="none" fill-opacity="0" stroke="#000" stroke-width="2"/><circle id="ellipse82" cx="-20.398" cy="241.512" r="8.5" fill="none" fill-opacity="0" stroke="#000" stroke-width="2"/></g><g id="g84" transform="translate(-1.6002426,-1.1395339)"><line id="line86" x1="-192.398" x2="-38.634" y1="241.8" y2="241.529" fill="none" fill-opacity="0" stroke="#000" stroke-width="2"/><polygon id="polygon88" fill="#000" points="-41.143 236.534 -31.134 241.516 -41.125 246.534 -38.634 241.529"/><polygon id="polygon90" fill="none" fill-opacity="0" stroke="#000" stroke-width="2" points="-41.143 236.534 -31.134 241.516 -41.125 246.534 -38.634 241.529"/></g><text id="text92" x="-149.458" y="228.66" fill="#000" font-family="sanserif" font-size="12.8" font-style="normal" font-weight="normal" text-anchor="start"><tspan id="tspan94" x="-149.458" y="228.66">pad 0 (sink)</tspan></text></svg>