<svg xmlns="http://www.w3.org/2000/svg" xmlns:svg="http://www.w3.org/2000/svg" id="svg2" width="791.683" height="194.936" version="1.1" viewBox="0 0 742.203 182.753" xml:space="preserve"><metadata id="metadata8"/><defs id="defs6"><clipPath id="clipPath20" clipPathUnits="userSpaceOnUse"><path id="path22" d="m 0,0 5950,0 0,4546 L 0,4546 0,0 Z m 0,4546 5950,0 0,1 -5950,0 0,-1 z m 0,1 2211,0 0,1 -2211,0 0,-1 z m 2250,0 3700,0 0,1 -3700,0 0,-1 z m -2250,1 2215,0 0,1 -2215,0 0,-1 z m 2250,0 3700,0 0,1 -3700,0 0,-1 z m -2250,1 2219,0 0,1 -2219,0 0,-1 z m 2250,0 3700,0 0,1 -3700,0 0,-1 z m -2250,1 2223,0 0,1 -2223,0 0,-1 z m 2250,0 3700,0 0,1 -3700,0 0,-1 z m -2250,1 2227,0 0,1 -2227,0 0,-1 z m 2250,0 3700,0 0,1 -3700,0 0,-1 z m -2250,1 2231,0 0,1 -2231,0 0,-1 z m 2250,0 3700,0 0,1 -3700,0 0,-1 z m -2250,1 2235,0 0,1 -2235,0 0,-1 z m 2250,0 3700,0 0,1 -3700,0 0,-1 z m -2250,1 2239,0 0,1 -2239,0 0,-1 z m 2250,0 3700,0 0,1 -3700,0 0,-1 z m -2250,1 2241,0 0,1 -2241,0 0,-1 z m 2250,0 3700,0 0,1 -3700,0 0,-1 z m -2250,1 2240,0 0,1 -2240,0 0,-1 z m 2250,0 3700,0 0,1 -3700,0 0,-1 z m -2250,1 2236,0 0,1 -2236,0 0,-1 z m 2250,0 3700,0 0,1 -3700,0 0,-1 z m -2250,1 2232,0 0,1 -2232,0 0,-1 z m 2250,0 3700,0 0,1 -3700,0 0,-1 z m -2250,1 2228,0 0,1 -2228,0 0,-1 z m 2250,0 3700,0 0,1 -3700,0 0,-1 z m -2250,1 2224,0 0,1 -2224,0 0,-1 z m 2250,0 3700,0 0,1 -3700,0 0,-1 z m -2250,1 2220,0 0,1 -2220,0 0,-1 z m 2250,0 3700,0 0,1 -3700,0 0,-1 z m -2250,1 2216,0 0,1 -2216,0 0,-1 z m 2250,0 3700,0 0,1 -3700,0 0,-1 z m -2250,1 2212,0 0,1 -2212,0 0,-1 z m 2250,0 3700,0 0,1 -3700,0 0,-1 z m -2250,1 2208,0 0,1 -2208,0 0,-1 z m 2250,0 3700,0 0,1 -3700,0 0,-1 z m -2250,1 5950,0 0,1 -5950,0 0,-1 z m 0,1 5950,0 0,3854 -5950,0 0,-3854 z"/></clipPath><clipPath id="clipPath98" clipPathUnits="userSpaceOnUse"><path id="path100" d="m 0,0 5950,0 0,3922 L 0,3922 0,0 Z m 0,3922 5950,0 0,1 -5950,0 0,-1 z m 0,1 2209,0 0,1 -2209,0 0,-1 z m 2250,0 3700,0 0,1 -3700,0 0,-1 z m -2250,1 2213,0 0,1 -2213,0 0,-1 z m 2250,0 3700,0 0,1 -3700,0 0,-1 z m -2250,1 2217,0 0,1 -2217,0 0,-1 z m 2250,0 3700,0 0,1 -3700,0 0,-1 z m -2250,1 2221,0 0,1 -2221,0 0,-1 z m 2250,0 3700,0 0,1 -3700,0 0,-1 z m -2250,1 2225,0 0,1 -2225,0 0,-1 z m 2250,0 3700,0 0,1 -3700,0 0,-1 z m -2250,1 2229,0 0,1 -2229,0 0,-1 z m 2250,0 3700,0 0,1 -3700,0 0,-1 z m -2250,1 2233,0 0,1 -2233,0 0,-1 z m 2250,0 3700,0 0,1 -3700,0 0,-1 z m -2250,1 2237,0 0,1 -2237,0 0,-1 z m 2250,0 3700,0 0,1 -3700,0 0,-1 z m -2250,1 2241,0 0,1 -2241,0 0,-1 z m 2250,0 3700,0 0,1 -3700,0 0,-1 z m -2250,1 2241,0 0,1 -2241,0 0,-1 z m 2250,0 3700,0 0,1 -3700,0 0,-1 z m -2250,1 2237,0 0,1 -2237,0 0,-1 z m 2250,0 3700,0 0,1 -3700,0 0,-1 z m -2250,1 2233,0 0,1 -2233,0 0,-1 z m 2250,0 3700,0 0,1 -3700,0 0,-1 z m -2250,1 2229,0 0,1 -2229,0 0,-1 z m 2250,0 3700,0 0,1 -3700,0 0,-1 z m -2250,1 2225,0 0,1 -2225,0 0,-1 z m 2250,0 3700,0 0,1 -3700,0 0,-1 z m -2250,1 2221,0 0,1 -2221,0 0,-1 z m 2250,0 3700,0 0,1 -3700,0 0,-1 z m -2250,1 2217,0 0,1 -2217,0 0,-1 z m 2250,0 3700,0 0,1 -3700,0 0,-1 z m -2250,1 2213,0 0,1 -2213,0 0,-1 z m 2250,0 3700,0 0,1 -3700,0 0,-1 z m -2250,1 2209,0 0,1 -2209,0 0,-1 z m 2250,0 3700,0 0,1 -3700,0 0,-1 z m -2250,1 5950,0 0,1 -5950,0 0,-1 z m 0,1 5950,0 0,4478 -5950,0 0,-4478 z"/></clipPath></defs><g id="g10" transform="matrix(0.125,0,0,-0.125,-87.571875,638.69874)"><g id="g12" transform="matrix(1.3045828,0,0,1.3045828,-213.38312,-1110.9872)"><path id="path14" fill="none" stroke="#000" stroke-dasharray="none" stroke-linecap="butt" stroke-linejoin="miter" stroke-miterlimit="10" stroke-opacity="1" stroke-width="2.362" d="m 2132.25,4598.15 0,-85.05"/></g><g id="g16" transform="matrix(1.3045828,0,0,1.3045828,-213.38312,-1110.9872)"><g id="g18" clip-path="url(#clipPath20)"><path id="path24" fill="none" stroke="#000" stroke-dasharray="none" stroke-linecap="butt" stroke-linejoin="miter" stroke-miterlimit="10" stroke-opacity="1" stroke-width="2.362" d="m 2132.25,4555.63 113.4,0"/></g></g><path id="path28" fill="#000" fill-opacity="1" fill-rule="evenodd" stroke="none" d="m 2660.3649,4819.881 49.3132,12.3283 -49.3132,12.3283 0,-24.6566"/><path id="path30" fill="none" stroke="#000" stroke-dasharray="none" stroke-linecap="butt" stroke-linejoin="miter" stroke-miterlimit="10" stroke-opacity="1" stroke-width="3.082" d="m 2660.3649,4819.881 49.3132,12.3283 -49.3132,12.3283 0,-24.6566 z"/><path id="path32" fill="none" stroke="#000" stroke-dasharray="none" stroke-linecap="butt" stroke-linejoin="miter" stroke-miterlimit="10" stroke-opacity="1" stroke-width="3.082" d="m 1828.6151,4924.6651 0,73.9699"/><path id="path34" fill="none" stroke="#000" stroke-dasharray="none" stroke-linecap="butt" stroke-linejoin="miter" stroke-miterlimit="10" stroke-opacity="1" stroke-width="3.082" d="m 2198.4643,4998.635 0,-73.9699"/><path id="path36" fill="none" stroke="#000" stroke-dasharray="none" stroke-linecap="butt" stroke-linejoin="miter" stroke-miterlimit="10" stroke-opacity="1" stroke-width="3.082" d="m 2568.3136,4998.635 0,-73.9699"/><path id="path38" fill="none" stroke="#000" stroke-dasharray="none" stroke-linecap="butt" stroke-linejoin="miter" stroke-miterlimit="10" stroke-opacity="1" stroke-width="3.082" d="m 2938.1628,4998.635 0,-73.9699"/><path id="path40" fill="none" stroke="#000" stroke-dasharray="none" stroke-linecap="butt" stroke-linejoin="miter" stroke-miterlimit="10" stroke-opacity="1" stroke-width="3.082" d="m 3308.012,4998.635 0,-73.9699"/><path id="path42" fill="none" stroke="#000" stroke-dasharray="none" stroke-linecap="butt" stroke-linejoin="miter" stroke-miterlimit="10" stroke-opacity="1" stroke-width="3.082" d="m 3677.8612,4998.635 0,-73.9699"/><path id="path44" fill="none" stroke="#000" stroke-dasharray="none" stroke-linecap="butt" stroke-linejoin="miter" stroke-miterlimit="10" stroke-opacity="1" stroke-width="3.082" d="m 4047.7105,4998.635 0,-73.9699"/><path id="path46" fill="none" stroke="#000" stroke-dasharray="none" stroke-linecap="butt" stroke-linejoin="miter" stroke-miterlimit="10" stroke-opacity="1" stroke-width="3.082" d="m 4417.5597,4998.635 0,-73.9699"/><path id="path48" fill="none" stroke="#000" stroke-dasharray="none" stroke-linecap="butt" stroke-linejoin="miter" stroke-miterlimit="10" stroke-opacity="1" stroke-width="3.082" d="m 4787.4089,4998.635 0,-73.9699"/><path id="path50" fill="none" stroke="#000" stroke-dasharray="none" stroke-linecap="butt" stroke-linejoin="miter" stroke-miterlimit="10" stroke-opacity="1" stroke-width="3.082" d="m 5157.2581,4998.635 0,-73.9699"/><path id="path52" fill="none" stroke="#000" stroke-dasharray="none" stroke-linecap="butt" stroke-linejoin="miter" stroke-miterlimit="10" stroke-opacity="1" stroke-width="3.082" d="m 5527.1073,4998.635 0,-73.9699"/><path id="path54" fill="none" stroke="#000" stroke-dasharray="none" stroke-linecap="butt" stroke-linejoin="miter" stroke-miterlimit="10" stroke-opacity="1" stroke-width="3.082" d="m 5896.9566,4998.635 0,-73.9699"/><path id="path56" fill="none" stroke="#000" stroke-dasharray="none" stroke-linecap="butt" stroke-linejoin="miter" stroke-miterlimit="10" stroke-opacity="1" stroke-width="3.082" d="m 1458.7659,5109.5897 0,-73.9698"/><path id="path58" fill="none" stroke="#000" stroke-dasharray="none" stroke-linecap="butt" stroke-linejoin="miter" stroke-miterlimit="10" stroke-opacity="1" stroke-width="3.082" d="m 1828.6151,5035.6199 0,73.9698"/><path id="path60" fill="none" stroke="#000" stroke-dasharray="none" stroke-linecap="butt" stroke-linejoin="miter" stroke-miterlimit="10" stroke-opacity="1" stroke-width="3.082" d="m 2198.4643,5109.5897 0,-73.9698"/><path id="path62" fill="none" stroke="#000" stroke-dasharray="none" stroke-linecap="butt" stroke-linejoin="miter" stroke-miterlimit="10" stroke-opacity="1" stroke-width="3.082" d="m 2568.3136,5109.5897 0,-73.9698"/><path id="path64" fill="none" stroke="#000" stroke-dasharray="none" stroke-linecap="butt" stroke-linejoin="miter" stroke-miterlimit="10" stroke-opacity="1" stroke-width="3.082" d="m 2938.1628,5109.5897 0,-73.9698"/><path id="path66" fill="none" stroke="#000" stroke-dasharray="none" stroke-linecap="butt" stroke-linejoin="miter" stroke-miterlimit="10" stroke-opacity="1" stroke-width="3.082" d="m 3308.012,5109.5897 0,-73.9698"/><path id="path68" fill="none" stroke="#000" stroke-dasharray="none" stroke-linecap="butt" stroke-linejoin="miter" stroke-miterlimit="10" stroke-opacity="1" stroke-width="3.082" d="m 3677.8612,5109.5897 0,-73.9698"/><path id="path70" fill="none" stroke="#000" stroke-dasharray="none" stroke-linecap="butt" stroke-linejoin="miter" stroke-miterlimit="10" stroke-opacity="1" stroke-width="3.082" d="m 4047.7105,5109.5897 0,-73.9698"/><path id="path72" fill="none" stroke="#000" stroke-dasharray="none" stroke-linecap="butt" stroke-linejoin="miter" stroke-miterlimit="10" stroke-opacity="1" stroke-width="3.082" d="m 4417.5597,5109.5897 0,-73.9698"/><path id="path74" fill="none" stroke="#000" stroke-dasharray="none" stroke-linecap="butt" stroke-linejoin="miter" stroke-miterlimit="10" stroke-opacity="1" stroke-width="3.082" d="m 4787.4089,5109.5897 0,-73.9698"/><path id="path76" fill="none" stroke="#000" stroke-dasharray="none" stroke-linecap="butt" stroke-linejoin="miter" stroke-miterlimit="10" stroke-opacity="1" stroke-width="3.082" d="m 5157.2581,5109.5897 0,-73.9698"/><path id="path78" fill="none" stroke="#000" stroke-dasharray="none" stroke-linecap="butt" stroke-linejoin="miter" stroke-miterlimit="10" stroke-opacity="1" stroke-width="3.082" d="m 5527.1073,5109.5897 0,-73.9698"/><path id="path80" fill="none" stroke="#000" stroke-dasharray="none" stroke-linecap="butt" stroke-linejoin="miter" stroke-miterlimit="10" stroke-opacity="1" stroke-width="3.082" d="m 5896.9566,5109.5897 0,-73.9698"/><path id="path82" fill="none" stroke="#000" stroke-dasharray="none" stroke-linecap="butt" stroke-linejoin="miter" stroke-miterlimit="10" stroke-opacity="1" stroke-width="3.082" d="m 1458.7659,4998.635 0,-73.9699"/><path id="path84" fill="none" stroke="#000" stroke-dasharray="none" stroke-linecap="butt" stroke-linejoin="miter" stroke-miterlimit="10" stroke-opacity="1" stroke-width="3.082" d="m 719.06744,4998.635 0,-73.9699"/><path id="path86" fill="none" stroke="#000" stroke-dasharray="none" stroke-linecap="butt" stroke-linejoin="miter" stroke-miterlimit="10" stroke-opacity="1" stroke-width="3.082" d="m 719.06744,5109.5897 0,-73.9698"/><path id="path88" fill="none" stroke="#000" stroke-dasharray="none" stroke-linecap="butt" stroke-linejoin="miter" stroke-miterlimit="10" stroke-opacity="1" stroke-width="3.082" d="m 1088.9167,4998.635 0,-73.9699"/><path id="path90" fill="none" stroke="#000" stroke-dasharray="none" stroke-linecap="butt" stroke-linejoin="miter" stroke-miterlimit="10" stroke-opacity="1" stroke-width="3.082" d="m 1088.9167,5109.5897 0,-73.9698"/><path id="path92" fill="none" stroke="#000" stroke-dasharray="none" stroke-linecap="butt" stroke-linejoin="miter" stroke-miterlimit="10" stroke-opacity="1" stroke-width="3.082" d="m 2568.3136,4074.0119 0,-110.9548"/><g id="g94" transform="matrix(1.3045828,0,0,1.3045828,-213.38312,-1110.9872)"><g id="g96" clip-path="url(#clipPath98)"><path id="path102" fill="none" stroke="#000" stroke-dasharray="none" stroke-linecap="butt" stroke-linejoin="miter" stroke-miterlimit="10" stroke-opacity="1" stroke-width="2.362" d="m 2132.25,3931.93 113.4,0"/></g></g><path id="path106" fill="#000" fill-opacity="1" fill-rule="evenodd" stroke="none" d="m 2660.365,4006.2129 49.3132,12.3283 -49.3132,12.3283 0,-24.6566"/><path id="path108" fill="none" stroke="#000" stroke-dasharray="none" stroke-linecap="butt" stroke-linejoin="miter" stroke-miterlimit="10" stroke-opacity="1" stroke-width="3.082" d="m 2660.365,4006.2129 49.3132,12.3283 -49.3132,12.3283 0,-24.6566 z"/><path id="path110" fill="none" stroke="#000" stroke-dasharray="none" stroke-linecap="butt" stroke-linejoin="miter" stroke-miterlimit="10" stroke-opacity="1" stroke-width="3.082" d="m 6266.806,4184.9668 0,-73.9698"/><path id="path112" fill="none" stroke="#000" stroke-dasharray="none" stroke-linecap="butt" stroke-linejoin="miter" stroke-miterlimit="10" stroke-opacity="1" stroke-width="3.082" d="m 5896.9567,4184.9668 0,-73.9698"/><path id="path114" fill="none" stroke="#000" stroke-dasharray="none" stroke-linecap="butt" stroke-linejoin="miter" stroke-miterlimit="10" stroke-opacity="1" stroke-width="3.082" d="m 5527.1075,4184.9668 0,-73.9698"/><path id="path116" fill="none" stroke="#000" stroke-dasharray="none" stroke-linecap="butt" stroke-linejoin="miter" stroke-miterlimit="10" stroke-opacity="1" stroke-width="3.082" d="m 5157.2583,4184.9668 0,-73.9698"/><path id="path118" fill="none" stroke="#000" stroke-dasharray="none" stroke-linecap="butt" stroke-linejoin="miter" stroke-miterlimit="10" stroke-opacity="1" stroke-width="3.082" d="m 4787.409,4184.9668 0,-73.9698"/><path id="path120" fill="none" stroke="#000" stroke-dasharray="none" stroke-linecap="butt" stroke-linejoin="miter" stroke-miterlimit="10" stroke-opacity="1" stroke-width="3.082" d="m 4417.5598,4184.9668 0,-73.9698"/><path id="path122" fill="none" stroke="#000" stroke-dasharray="none" stroke-linecap="butt" stroke-linejoin="miter" stroke-miterlimit="10" stroke-opacity="1" stroke-width="3.082" d="m 4047.7106,4184.9668 0,-73.9698"/><path id="path124" fill="none" stroke="#000" stroke-dasharray="none" stroke-linecap="butt" stroke-linejoin="miter" stroke-miterlimit="10" stroke-opacity="1" stroke-width="3.082" d="m 3677.8613,4184.9668 0,-73.9698"/><path id="path126" fill="none" stroke="#000" stroke-dasharray="none" stroke-linecap="butt" stroke-linejoin="miter" stroke-miterlimit="10" stroke-opacity="1" stroke-width="3.082" d="m 3308.0121,4184.9668 0,-73.9698"/><path id="path128" fill="none" stroke="#000" stroke-dasharray="none" stroke-linecap="butt" stroke-linejoin="miter" stroke-miterlimit="10" stroke-opacity="1" stroke-width="3.082" d="m 2938.1629,4184.9668 0,-73.9698"/><path id="path130" fill="none" stroke="#000" stroke-dasharray="none" stroke-linecap="butt" stroke-linejoin="miter" stroke-miterlimit="10" stroke-opacity="1" stroke-width="3.082" d="m 2568.3136,4184.9668 0,-73.9698"/><path id="path132" fill="none" stroke="#000" stroke-dasharray="none" stroke-linecap="butt" stroke-linejoin="miter" stroke-miterlimit="10" stroke-opacity="1" stroke-width="3.082" d="m 2198.4644,4184.9668 0,-73.9698"/><path id="path134" fill="none" stroke="#000" stroke-dasharray="none" stroke-linecap="butt" stroke-linejoin="miter" stroke-miterlimit="10" stroke-opacity="1" stroke-width="3.082" d="m 1828.6152,4184.9668 0,-73.9698"/><path id="path136" fill="none" stroke="#000" stroke-dasharray="none" stroke-linecap="butt" stroke-linejoin="miter" stroke-miterlimit="10" stroke-opacity="1" stroke-width="3.082" d="m 1458.7659,4184.9668 0,-73.9698"/><path id="path138" fill="none" stroke="#000" stroke-dasharray="none" stroke-linecap="butt" stroke-linejoin="miter" stroke-miterlimit="10" stroke-opacity="1" stroke-width="3.082" d="m 6266.806,4295.9216 0,-73.9699"/><path id="path140" fill="none" stroke="#000" stroke-dasharray="none" stroke-linecap="butt" stroke-linejoin="miter" stroke-miterlimit="10" stroke-opacity="1" stroke-width="3.082" d="m 5896.9567,4295.9216 0,-73.9699"/><path id="path142" fill="none" stroke="#000" stroke-dasharray="none" stroke-linecap="butt" stroke-linejoin="miter" stroke-miterlimit="10" stroke-opacity="1" stroke-width="3.082" d="m 5527.1075,4295.9216 0,-73.9699"/><path id="path144" fill="none" stroke="#000" stroke-dasharray="none" stroke-linecap="butt" stroke-linejoin="miter" stroke-miterlimit="10" stroke-opacity="1" stroke-width="3.082" d="m 5157.2583,4295.9216 0,-73.9699"/><path id="path146" fill="none" stroke="#000" stroke-dasharray="none" stroke-linecap="butt" stroke-linejoin="miter" stroke-miterlimit="10" stroke-opacity="1" stroke-width="3.082" d="m 4787.409,4295.9216 0,-73.9699"/><path id="path148" fill="none" stroke="#000" stroke-dasharray="none" stroke-linecap="butt" stroke-linejoin="miter" stroke-miterlimit="10" stroke-opacity="1" stroke-width="3.082" d="m 4417.5598,4295.9216 0,-73.9699"/><path id="path150" fill="none" stroke="#000" stroke-dasharray="none" stroke-linecap="butt" stroke-linejoin="miter" stroke-miterlimit="10" stroke-opacity="1" stroke-width="3.082" d="m 4047.7106,4295.9216 0,-73.9699"/><path id="path152" fill="none" stroke="#000" stroke-dasharray="none" stroke-linecap="butt" stroke-linejoin="miter" stroke-miterlimit="10" stroke-opacity="1" stroke-width="3.082" d="m 3677.8613,4295.9216 0,-73.9699"/><path id="path154" fill="none" stroke="#000" stroke-dasharray="none" stroke-linecap="butt" stroke-linejoin="miter" stroke-miterlimit="10" stroke-opacity="1" stroke-width="3.082" d="m 3308.0121,4295.9216 0,-73.9699"/><path id="path156" fill="none" stroke="#000" stroke-dasharray="none" stroke-linecap="butt" stroke-linejoin="miter" stroke-miterlimit="10" stroke-opacity="1" stroke-width="3.082" d="m 2938.1629,4295.9216 0,-73.9699"/><path id="path158" fill="none" stroke="#000" stroke-dasharray="none" stroke-linecap="butt" stroke-linejoin="miter" stroke-miterlimit="10" stroke-opacity="1" stroke-width="3.082" d="m 2568.3136,4295.9216 0,-73.9699"/><path id="path160" fill="none" stroke="#000" stroke-dasharray="none" stroke-linecap="butt" stroke-linejoin="miter" stroke-miterlimit="10" stroke-opacity="1" stroke-width="3.082" d="m 2198.4644,4295.9216 0,-73.9699"/><path id="path162" fill="none" stroke="#000" stroke-dasharray="none" stroke-linecap="butt" stroke-linejoin="miter" stroke-miterlimit="10" stroke-opacity="1" stroke-width="3.082" d="m 1828.6152,4295.9216 0,-73.9699"/><path id="path164" fill="none" stroke="#000" stroke-dasharray="none" stroke-linecap="butt" stroke-linejoin="miter" stroke-miterlimit="10" stroke-opacity="1" stroke-width="3.082" d="m 1458.7659,4295.9216 0,-73.9699"/><path id="path166" fill="none" stroke="#000" stroke-dasharray="none" stroke-linecap="butt" stroke-linejoin="miter" stroke-miterlimit="10" stroke-opacity="1" stroke-width="3.082" d="m 719.06746,4295.9216 0,-73.9699"/><path id="path168" fill="none" stroke="#000" stroke-dasharray="none" stroke-linecap="butt" stroke-linejoin="miter" stroke-miterlimit="10" stroke-opacity="1" stroke-width="3.082" d="m 719.06746,4184.9668 0,-73.9698"/><path id="path170" fill="none" stroke="#000" stroke-dasharray="none" stroke-linecap="butt" stroke-linejoin="miter" stroke-miterlimit="10" stroke-opacity="1" stroke-width="3.082" d="m 1088.9167,4295.9216 0,-73.9699"/><path id="path172" fill="none" stroke="#000" stroke-dasharray="none" stroke-linecap="butt" stroke-linejoin="miter" stroke-miterlimit="10" stroke-opacity="1" stroke-width="3.082" d="m 1088.9167,4184.9668 0,-73.9698"/><path id="path174" fill="none" stroke="#000" stroke-dasharray="none" stroke-linecap="butt" stroke-linejoin="miter" stroke-miterlimit="10" stroke-opacity="1" stroke-width="3.082" d="m 1144.3876,4684.2698 18.4924,0 0,110.9548 -18.4924,0 0,-110.9548 z"/><path id="path176" fill="none" stroke="#000" stroke-dasharray="none" stroke-linecap="butt" stroke-linejoin="miter" stroke-miterlimit="10" stroke-opacity="1" stroke-width="3.082" d="m 1070.4242,4739.7407 18.4925,0 0,-110.9548 36.9849,0 0,110.9548 18.486,0"/><path id="path178" fill="none" stroke="#000" stroke-dasharray="none" stroke-linecap="butt" stroke-linejoin="miter" stroke-miterlimit="10" stroke-opacity="1" stroke-width="3.082" d="m 700.575,4739.7407 18.49246,0 0,-110.9548 36.98492,0 0,110.9548 18.49247,0"/><path id="path180" fill="none" stroke="#000" stroke-dasharray="none" stroke-linecap="butt" stroke-linejoin="miter" stroke-miterlimit="10" stroke-opacity="1" stroke-width="3.082" d="m 809.886,4739.7407 3.28754,0"/><path id="path182" fill="none" stroke="#000" stroke-dasharray="none" stroke-linecap="butt" stroke-linejoin="miter" stroke-miterlimit="10" stroke-opacity="1" stroke-width="3.082" d="m 809.886,4739.7407 3.28754,0"/><path id="path184" fill="none" stroke="#000" stroke-dasharray="none" stroke-linecap="butt" stroke-linejoin="miter" stroke-miterlimit="10" stroke-opacity="1" stroke-width="3.082" d="m 774.54485,4684.2698 18.49246,0 0,110.9548 -18.49246,0 0,-110.9548 z"/><path id="path186" fill="none" stroke="#000" stroke-dasharray="none" stroke-linecap="butt" stroke-linejoin="miter" stroke-miterlimit="10" stroke-opacity="1" stroke-width="3.082" d="m 793.03731,4739.7407 18.49246,0 18.49246,73.9698 18.49246,-36.9849 18.49246,92.4688 18.49247,-55.4839 18.49246,18.499 18.49246,-36.9849 18.49246,55.4708 18.49246,-73.9698 18.49246,55.4839 18.49247,-73.9699 18.49241,110.9548 18.4925,-92.4688 18.4925,55.4839 18.4924,-55.4839 0,-36.9849"/><path id="path188" fill="none" stroke="#000" stroke-dasharray="none" stroke-linecap="butt" stroke-linejoin="miter" stroke-miterlimit="10" stroke-opacity="1" stroke-width="3.082" d="m 1162.8865,4739.7407 18.486,0 0,92.4688 18.499,-18.499 18.4859,36.9849 18.499,-36.9849 18.4859,36.9849 18.499,-55.4708 18.4859,55.4708 18.499,-18.4859 18.486,55.4708 18.499,-55.4708 18.4859,18.4859 18.499,36.9849 18.4859,-73.9698 18.499,36.9849 18.4859,-55.4708 0,-55.4839 18.499,0 0,-110.9548 36.985,0 0,110.9548 18.4859,0 0,55.4839 18.499,36.9849 18.4859,-36.9849 18.499,55.4708 18.4859,-18.4859 18.499,55.4708 18.486,-18.4859 0,-129.4537 18.4989,0 0,-110.9548 18.486,0 0,110.9548 166.4387,0 0,-110.9548 18.4859,0 0,110.9548 166.4387,0 0,-110.9548 18.4859,0 0,110.9548 166.4387,0 0,-110.9548 18.4859,0 0,110.9548 166.4387,0 0,-110.9548 18.4859,0 0,110.9548 166.4387,0 0,-110.9548 147.9397,0 0,110.9548 36.9849,0 0,-110.9548 147.9397,0 0,110.9548 36.985,0 0,-110.9548 147.9397,0 0,110.9548 36.9849,0 0,-110.9548 147.9397,0 0,110.9548 36.9849,0 0,-110.9548 147.9397,0 0,110.9548 36.9849,0 0,-110.9548 18.4859,0 0,110.9548 166.4387,0 0,-110.9548 18.486,0 0,110.9548 166.4386,0 0,-110.9548 18.486,0 0,110.9548 166.4387,0 0,-110.9548 18.4859,0 0,110.9548 166.4387,0 0,-110.9548 18.4859,0 0,110.9548 166.4387,0 0,-110.9548 36.9849,0 0,110.9548 332.8643,0 0,-110.9548 36.9849,0 0,110.9548 18.486,0"/><path id="path190" fill="none" stroke="#000" stroke-dasharray="none" stroke-linecap="butt" stroke-linejoin="miter" stroke-miterlimit="10" stroke-opacity="1" stroke-width="3.082" d="m 700.575,3926.0723 18.49246,0 0,-110.9547 36.98492,0 0,110.9547 18.49247,0"/><path id="path192" fill="none" stroke="#000" stroke-dasharray="none" stroke-linecap="butt" stroke-linejoin="miter" stroke-miterlimit="10" stroke-opacity="1" stroke-width="3.082" d="m 774.54485,3870.6015 18.49246,0 0,110.9547 -18.49246,0 0,-110.9547 z"/><path id="path194" fill="none" stroke="#000" stroke-dasharray="none" stroke-linecap="butt" stroke-linejoin="miter" stroke-miterlimit="10" stroke-opacity="1" stroke-width="3.082" d="m 793.03731,3926.0723 18.49246,0 0,92.4689 18.49246,-36.985 18.49246,73.9699 18.49246,-73.9699 18.49247,73.9699 18.49246,-36.9849 18.49246,18.4859 18.49246,-73.9698 18.49246,55.4839 18.49246,-18.499 18.49247,36.9849 18.49241,-73.9698 18.4925,92.4688 18.4925,-92.4688 18.4924,55.4839 0,-92.4689"/><path id="path196" fill="none" stroke="#000" stroke-dasharray="none" stroke-linecap="butt" stroke-linejoin="miter" stroke-miterlimit="10" stroke-opacity="1" stroke-width="3.082" d="m 1070.4242,3926.0723 18.4925,0 0,-110.9547 36.9849,0 0,110.9547 18.486,0"/><path id="path198" fill="none" stroke="#000" stroke-dasharray="none" stroke-linecap="butt" stroke-linejoin="miter" stroke-miterlimit="10" stroke-opacity="1" stroke-width="3.082" d="m 1144.3876,3870.6015 18.4924,0 0,110.9547 -18.4924,0 0,-110.9547 z"/><path id="path200" fill="none" stroke="#000" stroke-dasharray="none" stroke-linecap="butt" stroke-linejoin="miter" stroke-miterlimit="10" stroke-opacity="1" stroke-width="3.082" d="m 1162.8865,3926.0723 18.486,0 0,55.4839 18.499,92.4558 18.4859,-55.4708 36.9849,36.9849 18.499,-55.4839 18.4859,18.499 18.499,-36.985 18.486,55.4709 18.499,-18.4859 18.4859,-36.985 18.499,18.486 18.4859,36.9849 18.499,-36.9849 18.4859,36.9849 0,-110.9548 18.499,0 0,-110.9547 18.486,0 0,110.9547 166.4386,0 0,-110.9547 18.486,0 0,110.9547 166.4387,0 0,-110.9547 18.4859,0 0,110.9547 166.4387,0 0,-110.9547 18.4859,0 0,110.9547 166.4387,0 0,-110.9547 18.4859,0 0,110.9547 166.4387,0 0,-110.9547 147.9397,0 0,110.9547 36.9849,0 0,-110.9547 147.9397,0 0,110.9547 36.9849,0 0,-110.9547 147.9397,0 0,110.9547 36.985,0 0,-110.9547 147.9397,0 0,110.9547 36.9849,0 0,-110.9547 147.9397,0 0,110.9547 36.9849,0 0,-110.9547 18.4859,0 0,110.9547 166.4387,0 0,-110.9547 18.4859,0 0,110.9547 166.4387,0 0,-110.9547 18.486,0 0,110.9547 166.4386,0 0,-110.9547 18.486,0 0,110.9547 166.4387,0 0,-110.9547 18.4859,0 0,110.9547 351.3633,0 0,-110.9547 36.9849,0 0,110.9547 18.486,0"/><path id="path202" fill="none" stroke="#000" stroke-dasharray="none" stroke-linecap="butt" stroke-linejoin="miter" stroke-miterlimit="10" stroke-opacity="1" stroke-width="3.082" d="m 5453.1376,4795.2246 -36.9849,-110.9548"/><path id="path204" fill="none" stroke="#000" stroke-dasharray="none" stroke-linecap="butt" stroke-linejoin="miter" stroke-miterlimit="10" stroke-opacity="1" stroke-width="3.082" d="m 5434.6387,4739.7407 92.4688,0 0,-110.9548 36.9849,0 0,110.9548 18.486,0"/><path id="path206" fill="none" stroke="#000" stroke-dasharray="none" stroke-linecap="butt" stroke-linejoin="miter" stroke-miterlimit="10" stroke-opacity="1" stroke-width="3.082" d="m 5582.5784,4684.2698 18.4924,0 0,110.9548 -18.4924,0 0,-110.9548 z"/><path id="path208" fill="none" stroke="#000" stroke-dasharray="none" stroke-linecap="butt" stroke-linejoin="miter" stroke-miterlimit="10" stroke-opacity="1" stroke-width="3.082" d="m 5601.0773,4739.7407 295.8794,0 0,-110.9548 36.9849,0 0,110.9548 18.486,0"/><path id="path210" fill="none" stroke="#000" stroke-dasharray="none" stroke-linecap="butt" stroke-linejoin="miter" stroke-miterlimit="10" stroke-opacity="1" stroke-width="3.082" d="m 5952.4276,4684.2698 18.4924,0 0,110.9548 -18.4924,0 0,-110.9548 z"/><path id="path212" fill="none" stroke="#000" stroke-dasharray="none" stroke-linecap="butt" stroke-linejoin="miter" stroke-miterlimit="10" stroke-opacity="1" stroke-width="3.082" d="m 5970.9266,4739.7407 129.4407,0 0,147.9396 18.499,-36.9849 18.4859,36.9849 18.499,-36.9849 18.4859,18.499 18.499,-36.9849 18.4859,36.9849 18.499,-36.9849 18.486,-18.499 0,-73.9698"/><path id="path214" fill="none" stroke="#000" stroke-dasharray="none" stroke-linecap="butt" stroke-linejoin="miter" stroke-miterlimit="10" stroke-opacity="1" stroke-width="3.082" d="m 4842.8799,4684.2698 18.4924,0 0,110.9548 -18.4924,0 0,-110.9548 z"/><path id="path216" fill="none" stroke="#000" stroke-dasharray="none" stroke-linecap="butt" stroke-linejoin="miter" stroke-miterlimit="10" stroke-opacity="1" stroke-width="3.082" d="m 4861.3789,4739.7407 295.8794,0 0,-110.9548 36.9849,0 0,110.9548 18.4859,0"/><path id="path218" fill="none" stroke="#000" stroke-dasharray="none" stroke-linecap="butt" stroke-linejoin="miter" stroke-miterlimit="10" stroke-opacity="1" stroke-width="3.082" d="m 5212.7291,4684.2698 18.4925,0 0,110.9548 -18.4925,0 0,-110.9548 z"/><path id="path220" fill="none" stroke="#000" stroke-dasharray="none" stroke-linecap="butt" stroke-linejoin="miter" stroke-miterlimit="10" stroke-opacity="1" stroke-width="3.082" d="m 5231.2281,4739.7407 166.4256,0"/><path id="path222" fill="none" stroke="#000" stroke-dasharray="none" stroke-linecap="butt" stroke-linejoin="miter" stroke-miterlimit="10" stroke-opacity="1" stroke-width="3.082" d="m 5416.1527,4795.2246 -36.9849,-110.9548"/><path id="path224" fill="none" stroke="#000" stroke-dasharray="none" stroke-linecap="butt" stroke-linejoin="miter" stroke-miterlimit="10" stroke-opacity="1" stroke-width="3.082" d="m 4473.0307,3870.6015 18.4924,0 0,110.9547 -18.4924,0 0,-110.9547 z"/><path id="path226" fill="none" stroke="#000" stroke-dasharray="none" stroke-linecap="butt" stroke-linejoin="miter" stroke-miterlimit="10" stroke-opacity="1" stroke-width="3.082" d="m 4491.5296,3926.0723 295.8794,0 0,-110.9547 36.9849,0 0,110.9547 18.486,0"/><path id="path228" fill="none" stroke="#000" stroke-dasharray="none" stroke-linecap="butt" stroke-linejoin="miter" stroke-miterlimit="10" stroke-opacity="1" stroke-width="3.082" d="m 4842.8799,3870.6015 18.4924,0 0,110.9547 -18.4924,0 0,-110.9547 z"/><path id="path230" fill="none" stroke="#000" stroke-dasharray="none" stroke-linecap="butt" stroke-linejoin="miter" stroke-miterlimit="10" stroke-opacity="1" stroke-width="3.082" d="m 4861.3789,3926.0723 295.8794,0 0,-110.9547 36.9849,0 0,110.9547 18.4859,0"/><path id="path232" fill="none" stroke="#000" stroke-dasharray="none" stroke-linecap="butt" stroke-linejoin="miter" stroke-miterlimit="10" stroke-opacity="1" stroke-width="3.082" d="m 5212.7291,3870.6015 18.4925,0 0,110.9547 -18.4925,0 0,-110.9547 z"/><path id="path234" fill="none" stroke="#000" stroke-dasharray="none" stroke-linecap="butt" stroke-linejoin="miter" stroke-miterlimit="10" stroke-opacity="1" stroke-width="3.082" d="m 5416.1527,3981.5562 -36.9849,-110.9547"/><path id="path236" fill="none" stroke="#000" stroke-dasharray="none" stroke-linecap="butt" stroke-linejoin="miter" stroke-miterlimit="10" stroke-opacity="1" stroke-width="3.082" d="m 5231.2281,3926.0723 166.4256,0"/><path id="path238" fill="none" stroke="#000" stroke-dasharray="none" stroke-linecap="butt" stroke-linejoin="miter" stroke-miterlimit="10" stroke-opacity="1" stroke-width="3.082" d="m 5453.1376,3981.5562 -36.9849,-110.9547"/><path id="path240" fill="none" stroke="#000" stroke-dasharray="none" stroke-linecap="butt" stroke-linejoin="miter" stroke-miterlimit="10" stroke-opacity="1" stroke-width="3.082" d="m 5434.6387,3926.0723 92.4688,0 0,-110.9547 36.9849,0 0,110.9547 18.486,0"/><path id="path242" fill="none" stroke="#000" stroke-dasharray="none" stroke-linecap="butt" stroke-linejoin="miter" stroke-miterlimit="10" stroke-opacity="1" stroke-width="3.082" d="m 5582.5784,3870.6015 18.4924,0 0,110.9547 -18.4924,0 0,-110.9547 z"/><path id="path244" fill="none" stroke="#000" stroke-dasharray="none" stroke-linecap="butt" stroke-linejoin="miter" stroke-miterlimit="10" stroke-opacity="1" stroke-width="3.082" d="m 5601.0773,3926.0723 295.8794,0 0,-110.9547 36.9849,0 0,110.9547 18.486,0"/><path id="path246" fill="none" stroke="#000" stroke-dasharray="none" stroke-linecap="butt" stroke-linejoin="miter" stroke-miterlimit="10" stroke-opacity="1" stroke-width="3.082" d="m 5952.4276,3870.6015 18.4924,0 0,110.9547 -18.4924,0 0,-110.9547 z"/><path id="path248" fill="none" stroke="#000" stroke-dasharray="none" stroke-linecap="butt" stroke-linejoin="miter" stroke-miterlimit="10" stroke-opacity="1" stroke-width="3.082" d="m 5970.9266,3926.0723 18.4859,0 0,73.9699 18.499,36.9849 18.4859,-36.9849 18.499,36.9849 18.486,-18.4859 18.4989,0 18.486,-36.985 18.499,55.4709 18.4859,-18.4859 0,36.9849 18.499,-18.499 18.4859,18.499 18.499,-36.9849 18.4859,18.4859 18.499,-55.4709 18.486,18.486 0,-73.9699"/><path id="path250" fill="none" stroke="#000" stroke-dasharray="none" stroke-linecap="butt" stroke-linejoin="miter" stroke-miterlimit="10" stroke-opacity="1" stroke-width="3.082" d="m 6248.307,4739.7407 18.499,0 0,-110.9548 36.9849,0 0,110.9548 18.4859,0"/><path id="path252" fill="none" stroke="#000" stroke-dasharray="none" stroke-linecap="butt" stroke-linejoin="miter" stroke-miterlimit="10" stroke-opacity="1" stroke-width="3.082" d="m 6248.307,3926.0723 18.499,0 0,-110.9547 36.9849,0 0,110.9547 18.4859,0"/><path id="path254" fill="none" stroke="#000" stroke-dasharray="none" stroke-linecap="butt" stroke-linejoin="miter" stroke-miterlimit="10" stroke-opacity="1" stroke-width="3.082" d="m 6322.2768,3870.6015 18.4925,0 0,110.9547 -18.4925,0 0,-110.9547 z"/><path id="path256" fill="none" stroke="#000" stroke-dasharray="none" stroke-linecap="butt" stroke-linejoin="miter" stroke-miterlimit="10" stroke-opacity="1" stroke-width="3.082" d="m 6322.2768,4684.2698 18.4925,0 0,110.9548 -18.4925,0 0,-110.9548 z"/><path id="path258" fill="none" stroke="#000" stroke-dasharray="none" stroke-linecap="butt" stroke-linejoin="miter" stroke-miterlimit="10" stroke-opacity="1" stroke-width="3.082" d="m 6340.7758,4739.7407 18.4859,0 0,55.4839 18.499,55.4708 18.486,-92.4558 18.4989,55.4709 18.486,0 18.499,55.4839 18.4859,-73.9698 18.499,36.9849 18.4859,-36.9849 36.985,73.9698 18.4989,-36.9849 18.486,36.9849 18.499,-55.4839 18.4859,36.9849 0,-110.9547 18.499,0"/><path id="path260" fill="none" stroke="#000" stroke-dasharray="none" stroke-linecap="butt" stroke-linejoin="miter" stroke-miterlimit="10" stroke-opacity="1" stroke-width="3.082" d="m 6340.7758,3926.0723 18.4859,0 0,129.4538 18.499,-18.499 18.486,18.499 18.4989,-36.9849 18.486,18.4859 18.499,-36.9849 18.4859,18.499 18.499,-18.499 18.4859,55.4839 18.499,-18.499 18.486,36.9849 18.4989,-73.9698 18.486,55.4839 18.499,-55.4839 18.4859,36.9849 0,-110.9548 18.499,0"/><path id="path262" fill="none" stroke="#000" stroke-dasharray="none" stroke-linecap="butt" stroke-linejoin="miter" stroke-miterlimit="10" stroke-opacity="1" stroke-width="3.082" d="m 6636.6552,4184.9668 0,-73.9698"/><path id="path264" fill="none" stroke="#000" stroke-dasharray="none" stroke-linecap="butt" stroke-linejoin="miter" stroke-miterlimit="10" stroke-opacity="1" stroke-width="3.082" d="m 6636.6552,4295.9216 0,-73.9699"/><path id="path266" fill="none" stroke="#000" stroke-dasharray="none" stroke-linecap="butt" stroke-linejoin="miter" stroke-miterlimit="10" stroke-opacity="1" stroke-width="3.082" d="m 6266.806,4998.6351 0,-73.9698"/><path id="path268" fill="none" stroke="#000" stroke-dasharray="none" stroke-linecap="butt" stroke-linejoin="miter" stroke-miterlimit="10" stroke-opacity="1" stroke-width="3.082" d="m 6266.806,5109.5899 0,-73.9699"/><path id="path270" fill="none" stroke="#000" stroke-dasharray="none" stroke-linecap="butt" stroke-linejoin="miter" stroke-miterlimit="10" stroke-opacity="1" stroke-width="3.082" d="m 6636.6552,4998.6351 0,-73.9698"/><path id="path272" fill="none" stroke="#000" stroke-dasharray="none" stroke-linecap="butt" stroke-linejoin="miter" stroke-miterlimit="10" stroke-opacity="1" stroke-width="3.082" d="m 6636.6552,5109.5899 0,-73.9699"/><text id="text276" x="3550.416" y="-4462.347" fill="#000" fill-opacity="1" fill-rule="nonzero" stroke="none" font-family="sans-serif" font-size="73.97" font-stretch="normal" font-style="normal" font-variant="normal" font-weight="normal" transform="scale(1,-1)" writing-mode="lr-tb" style="-inkscape-font-specification:sans-serif"><tspan id="tspan278" x="3550.416 3591.544 3628.529 3649.092 3669.656 3690.22 3706.641 3747.768 3764.189" y="-4462.347">1st field</tspan><tspan id="tspan280" x="2732.679 3823.734 4193.583 4581.925 4951.774 5321.623 3472.378 3102.528 2321.703 2362.83 2403.957 1951.854 1992.981 2034.108 1582.005 1623.132 1664.259 5670.906 5712.034" y="-4943.151">1456783231231131022</tspan><tspan id="tspan282" x="2732.673 3823.728 4193.577 4581.919 4951.768 5321.617 3472.371 3102.522 2321.697 2362.824 2403.951 1951.847 1992.975 2034.102 1581.998 1623.125 1664.252 5670.9 5712.027" y="-5054.106">1456783262562462322</tspan><tspan id="tspan284" x="842.3 883.427 924.554" y="-4943.151">308</tspan><tspan id="tspan286" x="842.3 883.427 924.554" y="-5054.106">621</tspan><tspan id="tspan288" x="1212.149 1253.276 1294.403" y="-4943.151">309</tspan><tspan id="tspan290" x="1212.149 1253.276 1294.403" y="-5054.106">622</tspan><tspan id="tspan292" x="3538.064 3579.191 3620.318 3661.445 3682.009 3702.572 3718.994 3760.121 3776.542" y="-3648.679">2nd field</tspan></text><text id="text294" x="2734.751" y="-4037.021" fill="#000" fill-opacity="1" fill-rule="nonzero" stroke="none" font-family="sans-serif" font-size="61.642" font-stretch="normal" font-style="normal" font-variant="normal" font-weight="normal" transform="scale(1,-1)" writing-mode="lr-tb" style="-inkscape-font-specification:sans-serif"><tspan id="tspan296" x="2734.751 2755.278 2789.55" y="-4037.021">(1)</tspan></text><text id="text298" x="4951.772" y="-4129.483" fill="#000" fill-opacity="1" fill-rule="nonzero" stroke="none" font-family="sans-serif" font-size="73.97" font-stretch="normal" font-style="normal" font-variant="normal" font-weight="normal" transform="scale(1,-1)" writing-mode="lr-tb" style="-inkscape-font-specification:sans-serif"><tspan id="tspan300" x="4951.772 4581.923 4212.074 3842.224 3490.868 3102.526 2321.7 2362.828 2403.955 1951.851 1992.978 2034.106 1582.002 1623.129 1664.256" y="-4129.483">765432313312311</tspan><tspan id="tspan302" x="6020.193 6061.32 6102.447 5650.343 5691.471 5732.598 5280.494 5321.622 5362.748 4910.645 4951.773 4992.899 4540.796 4581.923 4623.05 4170.947 4212.074 4253.201 3801.097 3842.225 3883.352 3449.74 3490.868 3531.995 3061.399 3102.526 3143.653 2691.55 2732.677 2773.804 2321.7 2362.828 2403.955 1951.851 1992.978 2034.106 1582.002 1623.129 1664.256" y="-4240.439">336335321320319318317316315314313312311</tspan><tspan id="tspan304" x="2732.677 5321.621 5670.906 5712.034 6040.755 6081.883 842.306 883.433 924.561" y="-4129.483">182223309</tspan><tspan id="tspan306" x="842.306 883.433 924.561" y="-4240.439">309</tspan><tspan id="tspan308" x="1212.155 1253.283 1294.41" y="-4129.483">310</tspan><tspan id="tspan310" x="1212.155 1253.283 1294.41" y="-4240.439">310</tspan><tspan id="tspan312" x="6410.605 6451.732" y="-4129.483">24</tspan><tspan id="tspan314" x="6390.041 6431.168 6472.295" y="-4240.439">337</tspan><tspan id="tspan316" x="6040.756 6081.883" y="-4943.15">23</tspan><tspan id="tspan318" x="6040.756 6081.883" y="-5054.106">23</tspan><tspan id="tspan320" x="6410.605 6451.732" y="-4943.15">24</tspan><tspan id="tspan322" x="6410.605 6451.732" y="-5054.106">24</tspan></text><text id="text3671" x="3550.416 3591.544 3628.529 3649.092 3669.656 3690.22 3706.641 3747.768 3764.189" y="-4462.347" fill="#000" fill-opacity="1" fill-rule="nonzero" stroke="none" font-family="sans-serif" font-size="73.97" font-stretch="normal" font-style="normal" font-variant="normal" font-weight="normal" transform="scale(1,-1)" writing-mode="lr-tb" style="-inkscape-font-specification:sans-serif"><tspan id="tspan3673" x="3550.416 3591.544 3628.529 3649.092 3669.656 3690.22 3706.641 3747.768 3764.189" y="-4462.347">1st field</tspan></text><text id="text3675" x="2732.679 3823.734 4193.583 4581.925 4951.774 5321.623 3472.378 3102.528 2321.703 2362.83 2403.957 1951.854 1992.981 2034.108 1582.005 1623.132 1664.259 5670.906 5712.034" y="-4943.151" fill="#000" fill-opacity="1" fill-rule="nonzero" stroke="none" font-family="sans-serif" font-size="73.97" font-stretch="normal" font-style="normal" font-variant="normal" font-weight="normal" transform="scale(1,-1)" writing-mode="lr-tb" style="-inkscape-font-specification:sans-serif"><tspan id="tspan3677" x="2732.679 3823.734 4193.583 4581.925 4951.774 5321.623 3472.378 3102.528 2321.703 2362.83 2403.957 1951.854 1992.981 2034.108 1582.005 1623.132 1664.259 5670.906 5712.034" y="-4943.151">1456783231231131022</tspan></text><text id="text3679" x="2732.673 3823.728 4193.577 4581.919 4951.768 5321.617 3472.371 3102.522 2321.697 2362.824 2403.951 1951.847 1992.975 2034.102 1581.998 1623.125 1664.252 5670.9 5712.027" y="-5054.106" fill="#000" fill-opacity="1" fill-rule="nonzero" stroke="none" font-family="sans-serif" font-size="73.97" font-stretch="normal" font-style="normal" font-variant="normal" font-weight="normal" transform="scale(1,-1)" writing-mode="lr-tb" style="-inkscape-font-specification:sans-serif"><tspan id="tspan3681" x="2732.673 3823.728 4193.577 4581.919 4951.768 5321.617 3472.371 3102.522 2321.697 2362.824 2403.951 1951.847 1992.975 2034.102 1581.998 1623.125 1664.252 5670.9 5712.027" y="-5054.106">1456783262562462322</tspan></text><text id="text3683" x="842.3 883.427 924.554" y="-4943.151" fill="#000" fill-opacity="1" fill-rule="nonzero" stroke="none" font-family="sans-serif" font-size="73.97" font-stretch="normal" font-style="normal" font-variant="normal" font-weight="normal" transform="scale(1,-1)" writing-mode="lr-tb" style="-inkscape-font-specification:sans-serif"><tspan id="tspan3685" x="842.3 883.427 924.554" y="-4943.151">308</tspan></text><text id="text3687" x="842.3 883.427 924.554" y="-5054.106" fill="#000" fill-opacity="1" fill-rule="nonzero" stroke="none" font-family="sans-serif" font-size="73.97" font-stretch="normal" font-style="normal" font-variant="normal" font-weight="normal" transform="scale(1,-1)" writing-mode="lr-tb" style="-inkscape-font-specification:sans-serif"><tspan id="tspan3689" x="842.3 883.427 924.554" y="-5054.106">621</tspan></text><text id="text3691" x="1212.149 1253.276 1294.403" y="-4943.151" fill="#000" fill-opacity="1" fill-rule="nonzero" stroke="none" font-family="sans-serif" font-size="73.97" font-stretch="normal" font-style="normal" font-variant="normal" font-weight="normal" transform="scale(1,-1)" writing-mode="lr-tb" style="-inkscape-font-specification:sans-serif"><tspan id="tspan3693" x="1212.149 1253.276 1294.403" y="-4943.151">309</tspan></text><text id="text3695" x="1212.149 1253.276 1294.403" y="-5054.106" fill="#000" fill-opacity="1" fill-rule="nonzero" stroke="none" font-family="sans-serif" font-size="73.97" font-stretch="normal" font-style="normal" font-variant="normal" font-weight="normal" transform="scale(1,-1)" writing-mode="lr-tb" style="-inkscape-font-specification:sans-serif"><tspan id="tspan3697" x="1212.149 1253.276 1294.403" y="-5054.106">622</tspan></text><text id="text3699" x="3538.064 3579.191 3620.318 3661.445 3682.009 3702.572 3718.994 3760.121 3776.542" y="-3648.679" fill="#000" fill-opacity="1" fill-rule="nonzero" stroke="none" font-family="sans-serif" font-size="73.97" font-stretch="normal" font-style="normal" font-variant="normal" font-weight="normal" transform="scale(1,-1)" writing-mode="lr-tb" style="-inkscape-font-specification:sans-serif"><tspan id="tspan3701" x="3538.064 3579.191 3620.318 3661.445 3682.009 3702.572 3718.994 3760.121 3776.542" y="-3648.679">2nd field</tspan></text><text id="text4083" x="4951.772 4581.923 4212.074 3842.224 3490.868 3102.526 2321.7 2362.828 2403.955 1951.851 1992.978 2034.106 1582.002 1623.129 1664.256" y="-4129.483" fill="#000" fill-opacity="1" fill-rule="nonzero" stroke="none" font-family="sans-serif" font-size="73.97" font-stretch="normal" font-style="normal" font-variant="normal" font-weight="normal" transform="scale(1,-1)" writing-mode="lr-tb" style="-inkscape-font-specification:sans-serif"><tspan id="tspan4085" x="4951.772 4581.923 4212.074 3842.224 3490.868 3102.526 2321.7 2362.828 2403.955 1951.851 1992.978 2034.106 1582.002 1623.129 1664.256" y="-4129.483">765432313312311</tspan></text><text id="text4087" x="6020.193 6061.32 6102.447 5650.343 5691.471 5732.598 5280.494 5321.622 5362.748 4910.645 4951.773 4992.899 4540.796 4581.923 4623.05 4170.947 4212.074 4253.201 3801.097 3842.225 3883.352 3449.74 3490.868 3531.995 3061.399 3102.526 3143.653 2691.55 2732.677 2773.804 2321.7 2362.828 2403.955 1951.851 1992.978 2034.106 1582.002 1623.129 1664.256" y="-4240.439" fill="#000" fill-opacity="1" fill-rule="nonzero" stroke="none" font-family="sans-serif" font-size="73.97" font-stretch="normal" font-style="normal" font-variant="normal" font-weight="normal" transform="scale(1,-1)" writing-mode="lr-tb" style="-inkscape-font-specification:sans-serif"><tspan id="tspan4089" x="6020.193 6061.32 6102.447 5650.343 5691.471 5732.598 5280.494 5321.622 5362.748 4910.645 4951.773 4992.899 4540.796 4581.923 4623.05 4170.947 4212.074 4253.201 3801.097 3842.225 3883.352 3449.74 3490.868 3531.995 3061.399 3102.526 3143.653 2691.55 2732.677 2773.804 2321.7 2362.828 2403.955 1951.851 1992.978 2034.106 1582.002 1623.129 1664.256" y="-4240.439">336335321320319318317316315314313312311</tspan></text><text id="text4091" x="2732.677 5321.621 5670.906 5712.034 6040.755 6081.883 842.306 883.433 924.561" y="-4129.483" fill="#000" fill-opacity="1" fill-rule="nonzero" stroke="none" font-family="sans-serif" font-size="73.97" font-stretch="normal" font-style="normal" font-variant="normal" font-weight="normal" transform="scale(1,-1)" writing-mode="lr-tb" style="-inkscape-font-specification:sans-serif"><tspan id="tspan4093" x="2732.677 5321.621 5670.906 5712.034 6040.755 6081.883 842.306 883.433 924.561" y="-4129.483">182223309</tspan></text><text id="text4095" x="842.306 883.433 924.561" y="-4240.439" fill="#000" fill-opacity="1" fill-rule="nonzero" stroke="none" font-family="sans-serif" font-size="73.97" font-stretch="normal" font-style="normal" font-variant="normal" font-weight="normal" transform="scale(1,-1)" writing-mode="lr-tb" style="-inkscape-font-specification:sans-serif"><tspan id="tspan4097" x="842.306 883.433 924.561" y="-4240.439">309</tspan></text><text id="text4099" x="1212.155 1253.283 1294.41" y="-4129.483" fill="#000" fill-opacity="1" fill-rule="nonzero" stroke="none" font-family="sans-serif" font-size="73.97" font-stretch="normal" font-style="normal" font-variant="normal" font-weight="normal" transform="scale(1,-1)" writing-mode="lr-tb" style="-inkscape-font-specification:sans-serif"><tspan id="tspan4101" x="1212.155 1253.283 1294.41" y="-4129.483">310</tspan></text><text id="text4103" x="1212.155 1253.283 1294.41" y="-4240.439" fill="#000" fill-opacity="1" fill-rule="nonzero" stroke="none" font-family="sans-serif" font-size="73.97" font-stretch="normal" font-style="normal" font-variant="normal" font-weight="normal" transform="scale(1,-1)" writing-mode="lr-tb" style="-inkscape-font-specification:sans-serif"><tspan id="tspan4105" x="1212.155 1253.283 1294.41" y="-4240.439">310</tspan></text><text id="text4107" x="6410.605 6451.732" y="-4129.483" fill="#000" fill-opacity="1" fill-rule="nonzero" stroke="none" font-family="sans-serif" font-size="73.97" font-stretch="normal" font-style="normal" font-variant="normal" font-weight="normal" transform="scale(1,-1)" writing-mode="lr-tb" style="-inkscape-font-specification:sans-serif"><tspan id="tspan4109" x="6410.605 6451.732" y="-4129.483">24</tspan></text><text id="text4111" x="6390.041 6431.168 6472.295" y="-4240.439" fill="#000" fill-opacity="1" fill-rule="nonzero" stroke="none" font-family="sans-serif" font-size="73.97" font-stretch="normal" font-style="normal" font-variant="normal" font-weight="normal" transform="scale(1,-1)" writing-mode="lr-tb" style="-inkscape-font-specification:sans-serif"><tspan id="tspan4113" x="6390.041 6431.168 6472.295" y="-4240.439">337</tspan></text><text id="text4115" x="6040.756 6081.883" y="-4943.15" fill="#000" fill-opacity="1" fill-rule="nonzero" stroke="none" font-family="sans-serif" font-size="73.97" font-stretch="normal" font-style="normal" font-variant="normal" font-weight="normal" transform="scale(1,-1)" writing-mode="lr-tb" style="-inkscape-font-specification:sans-serif"><tspan id="tspan4117" x="6040.756 6081.883" y="-4943.15">23</tspan></text><text id="text4119" x="6040.756 6081.883" y="-5054.106" fill="#000" fill-opacity="1" fill-rule="nonzero" stroke="none" font-family="sans-serif" font-size="73.97" font-stretch="normal" font-style="normal" font-variant="normal" font-weight="normal" transform="scale(1,-1)" writing-mode="lr-tb" style="-inkscape-font-specification:sans-serif"><tspan id="tspan4121" x="6040.756 6081.883" y="-5054.106">23</tspan></text><text id="text4123" x="6410.605 6451.732" y="-4943.15" fill="#000" fill-opacity="1" fill-rule="nonzero" stroke="none" font-family="sans-serif" font-size="73.97" font-stretch="normal" font-style="normal" font-variant="normal" font-weight="normal" transform="scale(1,-1)" writing-mode="lr-tb" style="-inkscape-font-specification:sans-serif"><tspan id="tspan4125" x="6410.605 6451.732" y="-4943.15">24</tspan></text><text id="text4127" x="6410.605 6451.732" y="-5054.106" fill="#000" fill-opacity="1" fill-rule="nonzero" stroke="none" font-family="sans-serif" font-size="73.97" font-stretch="normal" font-style="normal" font-variant="normal" font-weight="normal" transform="scale(1,-1)" writing-mode="lr-tb" style="-inkscape-font-specification:sans-serif"><tspan id="tspan4129" x="6410.605 6451.732" y="-5054.106">24</tspan></text></g></svg>