<svg xmlns="http://www.w3.org/2000/svg" xmlns:svg="http://www.w3.org/2000/svg" id="svg2" width="788.903" height="194.251" version="1.1" viewBox="0 0 739.597 182.11" xml:space="preserve"><metadata id="metadata8"/><defs id="defs6"><clipPath id="clipPath20" clipPathUnits="userSpaceOnUse"><path id="path22" d="m 0,0 5950,0 0,3922 L 0,3922 0,0 Z m 0,3922 5950,0 0,1 -5950,0 0,-1 z m 0,1 1359,0 0,1 -1359,0 0,-1 z m 1399,0 4551,0 0,1 -4551,0 0,-1 z m -1399,1 1363,0 0,1 -1363,0 0,-1 z m 1399,0 4551,0 0,1 -4551,0 0,-1 z m -1399,1 1367,0 0,1 -1367,0 0,-1 z m 1399,0 4551,0 0,1 -4551,0 0,-1 z m -1399,1 1371,0 0,1 -1371,0 0,-1 z m 1399,0 4551,0 0,1 -4551,0 0,-1 z m -1399,1 1375,0 0,1 -1375,0 0,-1 z m 1399,0 4551,0 0,1 -4551,0 0,-1 z m -1399,1 1379,0 0,1 -1379,0 0,-1 z m 1399,0 4551,0 0,1 -4551,0 0,-1 z m -1399,1 1383,0 0,1 -1383,0 0,-1 z m 1399,0 4551,0 0,1 -4551,0 0,-1 z m -1399,1 1387,0 0,1 -1387,0 0,-1 z m 1399,0 4551,0 0,1 -4551,0 0,-1 z m -1399,1 1391,0 0,1 -1391,0 0,-1 z m 1399,0 4551,0 0,1 -4551,0 0,-1 z m -1399,1 1390,0 0,1 -1390,0 0,-1 z m 1399,0 4551,0 0,1 -4551,0 0,-1 z m -1399,1 1386,0 0,1 -1386,0 0,-1 z m 1399,0 4551,0 0,1 -4551,0 0,-1 z m -1399,1 1382,0 0,1 -1382,0 0,-1 z m 1399,0 4551,0 0,1 -4551,0 0,-1 z m -1399,1 1378,0 0,1 -1378,0 0,-1 z m 1399,0 4551,0 0,1 -4551,0 0,-1 z m -1399,1 1374,0 0,1 -1374,0 0,-1 z m 1399,0 4551,0 0,1 -4551,0 0,-1 z m -1399,1 1370,0 0,1 -1370,0 0,-1 z m 1399,0 4551,0 0,1 -4551,0 0,-1 z m -1399,1 1366,0 0,1 -1366,0 0,-1 z m 1399,0 4551,0 0,1 -4551,0 0,-1 z m -1399,1 1362,0 0,1 -1362,0 0,-1 z m 1399,0 4551,0 0,1 -4551,0 0,-1 z m -1399,1 1358,0 0,1 -1358,0 0,-1 z m 1399,0 4551,0 0,1 -4551,0 0,-1 z m -1399,1 5950,0 0,1 -5950,0 0,-1 z m 0,1 5950,0 0,4478 -5950,0 0,-4478 z"/></clipPath><clipPath id="clipPath98" clipPathUnits="userSpaceOnUse"><path id="path100" d="m 0,0 5950,0 0,4546 L 0,4546 0,0 Z m 0,4546 5950,0 0,1 -5950,0 0,-1 z m 0,1 1360,0 0,1 -1360,0 0,-1 z m 1399,0 4551,0 0,1 -4551,0 0,-1 z m -1399,1 1364,0 0,1 -1364,0 0,-1 z m 1399,0 4551,0 0,1 -4551,0 0,-1 z m -1399,1 1368,0 0,1 -1368,0 0,-1 z m 1399,0 4551,0 0,1 -4551,0 0,-1 z m -1399,1 1372,0 0,1 -1372,0 0,-1 z m 1399,0 4551,0 0,1 -4551,0 0,-1 z m -1399,1 1376,0 0,1 -1376,0 0,-1 z m 1399,0 4551,0 0,1 -4551,0 0,-1 z m -1399,1 1380,0 0,1 -1380,0 0,-1 z m 1399,0 4551,0 0,1 -4551,0 0,-1 z m -1399,1 1384,0 0,1 -1384,0 0,-1 z m 1399,0 4551,0 0,1 -4551,0 0,-1 z m -1399,1 1388,0 0,1 -1388,0 0,-1 z m 1399,0 4551,0 0,1 -4551,0 0,-1 z m -1399,1 1391,0 0,1 -1391,0 0,-1 z m 1399,0 4551,0 0,1 -4551,0 0,-1 z m -1399,1 1389,0 0,1 -1389,0 0,-1 z m 1399,0 4551,0 0,1 -4551,0 0,-1 z m -1399,1 1385,0 0,1 -1385,0 0,-1 z m 1399,0 4551,0 0,1 -4551,0 0,-1 z m -1399,1 1381,0 0,1 -1381,0 0,-1 z m 1399,0 4551,0 0,1 -4551,0 0,-1 z m -1399,1 1377,0 0,1 -1377,0 0,-1 z m 1399,0 4551,0 0,1 -4551,0 0,-1 z m -1399,1 1373,0 0,1 -1373,0 0,-1 z m 1399,0 4551,0 0,1 -4551,0 0,-1 z m -1399,1 1369,0 0,1 -1369,0 0,-1 z m 1399,0 4551,0 0,1 -4551,0 0,-1 z m -1399,1 1365,0 0,1 -1365,0 0,-1 z m 1399,0 4551,0 0,1 -4551,0 0,-1 z m -1399,1 1361,0 0,1 -1361,0 0,-1 z m 1399,0 4551,0 0,1 -4551,0 0,-1 z m -1399,1 1357,0 0,1 -1357,0 0,-1 z m 1399,0 4551,0 0,1 -4551,0 0,-1 z m -1399,1 5950,0 0,1 -5950,0 0,-1 z m 0,1 5950,0 0,3854 -5950,0 0,-3854 z"/></clipPath></defs><g id="g10" transform="matrix(0.125,0,0,-0.125,-87.571875,638.05691)"><g id="g12" transform="matrix(1.3000026,0,0,1.3000026,-210.17435,-1094.2823)"><path id="path14" fill="none" stroke="#000" stroke-dasharray="none" stroke-linecap="butt" stroke-linejoin="miter" stroke-miterlimit="10" stroke-opacity="1" stroke-width="2.362" d="m 1281.75,3974.45 0,-85.05"/></g><g id="g16" transform="matrix(1.3000026,0,0,1.3000026,-210.17435,-1094.2823)"><g id="g18" clip-path="url(#clipPath20)"><path id="path24" fill="none" stroke="#000" stroke-dasharray="none" stroke-linecap="butt" stroke-linejoin="miter" stroke-miterlimit="10" stroke-opacity="1" stroke-width="2.362" d="m 1281.75,3931.93 113.4,0"/></g></g><g id="g26" transform="matrix(1.3000026,0,0,1.3000026,-210.17435,-1094.2823)"><path id="path28" fill="#000" fill-opacity="1" fill-rule="evenodd" stroke="none" d="m 1352.31,3922.48 37.8,9.45 -37.8,9.45 0,-18.9"/><path id="path30" fill="none" stroke="#000" stroke-dasharray="none" stroke-linecap="butt" stroke-linejoin="miter" stroke-miterlimit="10" stroke-opacity="1" stroke-width="2.362" d="m 1352.31,3922.48 37.8,9.45 -37.8,9.45 0,-18.9 z"/><path id="path32" fill="none" stroke="#000" stroke-dasharray="none" stroke-linecap="butt" stroke-linejoin="miter" stroke-miterlimit="10" stroke-opacity="1" stroke-width="2.362" d="m 4683.75,4059.5 0,-56.7"/><path id="path34" fill="none" stroke="#000" stroke-dasharray="none" stroke-linecap="butt" stroke-linejoin="miter" stroke-miterlimit="10" stroke-opacity="1" stroke-width="2.362" d="m 4400.25,4059.5 0,-56.7"/><path id="path36" fill="none" stroke="#000" stroke-dasharray="none" stroke-linecap="butt" stroke-linejoin="miter" stroke-miterlimit="10" stroke-opacity="1" stroke-width="2.362" d="m 4116.75,4059.5 0,-56.7"/><path id="path38" fill="none" stroke="#000" stroke-dasharray="none" stroke-linecap="butt" stroke-linejoin="miter" stroke-miterlimit="10" stroke-opacity="1" stroke-width="2.362" d="m 3833.25,4059.5 0,-56.7"/><path id="path40" fill="none" stroke="#000" stroke-dasharray="none" stroke-linecap="butt" stroke-linejoin="miter" stroke-miterlimit="10" stroke-opacity="1" stroke-width="2.362" d="m 3549.75,4059.5 0,-56.7"/><path id="path42" fill="none" stroke="#000" stroke-dasharray="none" stroke-linecap="butt" stroke-linejoin="miter" stroke-miterlimit="10" stroke-opacity="1" stroke-width="2.362" d="m 3266.25,4059.5 0,-56.7"/><path id="path44" fill="none" stroke="#000" stroke-dasharray="none" stroke-linecap="butt" stroke-linejoin="miter" stroke-miterlimit="10" stroke-opacity="1" stroke-width="2.362" d="m 2982.75,4059.5 0,-56.7"/><path id="path46" fill="none" stroke="#000" stroke-dasharray="none" stroke-linecap="butt" stroke-linejoin="miter" stroke-miterlimit="10" stroke-opacity="1" stroke-width="2.362" d="m 2699.25,4059.5 0,-56.7"/><path id="path48" fill="none" stroke="#000" stroke-dasharray="none" stroke-linecap="butt" stroke-linejoin="miter" stroke-miterlimit="10" stroke-opacity="1" stroke-width="2.362" d="m 2415.75,4059.5 0,-56.7"/><path id="path50" fill="none" stroke="#000" stroke-dasharray="none" stroke-linecap="butt" stroke-linejoin="miter" stroke-miterlimit="10" stroke-opacity="1" stroke-width="2.362" d="m 2132.25,4059.5 0,-56.7"/><path id="path52" fill="none" stroke="#000" stroke-dasharray="none" stroke-linecap="butt" stroke-linejoin="miter" stroke-miterlimit="10" stroke-opacity="1" stroke-width="2.362" d="m 1848.75,4059.5 0,-56.7"/><path id="path54" fill="none" stroke="#000" stroke-dasharray="none" stroke-linecap="butt" stroke-linejoin="miter" stroke-miterlimit="10" stroke-opacity="1" stroke-width="2.362" d="m 1565.25,4059.5 0,-56.7"/><path id="path56" fill="none" stroke="#000" stroke-dasharray="none" stroke-linecap="butt" stroke-linejoin="miter" stroke-miterlimit="10" stroke-opacity="1" stroke-width="2.362" d="m 1281.75,4059.5 0,-56.7"/><path id="path58" fill="none" stroke="#000" stroke-dasharray="none" stroke-linecap="butt" stroke-linejoin="miter" stroke-miterlimit="10" stroke-opacity="1" stroke-width="2.362" d="m 998.25,4059.5 0,-56.7"/><path id="path60" fill="none" stroke="#000" stroke-dasharray="none" stroke-linecap="butt" stroke-linejoin="miter" stroke-miterlimit="10" stroke-opacity="1" stroke-width="2.362" d="m 714.75,4059.5 0,-56.7"/><path id="path62" fill="none" stroke="#000" stroke-dasharray="none" stroke-linecap="butt" stroke-linejoin="miter" stroke-miterlimit="10" stroke-opacity="1" stroke-width="2.362" d="m 4683.75,4144.55 0,-56.7"/><path id="path64" fill="none" stroke="#000" stroke-dasharray="none" stroke-linecap="butt" stroke-linejoin="miter" stroke-miterlimit="10" stroke-opacity="1" stroke-width="2.362" d="m 4400.25,4144.55 0,-56.7"/><path id="path66" fill="none" stroke="#000" stroke-dasharray="none" stroke-linecap="butt" stroke-linejoin="miter" stroke-miterlimit="10" stroke-opacity="1" stroke-width="2.362" d="m 4116.75,4144.55 0,-56.7"/><path id="path68" fill="none" stroke="#000" stroke-dasharray="none" stroke-linecap="butt" stroke-linejoin="miter" stroke-miterlimit="10" stroke-opacity="1" stroke-width="2.362" d="m 3833.25,4144.55 0,-56.7"/><path id="path70" fill="none" stroke="#000" stroke-dasharray="none" stroke-linecap="butt" stroke-linejoin="miter" stroke-miterlimit="10" stroke-opacity="1" stroke-width="2.362" d="m 3549.75,4144.55 0,-56.7"/><path id="path72" fill="none" stroke="#000" stroke-dasharray="none" stroke-linecap="butt" stroke-linejoin="miter" stroke-miterlimit="10" stroke-opacity="1" stroke-width="2.362" d="m 3266.25,4144.55 0,-56.7"/><path id="path74" fill="none" stroke="#000" stroke-dasharray="none" stroke-linecap="butt" stroke-linejoin="miter" stroke-miterlimit="10" stroke-opacity="1" stroke-width="2.362" d="m 2982.75,4144.55 0,-56.7"/><path id="path76" fill="none" stroke="#000" stroke-dasharray="none" stroke-linecap="butt" stroke-linejoin="miter" stroke-miterlimit="10" stroke-opacity="1" stroke-width="2.362" d="m 2699.25,4144.55 0,-56.7"/><path id="path78" fill="none" stroke="#000" stroke-dasharray="none" stroke-linecap="butt" stroke-linejoin="miter" stroke-miterlimit="10" stroke-opacity="1" stroke-width="2.362" d="m 2415.75,4144.55 0,-56.7"/><path id="path80" fill="none" stroke="#000" stroke-dasharray="none" stroke-linecap="butt" stroke-linejoin="miter" stroke-miterlimit="10" stroke-opacity="1" stroke-width="2.362" d="m 2132.25,4144.55 0,-56.7"/><path id="path82" fill="none" stroke="#000" stroke-dasharray="none" stroke-linecap="butt" stroke-linejoin="miter" stroke-miterlimit="10" stroke-opacity="1" stroke-width="2.362" d="m 1848.75,4144.55 0,-56.7"/><path id="path84" fill="none" stroke="#000" stroke-dasharray="none" stroke-linecap="butt" stroke-linejoin="miter" stroke-miterlimit="10" stroke-opacity="1" stroke-width="2.362" d="m 1565.25,4144.55 0,-56.7"/><path id="path86" fill="none" stroke="#000" stroke-dasharray="none" stroke-linecap="butt" stroke-linejoin="miter" stroke-miterlimit="10" stroke-opacity="1" stroke-width="2.362" d="m 1281.75,4144.55 0,-56.7"/><path id="path88" fill="none" stroke="#000" stroke-dasharray="none" stroke-linecap="butt" stroke-linejoin="miter" stroke-miterlimit="10" stroke-opacity="1" stroke-width="2.362" d="m 998.25,4144.55 0,-56.7"/><path id="path90" fill="none" stroke="#000" stroke-dasharray="none" stroke-linecap="butt" stroke-linejoin="miter" stroke-miterlimit="10" stroke-opacity="1" stroke-width="2.362" d="m 714.75,4144.55 0,-56.7"/><path id="path92" fill="none" stroke="#000" stroke-dasharray="none" stroke-linecap="butt" stroke-linejoin="miter" stroke-miterlimit="10" stroke-opacity="1" stroke-width="2.362" d="m 1281.75,4598.15 0,-85.05"/></g><g id="g94" transform="matrix(1.3000026,0,0,1.3000026,-210.17435,-1094.2823)"><g id="g96" clip-path="url(#clipPath98)"><path id="path102" fill="none" stroke="#000" stroke-dasharray="none" stroke-linecap="butt" stroke-linejoin="miter" stroke-miterlimit="10" stroke-opacity="1" stroke-width="2.362" d="m 1281.75,4555.63 113.4,0"/></g></g><path id="path106" fill="#000" fill-opacity="1" fill-rule="evenodd" stroke="none" d="m 1547.8322,4815.7637 49.1401,12.2851 -49.1401,12.285 0,-24.5701"/><path id="path108" fill="none" stroke="#000" stroke-dasharray="none" stroke-linecap="butt" stroke-linejoin="miter" stroke-miterlimit="10" stroke-opacity="1" stroke-width="3.071" d="m 1547.8322,4815.7637 49.1401,12.2851 -49.1401,12.285 0,-24.5701 z"/><path id="path110" fill="none" stroke="#000" stroke-dasharray="none" stroke-linecap="butt" stroke-linejoin="miter" stroke-miterlimit="10" stroke-opacity="1" stroke-width="3.071" d="m 1456.104,5104.4553 0,-73.7101"/><path id="path112" fill="none" stroke="#000" stroke-dasharray="none" stroke-linecap="butt" stroke-linejoin="miter" stroke-miterlimit="10" stroke-opacity="1" stroke-width="3.071" d="m 1824.6548,5030.7452 0,73.7101"/><path id="path114" fill="none" stroke="#000" stroke-dasharray="none" stroke-linecap="butt" stroke-linejoin="miter" stroke-miterlimit="10" stroke-opacity="1" stroke-width="3.071" d="m 2193.2055,5104.4553 0,-73.7101"/><path id="path116" fill="none" stroke="#000" stroke-dasharray="none" stroke-linecap="butt" stroke-linejoin="miter" stroke-miterlimit="10" stroke-opacity="1" stroke-width="3.071" d="m 2561.7563,5104.4553 0,-73.7101"/><path id="path118" fill="none" stroke="#000" stroke-dasharray="none" stroke-linecap="butt" stroke-linejoin="miter" stroke-miterlimit="10" stroke-opacity="1" stroke-width="3.071" d="m 2930.307,5104.4553 0,-73.7101"/><path id="path120" fill="none" stroke="#000" stroke-dasharray="none" stroke-linecap="butt" stroke-linejoin="miter" stroke-miterlimit="10" stroke-opacity="1" stroke-width="3.071" d="m 3298.8578,5104.4553 0,-73.7101"/><path id="path122" fill="none" stroke="#000" stroke-dasharray="none" stroke-linecap="butt" stroke-linejoin="miter" stroke-miterlimit="10" stroke-opacity="1" stroke-width="3.071" d="m 3667.4085,5104.4553 0,-73.7101"/><path id="path124" fill="none" stroke="#000" stroke-dasharray="none" stroke-linecap="butt" stroke-linejoin="miter" stroke-miterlimit="10" stroke-opacity="1" stroke-width="3.071" d="m 4035.9593,5104.4553 0,-73.7101"/><path id="path126" fill="none" stroke="#000" stroke-dasharray="none" stroke-linecap="butt" stroke-linejoin="miter" stroke-miterlimit="10" stroke-opacity="1" stroke-width="3.071" d="m 4404.51,5104.4553 0,-73.7101"/><path id="path128" fill="none" stroke="#000" stroke-dasharray="none" stroke-linecap="butt" stroke-linejoin="miter" stroke-miterlimit="10" stroke-opacity="1" stroke-width="3.071" d="m 4773.0608,5104.4553 0,-73.7101"/><path id="path130" fill="none" stroke="#000" stroke-dasharray="none" stroke-linecap="butt" stroke-linejoin="miter" stroke-miterlimit="10" stroke-opacity="1" stroke-width="3.071" d="m 5141.6115,5104.4553 0,-73.7101"/><path id="path132" fill="none" stroke="#000" stroke-dasharray="none" stroke-linecap="butt" stroke-linejoin="miter" stroke-miterlimit="10" stroke-opacity="1" stroke-width="3.071" d="m 5510.1623,5104.4553 0,-73.7101"/><path id="path134" fill="none" stroke="#000" stroke-dasharray="none" stroke-linecap="butt" stroke-linejoin="miter" stroke-miterlimit="10" stroke-opacity="1" stroke-width="3.071" d="m 5878.713,5104.4553 0,-73.7101"/><path id="path136" fill="none" stroke="#000" stroke-dasharray="none" stroke-linecap="butt" stroke-linejoin="miter" stroke-miterlimit="10" stroke-opacity="1" stroke-width="3.071" d="m 1456.104,4993.8901 0,-73.7102"/><path id="path138" fill="none" stroke="#000" stroke-dasharray="none" stroke-linecap="butt" stroke-linejoin="miter" stroke-miterlimit="10" stroke-opacity="1" stroke-width="3.071" d="m 1824.6548,4920.1799 0,73.7102"/><path id="path140" fill="none" stroke="#000" stroke-dasharray="none" stroke-linecap="butt" stroke-linejoin="miter" stroke-miterlimit="10" stroke-opacity="1" stroke-width="3.071" d="m 2193.2055,4993.8901 0,-73.7102"/><path id="path142" fill="none" stroke="#000" stroke-dasharray="none" stroke-linecap="butt" stroke-linejoin="miter" stroke-miterlimit="10" stroke-opacity="1" stroke-width="3.071" d="m 2561.7563,4993.8901 0,-73.7102"/><path id="path144" fill="none" stroke="#000" stroke-dasharray="none" stroke-linecap="butt" stroke-linejoin="miter" stroke-miterlimit="10" stroke-opacity="1" stroke-width="3.071" d="m 2930.307,4993.8901 0,-73.7102"/><path id="path146" fill="none" stroke="#000" stroke-dasharray="none" stroke-linecap="butt" stroke-linejoin="miter" stroke-miterlimit="10" stroke-opacity="1" stroke-width="3.071" d="m 3298.8578,4993.8901 0,-73.7102"/><path id="path148" fill="none" stroke="#000" stroke-dasharray="none" stroke-linecap="butt" stroke-linejoin="miter" stroke-miterlimit="10" stroke-opacity="1" stroke-width="3.071" d="m 3667.4085,4993.8901 0,-73.7102"/><path id="path150" fill="none" stroke="#000" stroke-dasharray="none" stroke-linecap="butt" stroke-linejoin="miter" stroke-miterlimit="10" stroke-opacity="1" stroke-width="3.071" d="m 4035.9593,4993.8901 0,-73.7102"/><path id="path152" fill="none" stroke="#000" stroke-dasharray="none" stroke-linecap="butt" stroke-linejoin="miter" stroke-miterlimit="10" stroke-opacity="1" stroke-width="3.071" d="m 4404.51,4993.8901 0,-73.7102"/><path id="path154" fill="none" stroke="#000" stroke-dasharray="none" stroke-linecap="butt" stroke-linejoin="miter" stroke-miterlimit="10" stroke-opacity="1" stroke-width="3.071" d="m 4773.0608,4993.8901 0,-73.7102"/><path id="path156" fill="none" stroke="#000" stroke-dasharray="none" stroke-linecap="butt" stroke-linejoin="miter" stroke-miterlimit="10" stroke-opacity="1" stroke-width="3.071" d="m 5141.6115,4993.8901 0,-73.7102"/><path id="path158" fill="none" stroke="#000" stroke-dasharray="none" stroke-linecap="butt" stroke-linejoin="miter" stroke-miterlimit="10" stroke-opacity="1" stroke-width="3.071" d="m 5510.1623,4993.8901 0,-73.7102"/><path id="path160" fill="none" stroke="#000" stroke-dasharray="none" stroke-linecap="butt" stroke-linejoin="miter" stroke-miterlimit="10" stroke-opacity="1" stroke-width="3.071" d="m 5878.713,4993.8901 0,-73.7102"/><path id="path162" fill="none" stroke="#000" stroke-dasharray="none" stroke-linecap="butt" stroke-linejoin="miter" stroke-miterlimit="10" stroke-opacity="1" stroke-width="3.071" d="m 719.00254,5104.4553 0,-73.7101"/><path id="path164" fill="none" stroke="#000" stroke-dasharray="none" stroke-linecap="butt" stroke-linejoin="miter" stroke-miterlimit="10" stroke-opacity="1" stroke-width="3.071" d="m 719.00254,4993.8901 0,-73.7102"/><path id="path166" fill="none" stroke="#000" stroke-dasharray="none" stroke-linecap="butt" stroke-linejoin="miter" stroke-miterlimit="10" stroke-opacity="1" stroke-width="3.071" d="m 1087.5533,5104.4553 0,-73.7101"/><path id="path168" fill="none" stroke="#000" stroke-dasharray="none" stroke-linecap="butt" stroke-linejoin="miter" stroke-miterlimit="10" stroke-opacity="1" stroke-width="3.071" d="m 1087.5533,4993.8901 0,-73.7102"/><path id="path170" fill="none" stroke="#000" stroke-dasharray="none" stroke-linecap="butt" stroke-linejoin="miter" stroke-miterlimit="10" stroke-opacity="1" stroke-width="3.071" d="m 700.575,4735.9046 18.42754,0 0,-110.5653 36.85507,0 0,110.5653 18.42754,0"/><path id="path172" fill="none" stroke="#000" stroke-dasharray="none" stroke-linecap="butt" stroke-linejoin="miter" stroke-miterlimit="10" stroke-opacity="1" stroke-width="3.071" d="m 774.28515,4680.6285 18.42754,0 0,110.5652 -18.42754,0 0,-110.5652 z"/><path id="path174" fill="none" stroke="#000" stroke-dasharray="none" stroke-linecap="butt" stroke-linejoin="miter" stroke-miterlimit="10" stroke-opacity="1" stroke-width="3.071" d="m 792.71269,4735.9046 18.42753,0 0,92.1442 18.42754,-18.4341 18.42754,36.8551 18.42754,-36.8551 18.42753,36.8551 18.42754,-55.2761 18.42754,55.2761 18.42754,-18.421 18.42753,55.2761 18.42754,-55.2761 18.42754,18.421 18.4275,36.8551 18.4276,-92.1312 18.4275,55.2761 18.4275,-55.2761 0,-55.2891"/><path id="path176" fill="none" stroke="#000" stroke-dasharray="none" stroke-linecap="butt" stroke-linejoin="miter" stroke-miterlimit="10" stroke-opacity="1" stroke-width="3.071" d="m 1069.1257,4735.9046 18.4276,0 0,-110.5653 36.8551,0 0,110.5653 18.421,0"/><path id="path178" fill="none" stroke="#000" stroke-dasharray="none" stroke-linecap="butt" stroke-linejoin="miter" stroke-miterlimit="10" stroke-opacity="1" stroke-width="3.071" d="m 1142.8294,4680.6285 18.4275,0 0,110.5652 -18.4275,0 0,-110.5652 z"/><path id="path180" fill="none" stroke="#000" stroke-dasharray="none" stroke-linecap="butt" stroke-linejoin="miter" stroke-miterlimit="10" stroke-opacity="1" stroke-width="3.071" d="m 1456.104,4735.9046 0,-110.5653 18.4211,0 0,110.5653 165.8543,0 0,-110.5653 18.421,0 0,110.5653 165.8544,0 0,-110.5653 18.421,0 0,110.5653 165.8544,0 0,-110.5653 18.421,0 0,110.5653 165.8543,0 0,-110.5653 18.4211,0 0,110.5653 165.8543,0 0,-110.5653 18.421,0 0,110.5653 165.8544,0 0,-110.5653 147.4203,0 0,110.5653 36.8551,0 0,-110.5653 147.4203,0 0,110.5653 36.855,0 0,-110.5653 147.4203,0 0,110.5653 36.8551,0 0,-110.5653 147.4203,0 0,110.5653 36.8551,0 0,-110.5653 147.4203,0 0,110.5653 36.855,0 0,-110.5653 147.4203,0 0,110.5653 36.8551,0 0,-110.5653 18.4211,0 0,110.5653 165.8543,0 0,-110.5653 18.421,0 0,110.5653 165.8544,0 0,-110.5653 18.421,0 0,110.5653 165.8543,0 0,-110.5653 18.4211,0 0,110.5653 165.8543,0 0,-110.5653 18.4211,0 0,110.5653 165.8543,0 0,-110.5653 18.421,0 0,110.5653 165.8544,0 0,-110.5653 36.855,0 0,110.5653 18.4211,0"/><path id="path182" fill="none" stroke="#000" stroke-dasharray="none" stroke-linecap="butt" stroke-linejoin="miter" stroke-miterlimit="10" stroke-opacity="1" stroke-width="3.071" d="m 1161.2634,4735.9046 294.8406,0"/><path id="path184" fill="none" stroke="#000" stroke-dasharray="none" stroke-linecap="butt" stroke-linejoin="miter" stroke-miterlimit="10" stroke-opacity="1" stroke-width="3.071" d="m 6320.9739,4735.9046 18.421,0 0,92.1442 18.4341,-18.4341 18.421,73.7102 18.4341,-55.2761 18.421,36.855 18.434,-18.434 18.4211,36.8551 18.434,-36.8551 18.421,36.8551 18.4341,-36.8551 18.421,18.434 18.4341,-36.855 18.421,36.855 18.434,-36.855 18.4211,-18.4341 0,-73.7101 18.434,0"/><path id="path186" fill="none" stroke="#000" stroke-dasharray="none" stroke-linecap="butt" stroke-linejoin="miter" stroke-miterlimit="10" stroke-opacity="1" stroke-width="3.071" d="m 4828.3369,4680.6285 18.4275,0 0,110.5652 -18.4275,0 0,-110.5652 z"/><path id="path188" fill="none" stroke="#000" stroke-dasharray="none" stroke-linecap="butt" stroke-linejoin="miter" stroke-miterlimit="10" stroke-opacity="1" stroke-width="3.071" d="m 4846.7709,4735.9046 294.8406,0 0,-110.5653 36.8551,0 0,110.5653 18.421,0"/><path id="path190" fill="none" stroke="#000" stroke-dasharray="none" stroke-linecap="butt" stroke-linejoin="miter" stroke-miterlimit="10" stroke-opacity="1" stroke-width="3.071" d="m 5196.8876,4680.6285 18.4276,0 0,110.5652 -18.4276,0 0,-110.5652 z"/><path id="path192" fill="none" stroke="#000" stroke-dasharray="none" stroke-linecap="butt" stroke-linejoin="miter" stroke-miterlimit="10" stroke-opacity="1" stroke-width="3.071" d="m 5565.4384,4680.6285 18.4275,0 0,110.5652 -18.4275,0 0,-110.5652 z"/><path id="path194" fill="none" stroke="#000" stroke-dasharray="none" stroke-linecap="butt" stroke-linejoin="miter" stroke-miterlimit="10" stroke-opacity="1" stroke-width="3.071" d="m 5933.9891,4680.6285 18.4276,0 0,110.5652 -18.4276,0 0,-110.5652 z"/><path id="path196" fill="none" stroke="#000" stroke-dasharray="none" stroke-linecap="butt" stroke-linejoin="miter" stroke-miterlimit="10" stroke-opacity="1" stroke-width="3.071" d="m 5952.4232,4735.9046 294.8406,0 0,-110.5653 36.855,0 0,110.5653 18.4211,0"/><path id="path198" fill="none" stroke="#000" stroke-dasharray="none" stroke-linecap="butt" stroke-linejoin="miter" stroke-miterlimit="10" stroke-opacity="1" stroke-width="3.071" d="m 6302.5399,4680.6285 18.4275,0 0,110.5652 -18.4275,0 0,-110.5652 z"/><path id="path200" fill="none" stroke="#000" stroke-dasharray="none" stroke-linecap="butt" stroke-linejoin="miter" stroke-miterlimit="10" stroke-opacity="1" stroke-width="3.071" d="m 5786.5688,4735.9046 92.1442,0 0,-110.5653 36.8551,0 0,110.5653 18.421,0"/><path id="path202" fill="none" stroke="#000" stroke-dasharray="none" stroke-linecap="butt" stroke-linejoin="miter" stroke-miterlimit="10" stroke-opacity="1" stroke-width="3.071" d="m 5805.0029,4791.1937 -36.8551,-110.5652"/><path id="path204" fill="none" stroke="#000" stroke-dasharray="none" stroke-linecap="butt" stroke-linejoin="miter" stroke-miterlimit="10" stroke-opacity="1" stroke-width="3.071" d="m 5583.8724,4735.9046 165.8414,0"/><path id="path206" fill="none" stroke="#000" stroke-dasharray="none" stroke-linecap="butt" stroke-linejoin="miter" stroke-miterlimit="10" stroke-opacity="1" stroke-width="3.071" d="m 5768.1478,4791.1937 -36.8551,-110.5652"/><path id="path208" fill="none" stroke="#000" stroke-dasharray="none" stroke-linecap="butt" stroke-linejoin="miter" stroke-miterlimit="10" stroke-opacity="1" stroke-width="3.071" d="m 5215.3217,4735.9046 294.8406,0 0,-110.5653 36.855,0 0,110.5653 18.4211,0"/><path id="path210" fill="none" stroke="#000" stroke-dasharray="none" stroke-linecap="butt" stroke-linejoin="miter" stroke-miterlimit="10" stroke-opacity="1" stroke-width="3.071" d="m 6247.2638,5104.4553 0,-73.7101"/><path id="path212" fill="none" stroke="#000" stroke-dasharray="none" stroke-linecap="butt" stroke-linejoin="miter" stroke-miterlimit="10" stroke-opacity="1" stroke-width="3.071" d="m 6247.2638,4993.8901 0,-73.7102"/><path id="path214" fill="none" stroke="#000" stroke-dasharray="none" stroke-linecap="butt" stroke-linejoin="miter" stroke-miterlimit="10" stroke-opacity="1" stroke-width="3.071" d="m 6615.8145,5104.4553 0,-73.7101"/><path id="path216" fill="none" stroke="#000" stroke-dasharray="none" stroke-linecap="butt" stroke-linejoin="miter" stroke-miterlimit="10" stroke-opacity="1" stroke-width="3.071" d="m 6615.8145,4993.8901 0,-73.7102"/><path id="path218" fill="none" stroke="#000" stroke-dasharray="none" stroke-linecap="butt" stroke-linejoin="miter" stroke-miterlimit="10" stroke-opacity="1" stroke-width="3.071" d="m 700.575,3925.0929 18.42754,0 0,-110.5652 36.85507,0 0,110.5652 18.42754,0"/><path id="path220" fill="none" stroke="#000" stroke-dasharray="none" stroke-linecap="butt" stroke-linejoin="miter" stroke-miterlimit="10" stroke-opacity="1" stroke-width="3.071" d="m 774.28515,3869.8168 18.42754,0 0,110.5652 -18.42754,0 0,-110.5652 z"/><path id="path222" fill="none" stroke="#000" stroke-dasharray="none" stroke-linecap="butt" stroke-linejoin="miter" stroke-miterlimit="10" stroke-opacity="1" stroke-width="3.071" d="m 1142.8294,3869.8168 18.4275,0 0,110.5652 -18.4275,0 0,-110.5652 z"/><path id="path224" fill="none" stroke="#000" stroke-dasharray="none" stroke-linecap="butt" stroke-linejoin="miter" stroke-miterlimit="10" stroke-opacity="1" stroke-width="3.071" d="m 792.71269,3925.0929 18.42753,0 0,110.5652 18.42754,-36.855 18.42754,18.434 18.42754,-36.8551 18.42753,36.8551 0,-92.1442 202.70293,0 0,-110.5652 36.8551,0 0,110.5652 18.421,0"/><path id="path226" fill="none" stroke="#000" stroke-dasharray="none" stroke-linecap="butt" stroke-linejoin="miter" stroke-miterlimit="10" stroke-opacity="1" stroke-width="3.071" d="m 1161.2634,3925.0929 110.5653,0 0,-110.5652 18.421,0 0,110.5652 165.8543,0 0,-110.5652 18.4211,0 0,110.5652 165.8543,0 0,-110.5652 18.421,0 0,110.5652 165.8544,0 0,-110.5652 18.421,0 0,110.5652 165.8544,0 0,-110.5652 18.421,0 0,110.5652 165.8543,0 0,-110.5652 18.4211,0 0,110.5652 165.8543,0 0,-110.5652 147.4203,0 0,110.5652 36.8551,0 0,-110.5652 147.4203,0 0,110.5652 36.8551,0 0,-110.5652 147.4203,0 0,110.5652 36.855,0 0,-110.5652 147.4203,0 0,110.5652 36.8551,0 0,-110.5652 147.4203,0 0,110.5652 36.8551,0 0,-110.5652 147.4203,0 0,110.5652 36.855,0 0,-110.5652 18.4211,0 0,110.5652 165.8543,0 0,-110.5652 18.4211,0 0,110.5652 165.8543,0 0,-110.5652 18.421,0 0,110.5652 165.8544,0 0,-110.5652 18.421,0 0,110.5652 165.8543,0"/><path id="path228" fill="none" stroke="#000" stroke-dasharray="none" stroke-linecap="butt" stroke-linejoin="miter" stroke-miterlimit="10" stroke-opacity="1" stroke-width="3.071" d="m 4220.2346,3925.0929 0,-110.5652 18.4211,0 0,110.5652 165.8543,0 0,-110.5652 18.4211,0 0,110.5652 55.2891,0"/><path id="path230" fill="none" stroke="#000" stroke-dasharray="none" stroke-linecap="butt" stroke-linejoin="miter" stroke-miterlimit="10" stroke-opacity="1" stroke-width="3.071" d="m 4478.2202,3925.0929 294.8406,0 0,-110.5652 36.855,0 0,110.5652 18.4211,0"/><path id="path232" fill="none" stroke="#000" stroke-dasharray="none" stroke-linecap="butt" stroke-linejoin="miter" stroke-miterlimit="10" stroke-opacity="1" stroke-width="3.071" d="m 5952.4232,3925.0929 128.9862,0 0,73.7102 18.4341,36.855 18.421,-18.421 18.434,36.8551 18.4211,-36.8551 18.434,18.421 18.421,-36.855 18.4341,18.434 18.421,-36.8551 0,-55.2891 18.4341,0 0,-110.5652 36.855,0 0,110.5652 18.4211,0"/><path id="path234" fill="none" stroke="#000" stroke-dasharray="none" stroke-linecap="butt" stroke-linejoin="miter" stroke-miterlimit="10" stroke-opacity="1" stroke-width="3.071" d="m 6302.5399,3869.8168 18.4275,0 0,110.5652 -18.4275,0 0,-110.5652 z"/><path id="path236" fill="none" stroke="#000" stroke-dasharray="none" stroke-linecap="butt" stroke-linejoin="miter" stroke-miterlimit="10" stroke-opacity="1" stroke-width="3.071" d="m 6320.9739,3925.0929 18.421,0 0,73.7102 18.4341,36.855 18.421,-36.855 18.4341,36.855 18.421,-18.421 18.434,0 18.4211,-36.8551 18.434,55.2761 18.421,-18.421 0,36.8551 18.4341,-18.4341 18.421,18.4341 18.4341,-36.8551 18.421,18.421 18.434,-55.2761 18.4211,18.4211 0,-73.7102 18.434,0"/><path id="path238" fill="none" stroke="#000" stroke-dasharray="none" stroke-linecap="butt" stroke-linejoin="miter" stroke-miterlimit="10" stroke-opacity="1" stroke-width="3.071" d="m 5933.9891,3869.8168 18.4276,0 0,110.5652 -18.4276,0 0,-110.5652 z"/><path id="path240" fill="none" stroke="#000" stroke-dasharray="none" stroke-linecap="butt" stroke-linejoin="miter" stroke-miterlimit="10" stroke-opacity="1" stroke-width="3.071" d="m 5786.5688,3925.0929 92.1442,0 0,-110.5652 36.8551,0 0,110.5652 18.421,0"/><path id="path242" fill="none" stroke="#000" stroke-dasharray="none" stroke-linecap="butt" stroke-linejoin="miter" stroke-miterlimit="10" stroke-opacity="1" stroke-width="3.071" d="m 5805.0029,3980.382 -36.8551,-110.5652"/><path id="path244" fill="none" stroke="#000" stroke-dasharray="none" stroke-linecap="butt" stroke-linejoin="miter" stroke-miterlimit="10" stroke-opacity="1" stroke-width="3.071" d="m 5768.1478,3980.382 -36.8551,-110.5652"/><path id="path246" fill="none" stroke="#000" stroke-dasharray="none" stroke-linecap="butt" stroke-linejoin="miter" stroke-miterlimit="10" stroke-opacity="1" stroke-width="3.071" d="m 4828.3369,3869.8168 18.4275,0 0,110.5652 -18.4275,0 0,-110.5652 z"/><path id="path248" fill="none" stroke="#000" stroke-dasharray="none" stroke-linecap="butt" stroke-linejoin="miter" stroke-miterlimit="10" stroke-opacity="1" stroke-width="3.071" d="m 5583.8724,3925.0929 165.8414,0"/><path id="path250" fill="none" stroke="#000" stroke-dasharray="none" stroke-linecap="butt" stroke-linejoin="miter" stroke-miterlimit="10" stroke-opacity="1" stroke-width="3.071" d="m 4846.7709,3925.0929 294.8406,0 0,-110.5652 36.8551,0 0,110.5652 18.421,0"/><path id="path252" fill="none" stroke="#000" stroke-dasharray="none" stroke-linecap="butt" stroke-linejoin="miter" stroke-miterlimit="10" stroke-opacity="1" stroke-width="3.071" d="m 5196.8876,3869.8168 18.4276,0 0,110.5652 -18.4276,0 0,-110.5652 z"/><path id="path254" fill="none" stroke="#000" stroke-dasharray="none" stroke-linecap="butt" stroke-linejoin="miter" stroke-miterlimit="10" stroke-opacity="1" stroke-width="3.071" d="m 5215.3217,3925.0929 294.8406,0 0,-110.5652 36.855,0 0,110.5652 18.4211,0"/><path id="path256" fill="none" stroke="#000" stroke-dasharray="none" stroke-linecap="butt" stroke-linejoin="miter" stroke-miterlimit="10" stroke-opacity="1" stroke-width="3.071" d="m 5565.4384,3869.8168 18.4275,0 0,110.5652 -18.4275,0 0,-110.5652 z"/><path id="path258" fill="none" stroke="#000" stroke-dasharray="none" stroke-linecap="butt" stroke-linejoin="miter" stroke-miterlimit="10" stroke-opacity="1" stroke-width="3.071" d="m 6247.2638,4293.6437 0,-73.7102"/><path id="path260" fill="none" stroke="#000" stroke-dasharray="none" stroke-linecap="butt" stroke-linejoin="miter" stroke-miterlimit="10" stroke-opacity="1" stroke-width="3.071" d="m 6247.2638,4183.0784 0,-73.7101"/><path id="path262" fill="none" stroke="#000" stroke-dasharray="none" stroke-linecap="butt" stroke-linejoin="miter" stroke-miterlimit="10" stroke-opacity="1" stroke-width="3.071" d="m 6615.8145,4293.6437 0,-73.7102"/><path id="path264" fill="none" stroke="#000" stroke-dasharray="none" stroke-linecap="butt" stroke-linejoin="miter" stroke-miterlimit="10" stroke-opacity="1" stroke-width="3.071" d="m 6615.8145,4183.0784 0,-73.7101"/><text id="text268" x="1621.945" y="-4035.658" fill="#000" fill-opacity="1" fill-rule="nonzero" stroke="none" font-family="sans-serif" font-size="61.425" font-stretch="normal" font-style="normal" font-variant="normal" font-weight="normal" transform="scale(1,-1)" writing-mode="lr-tb" style="-inkscape-font-specification:sans-serif"><tspan id="tspan270" x="1621.945 1642.4 1676.552" y="-4035.658">(1)</tspan></text><text id="text272" x="4199.733" y="-4127.796" fill="#000" fill-opacity="1" fill-rule="nonzero" stroke="none" font-family="sans-serif" font-size="73.71" font-stretch="normal" font-style="normal" font-variant="normal" font-weight="normal" transform="scale(1,-1)" writing-mode="lr-tb" style="-inkscape-font-specification:sans-serif"><tspan id="tspan274" x="4199.733 3831.183 2725.53 3112.509 3462.632 4568.284 4916.344 4957.327 5653.446 5694.429 5284.895 5325.878 2356.977 1988.426 1210.342 1251.325 1292.308 1619.876 841.792 882.775 923.757" y="-4127.796">874569101211322631262</tspan><tspan id="tspan276" x="4158.748 4199.731 4240.714 3790.198 3831.181 3872.163 2684.546 2725.528 2766.511 3071.524 3112.506 3153.49 3421.647 3462.63 3503.613 4527.299 4568.282 4609.265 4895.85 4936.833 4977.815 5632.952 5673.934 5714.917 5264.401 5305.383 5346.366 2315.995 2356.977 2397.96 1947.444 1988.427 2029.41 1210.342 1251.325 1292.308 1578.893 1619.876 1660.859 841.792 882.775 923.757" y="-4238.361">271270267268269272273275274266265263264262</tspan><tspan id="tspan278" x="2725.535 4568.288 1988.433 2356.984 1619.882 3094.085 3462.636 4916.351 4957.334 5284.902 5325.884 5653.453 5694.435 3812.766 4181.316" y="-5049.173">492315610111278</tspan><tspan id="tspan280" x="2725.547 4568.301 1988.446 2356.997 1619.895 3094.098 3462.649 4916.364 4957.347 5284.915 5325.898 5653.465 5694.448 3812.779 4181.33" y="-4938.607">492315610111278</tspan><tspan id="tspan282" x="841.818 882.801 923.783" y="-5049.173">524</tspan><tspan id="tspan284" x="841.818 882.801 923.783" y="-4938.607">261</tspan><tspan id="tspan286" x="1210.368 1251.351 1292.334" y="-5049.173">525</tspan><tspan id="tspan288" x="1210.368 1251.351 1292.334" y="-4938.607">262</tspan><tspan id="tspan290" x="6022.016 6062.999" y="-5049.173">22</tspan><tspan id="tspan292" x="6022.016 6062.999" y="-4938.607">22</tspan><tspan id="tspan294" x="6390.567 6431.55" y="-5049.173">23</tspan><tspan id="tspan296" x="6390.567 6431.55" y="-4938.607">23</tspan><tspan id="tspan298" x="6001.524 6042.507 6083.49" y="-4238.362">285</tspan><tspan id="tspan300" x="6022.016 6062.998" y="-4127.796">22</tspan><tspan id="tspan302" x="6370.075 6411.057 6452.04" y="-4238.362">286</tspan><tspan id="tspan304" x="6390.566 6431.549" y="-4127.796">23</tspan><tspan id="tspan306" x="3540.415 3581.397 3618.252 3638.744 3659.235 3679.727 3696.09 3737.073 3753.436" y="-4459.492">1st field</tspan><tspan id="tspan308" x="3528.105 3569.088 3610.07 3651.053 3671.545 3692.036 3708.4 3749.383 3765.746" y="-3648.681">2nd field</tspan></text><text id="text3632" x="4199.733 3831.183 2725.53 3112.509 3462.632 4568.284 4916.344 4957.327 5653.446 5694.429 5284.895 5325.878 2356.977 1988.426 1210.342 1251.325 1292.308 1619.876 841.792 882.775 923.757" y="-4127.796" fill="#000" fill-opacity="1" fill-rule="nonzero" stroke="none" font-family="sans-serif" font-size="73.71" font-stretch="normal" font-style="normal" font-variant="normal" font-weight="normal" transform="scale(1,-1)" writing-mode="lr-tb" style="-inkscape-font-specification:sans-serif"><tspan id="tspan3634" x="4199.733 3831.183 2725.53 3112.509 3462.632 4568.284 4916.344 4957.327 5653.446 5694.429 5284.895 5325.878 2356.977 1988.426 1210.342 1251.325 1292.308 1619.876 841.792 882.775 923.757" y="-4127.796">874569101211322631262</tspan></text><text id="text3636" x="4158.748 4199.731 4240.714 3790.198 3831.181 3872.163 2684.546 2725.528 2766.511 3071.524 3112.506 3153.49 3421.647 3462.63 3503.613 4527.299 4568.282 4609.265 4895.85 4936.833 4977.815 5632.952 5673.934 5714.917 5264.401 5305.383 5346.366 2315.995 2356.977 2397.96 1947.444 1988.427 2029.41 1210.342 1251.325 1292.308 1578.893 1619.876 1660.859 841.792 882.775 923.757" y="-4238.361" fill="#000" fill-opacity="1" fill-rule="nonzero" stroke="none" font-family="sans-serif" font-size="73.71" font-stretch="normal" font-style="normal" font-variant="normal" font-weight="normal" transform="scale(1,-1)" writing-mode="lr-tb" style="-inkscape-font-specification:sans-serif"><tspan id="tspan3638" x="4158.748 4199.731 4240.714 3790.198 3831.181 3872.163 2684.546 2725.528 2766.511 3071.524 3112.506 3153.49 3421.647 3462.63 3503.613 4527.299 4568.282 4609.265 4895.85 4936.833 4977.815 5632.952 5673.934 5714.917 5264.401 5305.383 5346.366 2315.995 2356.977 2397.96 1947.444 1988.427 2029.41 1210.342 1251.325 1292.308 1578.893 1619.876 1660.859 841.792 882.775 923.757" y="-4238.361">271270267268269272273275274266265263264262</tspan></text><text id="text3640" x="2725.535 4568.288 1988.433 2356.984 1619.882 3094.085 3462.636 4916.351 4957.334 5284.902 5325.884 5653.453 5694.435 3812.766 4181.316" y="-5049.173" fill="#000" fill-opacity="1" fill-rule="nonzero" stroke="none" font-family="sans-serif" font-size="73.71" font-stretch="normal" font-style="normal" font-variant="normal" font-weight="normal" transform="scale(1,-1)" writing-mode="lr-tb" style="-inkscape-font-specification:sans-serif"><tspan id="tspan3642" x="2725.535 4568.288 1988.433 2356.984 1619.882 3094.085 3462.636 4916.351 4957.334 5284.902 5325.884 5653.453 5694.435 3812.766 4181.316" y="-5049.173">492315610111278</tspan></text><text id="text3644" x="2725.547 4568.301 1988.446 2356.997 1619.895 3094.098 3462.649 4916.364 4957.347 5284.915 5325.898 5653.465 5694.448 3812.779 4181.33" y="-4938.607" fill="#000" fill-opacity="1" fill-rule="nonzero" stroke="none" font-family="sans-serif" font-size="73.71" font-stretch="normal" font-style="normal" font-variant="normal" font-weight="normal" transform="scale(1,-1)" writing-mode="lr-tb" style="-inkscape-font-specification:sans-serif"><tspan id="tspan3646" x="2725.547 4568.301 1988.446 2356.997 1619.895 3094.098 3462.649 4916.364 4957.347 5284.915 5325.898 5653.465 5694.448 3812.779 4181.33" y="-4938.607">492315610111278</tspan></text><text id="text3648" x="841.818 882.801 923.783" y="-5049.173" fill="#000" fill-opacity="1" fill-rule="nonzero" stroke="none" font-family="sans-serif" font-size="73.71" font-stretch="normal" font-style="normal" font-variant="normal" font-weight="normal" transform="scale(1,-1)" writing-mode="lr-tb" style="-inkscape-font-specification:sans-serif"><tspan id="tspan3650" x="841.818 882.801 923.783" y="-5049.173">524</tspan></text><text id="text3652" x="841.818 882.801 923.783" y="-4938.607" fill="#000" fill-opacity="1" fill-rule="nonzero" stroke="none" font-family="sans-serif" font-size="73.71" font-stretch="normal" font-style="normal" font-variant="normal" font-weight="normal" transform="scale(1,-1)" writing-mode="lr-tb" style="-inkscape-font-specification:sans-serif"><tspan id="tspan3654" x="841.818 882.801 923.783" y="-4938.607">261</tspan></text><text id="text3656" x="1210.368 1251.351 1292.334" y="-5049.173" fill="#000" fill-opacity="1" fill-rule="nonzero" stroke="none" font-family="sans-serif" font-size="73.71" font-stretch="normal" font-style="normal" font-variant="normal" font-weight="normal" transform="scale(1,-1)" writing-mode="lr-tb" style="-inkscape-font-specification:sans-serif"><tspan id="tspan3658" x="1210.368 1251.351 1292.334" y="-5049.173">525</tspan></text><text id="text3660" x="1210.368 1251.351 1292.334" y="-4938.607" fill="#000" fill-opacity="1" fill-rule="nonzero" stroke="none" font-family="sans-serif" font-size="73.71" font-stretch="normal" font-style="normal" font-variant="normal" font-weight="normal" transform="scale(1,-1)" writing-mode="lr-tb" style="-inkscape-font-specification:sans-serif"><tspan id="tspan3662" x="1210.368 1251.351 1292.334" y="-4938.607">262</tspan></text><text id="text3664" x="6022.016 6062.999" y="-5049.173" fill="#000" fill-opacity="1" fill-rule="nonzero" stroke="none" font-family="sans-serif" font-size="73.71" font-stretch="normal" font-style="normal" font-variant="normal" font-weight="normal" transform="scale(1,-1)" writing-mode="lr-tb" style="-inkscape-font-specification:sans-serif"><tspan id="tspan3666" x="6022.016 6062.999" y="-5049.173">22</tspan></text><text id="text3668" x="6022.016 6062.999" y="-4938.607" fill="#000" fill-opacity="1" fill-rule="nonzero" stroke="none" font-family="sans-serif" font-size="73.71" font-stretch="normal" font-style="normal" font-variant="normal" font-weight="normal" transform="scale(1,-1)" writing-mode="lr-tb" style="-inkscape-font-specification:sans-serif"><tspan id="tspan3670" x="6022.016 6062.999" y="-4938.607">22</tspan></text><text id="text3672" x="6390.567 6431.55" y="-5049.173" fill="#000" fill-opacity="1" fill-rule="nonzero" stroke="none" font-family="sans-serif" font-size="73.71" font-stretch="normal" font-style="normal" font-variant="normal" font-weight="normal" transform="scale(1,-1)" writing-mode="lr-tb" style="-inkscape-font-specification:sans-serif"><tspan id="tspan3674" x="6390.567 6431.55" y="-5049.173">23</tspan></text><text id="text3676" x="6390.567 6431.55" y="-4938.607" fill="#000" fill-opacity="1" fill-rule="nonzero" stroke="none" font-family="sans-serif" font-size="73.71" font-stretch="normal" font-style="normal" font-variant="normal" font-weight="normal" transform="scale(1,-1)" writing-mode="lr-tb" style="-inkscape-font-specification:sans-serif"><tspan id="tspan3678" x="6390.567 6431.55" y="-4938.607">23</tspan></text><text id="text3680" x="6001.524 6042.507 6083.49" y="-4238.362" fill="#000" fill-opacity="1" fill-rule="nonzero" stroke="none" font-family="sans-serif" font-size="73.71" font-stretch="normal" font-style="normal" font-variant="normal" font-weight="normal" transform="scale(1,-1)" writing-mode="lr-tb" style="-inkscape-font-specification:sans-serif"><tspan id="tspan3682" x="6001.524 6042.507 6083.49" y="-4238.362">285</tspan></text><text id="text3684" x="6022.016 6062.998" y="-4127.796" fill="#000" fill-opacity="1" fill-rule="nonzero" stroke="none" font-family="sans-serif" font-size="73.71" font-stretch="normal" font-style="normal" font-variant="normal" font-weight="normal" transform="scale(1,-1)" writing-mode="lr-tb" style="-inkscape-font-specification:sans-serif"><tspan id="tspan3686" x="6022.016 6062.998" y="-4127.796">22</tspan></text><text id="text3688" x="6370.075 6411.057 6452.04" y="-4238.362" fill="#000" fill-opacity="1" fill-rule="nonzero" stroke="none" font-family="sans-serif" font-size="73.71" font-stretch="normal" font-style="normal" font-variant="normal" font-weight="normal" transform="scale(1,-1)" writing-mode="lr-tb" style="-inkscape-font-specification:sans-serif"><tspan id="tspan3690" x="6370.075 6411.057 6452.04" y="-4238.362">286</tspan></text><text id="text3692" x="6390.566 6431.549" y="-4127.796" fill="#000" fill-opacity="1" fill-rule="nonzero" stroke="none" font-family="sans-serif" font-size="73.71" font-stretch="normal" font-style="normal" font-variant="normal" font-weight="normal" transform="scale(1,-1)" writing-mode="lr-tb" style="-inkscape-font-specification:sans-serif"><tspan id="tspan3694" x="6390.566 6431.549" y="-4127.796">23</tspan></text><text id="text3696" x="3540.415 3581.397 3618.252 3638.744 3659.235 3679.727 3696.09 3737.073 3753.436" y="-4459.492" fill="#000" fill-opacity="1" fill-rule="nonzero" stroke="none" font-family="sans-serif" font-size="73.71" font-stretch="normal" font-style="normal" font-variant="normal" font-weight="normal" transform="scale(1,-1)" writing-mode="lr-tb" style="-inkscape-font-specification:sans-serif"><tspan id="tspan3698" x="3540.415 3581.397 3618.252 3638.744 3659.235 3679.727 3696.09 3737.073 3753.436" y="-4459.492">1st field</tspan></text><text id="text3700" x="3528.105 3569.088 3610.07 3651.053 3671.545 3692.036 3708.4 3749.383 3765.746" y="-3648.681" fill="#000" fill-opacity="1" fill-rule="nonzero" stroke="none" font-family="sans-serif" font-size="73.71" font-stretch="normal" font-style="normal" font-variant="normal" font-weight="normal" transform="scale(1,-1)" writing-mode="lr-tb" style="-inkscape-font-specification:sans-serif"><tspan id="tspan3702" x="3528.105 3569.088 3610.07 3651.053 3671.545 3692.036 3708.4 3749.383 3765.746" y="-3648.681">2nd field</tspan></text></g></svg>