<svg xmlns="http://www.w3.org/2000/svg" xmlns:svg="http://www.w3.org/2000/svg" id="svg2" width="727.176" height="554.968" version="1.1" viewBox="0 0 681.727 520.283" xml:space="preserve"><metadata id="metadata8"/><defs id="defs6"><clipPath id="clipPath30" clipPathUnits="userSpaceOnUse"><path id="path32" d="m 0,0 0,1163 1544,0 L 1544,0 0,0 Z m 187.184,836.05 0,-19.278 48.517,0 -38.556,9.639 38.556,9.639 -48.517,0 z m 689.189,-19.278 0,19.278 -48.516,0 38.556,-9.639 -38.556,-9.639 48.516,0 z" clip-rule="evenodd"/></clipPath><clipPath id="clipPath52" clipPathUnits="userSpaceOnUse"><path id="path54" d="m 0,0 0,1163 1544,0 L 1544,0 0,0 Z m 804.08,79.3887 0,19.2778 -48.516,0 38.556,-9.6389 -38.556,-9.6389 48.516,0 z m -703.647,19.2778 0,-19.2778 48.517,0 -38.556,9.6389 38.556,9.6389 -48.517,0 z" clip-rule="evenodd"/></clipPath><clipPath id="clipPath94" clipPathUnits="userSpaceOnUse"><path id="path96" d="m 0,0 0,1163 1544,0 L 1544,0 0,0 Z m 471.535,195.057 0,19.278 -48.516,0 38.555,-9.639 -38.555,-9.639 48.516,0 z m -284.351,19.278 0,-19.278 48.517,0 -38.556,9.639 38.556,9.639 -48.517,0 z" clip-rule="evenodd"/></clipPath></defs><g id="g10" transform="matrix(1.25,0,0,-1.25,-0.3625824,520.79867)"><g id="g14" transform="matrix(0.36030235,0,0,0.36030235,-0.75498483,-1.0743684)"><path id="path16" fill="none" stroke="#000" stroke-dasharray="none" stroke-linecap="butt" stroke-linejoin="miter" stroke-miterlimit="10" stroke-opacity="1" stroke-width="2.41" d="M 32.9604,580.617 4.04346,493.866"/><path id="path18" fill="none" stroke="#000" stroke-dasharray="none" stroke-linecap="butt" stroke-linejoin="miter" stroke-miterlimit="10" stroke-opacity="1" stroke-width="2.41" d="m 192.004,855.328 0,-665.091"/><path id="path20" fill="none" stroke="#000" stroke-dasharray="none" stroke-linecap="butt" stroke-linejoin="miter" stroke-miterlimit="10" stroke-opacity="1" stroke-width="2.41" d="m 466.715,392.656 0,-202.419"/><path id="path22" fill="none" stroke="#000" stroke-dasharray="none" stroke-linecap="butt" stroke-linejoin="miter" stroke-miterlimit="10" stroke-opacity="1" stroke-width="2.41" d="m 799.261,508.324 0,-433.7549"/><path id="path24" fill="none" stroke="#000" stroke-dasharray="none" stroke-linecap="butt" stroke-linejoin="miter" stroke-miterlimit="10" stroke-opacity="1" stroke-width="4.819" d="m 857.095,537.241 231.335,0"/></g><g id="g26" transform="matrix(0.36030235,0,0,0.36030235,-0.75498483,-1.0743684)"><g id="g28" clip-path="url(#clipPath30)"><path id="path34" fill="none" stroke="#000" stroke-dasharray="none" stroke-linecap="butt" stroke-linejoin="miter" stroke-miterlimit="10" stroke-opacity="1" stroke-width="2.41" d="m 871.553,826.411 -679.549,0"/></g></g><g id="g36" transform="matrix(0.36030235,0,0,0.36030235,-0.75498483,-1.0743684)"><path id="path38" fill="#000" fill-opacity="1" fill-rule="evenodd" stroke="none" d="m 827.857,816.772 38.556,9.639 -38.556,9.639 0,-19.278"/><path id="path40" fill="none" stroke="#000" stroke-dasharray="none" stroke-linecap="butt" stroke-linejoin="miter" stroke-miterlimit="10" stroke-opacity="1" stroke-width="2.41" d="m 827.857,816.772 38.556,9.639 -38.556,9.639 0,-19.278 z"/><path id="path42" fill="#000" fill-opacity="1" fill-rule="evenodd" stroke="none" d="m 235.701,836.05 -38.556,-9.639 38.556,-9.639 0,19.278"/><path id="path44" fill="none" stroke="#000" stroke-dasharray="none" stroke-linecap="butt" stroke-linejoin="miter" stroke-miterlimit="10" stroke-opacity="1" stroke-width="2.41" d="m 235.701,836.05 -38.556,-9.639 38.556,-9.639 0,19.278 z"/><path id="path46" fill="none" stroke="#000" stroke-dasharray="none" stroke-linecap="butt" stroke-linejoin="miter" stroke-miterlimit="10" stroke-opacity="1" stroke-width="2.41" d="m 1073.97,493.866 28.92,86.751"/></g><g id="g48" transform="matrix(0.36030235,0,0,0.36030235,-0.75498483,-1.0743684)"><g id="g50" clip-path="url(#clipPath52)"><path id="path56" fill="none" stroke="#000" stroke-dasharray="none" stroke-linecap="butt" stroke-linejoin="miter" stroke-miterlimit="10" stroke-opacity="1" stroke-width="2.41" d="m 105.253,89.0276 694.008,0"/></g></g><path id="path60" fill="#000" fill-opacity="1" fill-rule="evenodd" stroke="none" d="m 52.91205,34.475403 -13.891817,-3.472918 13.891817,-3.472918 0,6.945836"/><path id="path62" fill="none" stroke="#000" stroke-dasharray="none" stroke-linecap="butt" stroke-linejoin="miter" stroke-miterlimit="10" stroke-opacity="1" stroke-width=".868" d="m 52.91205,34.475403 -13.891817,-3.472918 13.891817,-3.472918 0,6.945836 z"/><path id="path64" fill="#000" fill-opacity="1" fill-rule="evenodd" stroke="none" d="m 271.4765,27.529567 13.89182,3.472918 -13.89182,3.472918 0,-6.945836"/><path id="path66" fill="none" stroke="#000" stroke-dasharray="none" stroke-linecap="butt" stroke-linejoin="miter" stroke-miterlimit="10" stroke-opacity="1" stroke-width=".868" d="m 271.4765,27.529567 13.89182,3.472918 -13.89182,3.472918 0,-6.945836 z"/><path id="path68" fill="none" stroke="#000" stroke-dasharray="none" stroke-linecap="butt" stroke-linejoin="miter" stroke-miterlimit="10" stroke-opacity="1" stroke-width="1.736" d="m 5.9113292,192.49483 31.2565888,0 0,-10.41887 26.046978,0 10.418863,-93.769765 88.560511,0 10.41887,93.769765 10.41886,0"/><path id="path70" fill="none" stroke="#000" stroke-dasharray="none" stroke-linecap="butt" stroke-linejoin="miter" stroke-miterlimit="10" stroke-opacity="1" stroke-width=".868" d="m 162.19427,88.306195 260.47086,0"/><path id="path72" fill="none" stroke="#000" stroke-dasharray="none" stroke-linecap="butt" stroke-linejoin="miter" stroke-miterlimit="10" stroke-opacity="1" stroke-width=".868" d="m 37.167918,182.07596 0,-156.282907"/><path id="path74" fill="none" stroke="#000" stroke-dasharray="none" stroke-linecap="butt" stroke-linejoin="miter" stroke-miterlimit="10" stroke-opacity="1" stroke-width="1.736" d="m 235.12632,182.07596 52.09431,0 0,10.41887 20.83773,0 10.41886,208.3769 83.35162,0"/><path id="path76" fill="none" stroke="#000" stroke-dasharray="none" stroke-linecap="butt" stroke-linejoin="miter" stroke-miterlimit="10" stroke-opacity="1" stroke-width=".868" d="m 391.4089,192.49483 31.25623,0"/><path id="path78" fill="none" stroke="#000" stroke-dasharray="none" stroke-linecap="butt" stroke-linejoin="miter" stroke-miterlimit="10" stroke-opacity="1" stroke-width=".868" d="m 401.82884,400.87173 20.83629,0"/><path id="path80" fill="none" stroke="#000" stroke-dasharray="none" stroke-linecap="butt" stroke-linejoin="miter" stroke-miterlimit="10" stroke-opacity="1" stroke-width=".868" d="m 328.89608,192.49483 10.41887,208.3769"/><path id="path82" fill="none" stroke="#000" stroke-dasharray="none" stroke-linecap="butt" stroke-linejoin="miter" stroke-miterlimit="10" stroke-opacity="1" stroke-width=".868" d="m 349.73381,192.49483 10.41886,208.3769"/><path id="path84" fill="none" stroke="#000" stroke-dasharray="none" stroke-linecap="butt" stroke-linejoin="miter" stroke-miterlimit="10" stroke-opacity="1" stroke-width=".868" d="m 370.57262,192.49483 10.41634,208.3769"/><path id="path86" fill="none" stroke="#000" stroke-dasharray="none" stroke-linecap="butt" stroke-linejoin="miter" stroke-miterlimit="10" stroke-opacity="1" stroke-width=".868" d="m 396.61887,385.24541 10.41995,31.25623"/><path id="path88" fill="none" stroke="#000" stroke-dasharray="none" stroke-linecap="butt" stroke-linejoin="miter" stroke-miterlimit="10" stroke-opacity="1" stroke-width="1.736" d="m 183.032,135.19126 52.09432,0 0,93.76977 -52.09432,0 0,-93.76977 z"/><g id="g90" transform="matrix(0.36030235,0,0,0.36030235,-0.75498483,-1.0743684)"><g id="g92" clip-path="url(#clipPath94)"><path id="path98" fill="none" stroke="#000" stroke-dasharray="none" stroke-linecap="butt" stroke-linejoin="miter" stroke-miterlimit="10" stroke-opacity="1" stroke-width="2.41" d="m 192.004,204.696 274.711,0"/></g></g><path id="path102" fill="#000" fill-opacity="1" fill-rule="evenodd" stroke="none" d="m 84.168639,76.151036 -13.891817,-3.472955 13.891817,-3.472954 0,6.945909"/><path id="path104" fill="none" stroke="#000" stroke-dasharray="none" stroke-linecap="butt" stroke-linejoin="miter" stroke-miterlimit="10" stroke-opacity="1" stroke-width=".868" d="m 84.168639,76.151036 -13.891817,-3.472955 13.891817,-3.472954 0,6.945909 z"/><path id="path106" fill="#000" fill-opacity="1" fill-rule="evenodd" stroke="none" d="m 151.65975,69.205127 13.89146,3.472954 -13.89146,3.472955 0,-6.945909"/><path id="path108" fill="none" stroke="#000" stroke-dasharray="none" stroke-linecap="butt" stroke-linejoin="miter" stroke-miterlimit="10" stroke-opacity="1" stroke-width=".868" d="m 151.65975,69.205127 13.89146,3.472954 -13.89146,3.472955 0,-6.945909 z"/><text id="text112" x="438.295" y="-187.286" fill="#000" fill-opacity="1" fill-rule="nonzero" stroke="none" font-family="sans-serif" font-size="20.838" font-stretch="normal" font-style="normal" font-variant="normal" font-weight="normal" transform="scale(1,-1)" writing-mode="lr-tb" style="-inkscape-font-specification:sans-serif"><tspan id="tspan114" x="438.295 452.194 456.82 468.406 478.824 489.243 495.036 506.622 518.208 528.627 540.212" y="-187.286">Black Level</tspan><tspan id="tspan116" x="438.295 452.194 462.613 474.198 484.617 490.41 501.996 513.582 524.001 535.586" y="-83.097">Sync Level</tspan><tspan id="tspan118" x="438.295 457.966 469.552 474.178 479.97 491.556 497.349 508.935 520.521 530.94 542.525" y="-395.663">White Level</tspan></text><text id="text120" x="159.883" y="-270.636" fill="#000" fill-opacity="1" fill-rule="nonzero" stroke="none" font-family="sans-serif" font-size="20.838" font-stretch="normal" font-style="normal" font-variant="normal" font-weight="normal" transform="scale(1,-1)" writing-mode="lr-tb" style="-inkscape-font-specification:sans-serif"><tspan id="tspan122" x="159.883 172.614 179.553 186.492 198.078 209.664" y="-270.636">offset</tspan></text><text id="text124" x="46.974" y="-46.631" fill="#000" fill-opacity="1" fill-rule="nonzero" stroke="none" font-family="sans-serif" font-size="20.838" font-stretch="normal" font-style="normal" font-variant="normal" font-weight="normal" transform="scale(1,-1)" writing-mode="lr-tb" style="-inkscape-font-specification:sans-serif"><tspan id="tspan126" x="46.974 58.559 63.185 74.771 86.357 92.15 102.569 112.987 124.573 134.992 146.578 153.517 159.31 165.103 176.688 188.274 192.9 203.319" y="-46.631">Line synchr. pulse</tspan><tspan id="tspan128" x="100.808 112.394 117.02 128.605 140.191 145.984 157.57 162.196 173.781 185.367 195.786 200.412 211.998" y="-4.955">Line blanking</tspan></text><text id="text3473" x="46.974 58.559 63.185 74.771 86.357 92.15 102.569 112.987 124.573 134.992 146.578 153.517 159.31 165.103 176.688 188.274 192.9 203.319" y="-46.631" fill="#000" fill-opacity="1" fill-rule="nonzero" stroke="none" font-family="sans-serif" font-size="20.838" font-stretch="normal" font-style="normal" font-variant="normal" font-weight="normal" transform="scale(1,-1)" writing-mode="lr-tb" style="-inkscape-font-specification:sans-serif"><tspan id="tspan3475" x="46.974 58.559 63.185 74.771 86.357 92.15 102.569 112.987 124.573 134.992 146.578 153.517 159.31 165.103 176.688 188.274 192.9 203.319" y="-46.631">Line synchr. pulse</tspan></text><text id="text3477" x="100.808 112.394 117.02 128.605 140.191 145.984 157.57 162.196 173.781 185.367 195.786 200.412 211.998" y="-4.955" fill="#000" fill-opacity="1" fill-rule="nonzero" stroke="none" font-family="sans-serif" font-size="20.838" font-stretch="normal" font-style="normal" font-variant="normal" font-weight="normal" transform="scale(1,-1)" writing-mode="lr-tb" style="-inkscape-font-specification:sans-serif"><tspan id="tspan3479" x="100.808 112.394 117.02 128.605 140.191 145.984 157.57 162.196 173.781 185.367 195.786 200.412 211.998" y="-4.955">Line blanking</tspan></text><text id="text3607" x="438.295 452.194 456.82 468.406 478.824 489.243 495.036 506.622 518.208 528.627 540.212" y="-187.286" fill="#000" fill-opacity="1" fill-rule="nonzero" stroke="none" font-family="sans-serif" font-size="20.838" font-stretch="normal" font-style="normal" font-variant="normal" font-weight="normal" transform="scale(1,-1)" writing-mode="lr-tb" style="-inkscape-font-specification:sans-serif"><tspan id="tspan3609" x="438.295 452.194 456.82 468.406 478.824 489.243 495.036 506.622 518.208 528.627 540.212" y="-187.286">Black Level</tspan></text><text id="text3611" x="438.295 452.194 462.613 474.198 484.617 490.41 501.996 513.582 524.001 535.586" y="-83.097" fill="#000" fill-opacity="1" fill-rule="nonzero" stroke="none" font-family="sans-serif" font-size="20.838" font-stretch="normal" font-style="normal" font-variant="normal" font-weight="normal" transform="scale(1,-1)" writing-mode="lr-tb" style="-inkscape-font-specification:sans-serif"><tspan id="tspan3613" x="438.295 452.194 462.613 474.198 484.617 490.41 501.996 513.582 524.001 535.586" y="-83.097">Sync Level</tspan></text><text id="text3615" x="438.295 457.966 469.552 474.178 479.97 491.556 497.349 508.935 520.521 530.94 542.525" y="-395.663" fill="#000" fill-opacity="1" fill-rule="nonzero" stroke="none" font-family="sans-serif" font-size="20.838" font-stretch="normal" font-style="normal" font-variant="normal" font-weight="normal" transform="scale(1,-1)" writing-mode="lr-tb" style="-inkscape-font-specification:sans-serif"><tspan id="tspan3617" x="438.295 457.966 469.552 474.178 479.97 491.556 497.349 508.935 520.521 530.94 542.525" y="-395.663">White Level</tspan></text></g></svg>