<svg xmlns="http://www.w3.org/2000/svg" id="svg2" width="237.7mm" height="477.279" fill-rule="evenodd" stroke-linejoin="round" stroke-width="28.222" preserveAspectRatio="xMidYMid" version="1.2" viewBox="0 0 23770.221 12628.221" xml:space="preserve"><metadata id="metadata519"/><rect id="rect197" width="18403" height="9603" x="5355.1" y="13.111" fill="none" class="BoundingBox"/><path id="path199" fill="#fff" d="m14556 9614.1h-9200v-9600h18400v9600h-9200z"/><path id="path201" fill="none" stroke="#000" d="m14556 9614.1h-9200v-9600h18400v9600h-9200z"/><rect id="rect206" width="4544" height="2403" x="13.111" y="4013.1" fill="none" class="BoundingBox"/><path id="path208" fill="#fff" d="m2285.1 6414.1h-2271v-2400h4541v2400h-2270z"/><path id="path210" fill="none" stroke="#000" d="m2285.1 6414.1h-2271v-2400h4541v2400h-2270z"/><text id="text212" x="-2443.889" y="-4585.889" class="TextShape"><tspan id="tspan214" class="TextParagraph" font-family="sans-serif" font-size="635" font-weight="400"><tspan id="tspan216" x="1281.111" y="5435.111" class="TextPosition"><tspan id="tspan218" fill="#000">Antena</tspan></tspan></tspan></text><rect id="rect223" width="4544" height="2403" x="6213.1" y="1813.1" fill="none" class="BoundingBox"/><path id="path225" fill="#fff" d="m8485.1 4214.1h-2271v-2400h4541v2400h-2270z"/><path id="path227" fill="none" stroke="#000" d="m8485.1 4214.1h-2271v-2400h4541v2400h-2270z"/><text id="text229" x="-2443.889" y="-4585.889" class="TextShape"><tspan id="tspan231" class="TextParagraph" font-family="sans-serif" font-size="635" font-weight="400"><tspan id="tspan233" x="7217.111" y="3235.111" class="TextPosition"><tspan id="tspan235" fill="#000">Frontend</tspan></tspan></tspan></text><rect id="rect240" width="4544" height="2403" x="12113" y="1813.1" fill="none" class="BoundingBox"/><path id="path242" fill="#fff" d="m14385 4214.1h-2271v-2400h4541v2400h-2270z"/><path id="path244" fill="none" stroke="#000" d="m14385 4214.1h-2271v-2400h4541v2400h-2270z"/><text id="text246" x="-2443.889" y="-4585.889" class="TextShape"><tspan id="tspan248" class="TextParagraph" font-family="sans-serif" font-size="635" font-weight="400"><tspan id="tspan250" x="13944.111" y="3235.111" class="TextPosition"><tspan id="tspan252" fill="#000">CA</tspan></tspan></tspan></text><rect id="rect257" width="4544" height="2403" x="18113" y="1813.1" fill="none" class="BoundingBox"/><path id="path259" fill="#fff" d="m20385 4214.1h-2271v-2400h4541v2400h-2270z"/><path id="path261" fill="none" stroke="#000" d="m20385 4214.1h-2271v-2400h4541v2400h-2270z"/><text id="text263" x="-2443.889" y="-4585.889" class="TextShape"><tspan id="tspan265" class="TextParagraph" font-family="sans-serif" font-size="635" font-weight="400"><tspan id="tspan267" x="19384.111" y="3235.111" class="TextPosition"><tspan id="tspan269" fill="#000">Demux</tspan></tspan></tspan></text><rect id="rect274" width="4544" height="2403" x="6113.1" y="5813.1" fill="none" class="BoundingBox"/><path id="path276" fill="#fff" d="m8385.1 8214.1h-2271v-2400h4541v2400h-2270z"/><path id="path278" fill="none" stroke="#000" d="m8385.1 8214.1h-2271v-2400h4541v2400h-2270z"/><text id="text280" x="-2443.889" y="-4585.889" class="TextShape"><tspan id="tspan282" class="TextParagraph" font-family="sans-serif" font-size="635" font-weight="400"><tspan id="tspan284" x="7733.111" y="7235.111" class="TextPosition"><tspan id="tspan286" fill="#000">SEC</tspan></tspan></tspan></text><rect id="rect291" width="4544" height="2403" x="12213" y="5813.1" fill="none" class="BoundingBox"/><path id="path293" fill="#fff" d="m14485 8214.1h-2271v-2400h4541v2400h-2270z"/><path id="path295" fill="none" stroke="#000" d="m14485 8214.1h-2271v-2400h4541v2400h-2270z"/><text id="text297" x="-2443.889" y="-4585.889" class="TextShape"><tspan id="tspan299" class="TextParagraph" font-family="sans-serif" font-size="635" font-weight="400"><tspan id="tspan301" x="13676.111" y="7235.111" class="TextPosition"><tspan id="tspan303" fill="#000">Audio</tspan></tspan></tspan></text><rect id="rect308" width="4544" height="2403" x="18113" y="5813.1" fill="none" class="BoundingBox"/><path id="path310" fill="#fff" d="m20385 8214.1h-2271v-2400h4541v2400h-2270z"/><path id="path312" fill="none" stroke="#000" d="m20385 8214.1h-2271v-2400h4541v2400h-2270z"/><text id="text314" x="-2443.889" y="-4585.889" class="TextShape"><tspan id="tspan316" class="TextParagraph" font-family="sans-serif" font-size="635" font-weight="400"><tspan id="tspan318" x="19583.111" y="7235.111" class="TextPosition"><tspan id="tspan320" fill="#000">Video</tspan></tspan></tspan></text><rect id="rect325" width="4544" height="2403" x="15213" y="10213" fill="none" class="BoundingBox"/><path id="path327" fill="#fff" d="m17485 12614h-2271v-2400h4541v2400h-2270z"/><path id="path329" fill="none" stroke="#000" d="m17485 12614h-2271v-2400h4541v2400h-2270z"/><text id="text331" x="-2443.889" y="-4585.889" class="TextShape"><tspan id="tspan333" class="TextParagraph" font-family="sans-serif" font-size="635" font-weight="400"><tspan id="tspan335" x="17076.111" y="11635.111" class="TextPosition"><tspan id="tspan337" fill="#000">TV</tspan></tspan></tspan></text><rect id="rect342" width="1661" height="2202" x="4555.1" y="3014.1" fill="none" class="BoundingBox"/><path id="path344" fill="none" stroke="#000" d="m4556.1 5214.1 1400-1857"/><path id="path346" d="m6215.1 3014.1-391 269 240 181 151-450z"/><rect id="rect351" width="1561" height="1802" x="4555.1" y="5213.1" fill="none" class="BoundingBox"/><path id="path353" fill="none" stroke="#000" d="m4556.1 5214.1 1277 1475"/><path id="path355" d="m6115.1 7014.1-181-438-227 196 408 242z"/><rect id="rect360" width="1361" height="301" x="10755" y="2864.1" fill="none" class="BoundingBox"/><path id="path362" fill="none" stroke="#000" d="m10756 3014.1h929"/><path id="path364" d="m12115 3014.1-450-150v300l450-150z"/><rect id="rect369" width="1461" height="301" x="16655" y="2864.1" fill="none" class="BoundingBox"/><path id="path371" fill="none" stroke="#000" d="m16656 3014.1h1029"/><path id="path373" d="m18115 3014.1-450-150v300l450-150z"/><rect id="rect378" width="301" height="1602" x="20235" y="4213.1" fill="none" class="BoundingBox"/><path id="path380" fill="none" stroke="#000" d="m20385 4214.1v1170"/><path id="path382" d="m20385 5814.1 150-450h-300l150 450z"/><rect id="rect387" width="2902" height="2002" x="17485" y="8213.1" fill="none" class="BoundingBox"/><path id="path389" fill="none" stroke="#000" d="m20385 8214.1-2546 1756"/><path id="path391" d="m17485 10214 456-132-171-247-285 379z"/><rect id="rect396" width="3002" height="2002" x="14484" y="8213.1" fill="none" class="BoundingBox"/><path id="path398" fill="none" stroke="#000" d="m14485 8214.1 2642 1761"/><path id="path400" d="m17485 10214-291-374-167 249 458 125z"/><rect id="rect405" width="5902" height="1629" x="14485" y="4213.1" fill="none" class="BoundingBox"/><path id="path407" fill="none" stroke="#000" d="m20385 4214.1-51 14"/><path id="path409" fill="none" stroke="#000" d="m20283 4242.1-52 14"/><path id="path411" fill="none" stroke="#000" d="m20180 4270.1-51 13"/><path id="path413" fill="none" stroke="#000" d="m20078 4297.1-52 14"/><path id="path415" fill="none" stroke="#000" d="m19975 4325.1-51 14"/><path id="path417" fill="none" stroke="#000" d="m19873 4353.1-52 14"/><path id="path419" fill="none" stroke="#000" d="m19770 4381.1-51 14"/><path id="path421" fill="none" stroke="#000" d="m19668 4409.1-52 13"/><path id="path423" fill="none" stroke="#000" d="m19565 4436.1-51 14"/><path id="path425" fill="none" stroke="#000" d="m19463 4464.1-52 14"/><path id="path427" fill="none" stroke="#000" d="m19360 4492.1-51 14"/><path id="path429" fill="none" stroke="#000" d="m19258 4520.1-52 14"/><path id="path431" fill="none" stroke="#000" d="m19155 4547.1-51 14"/><path id="path433" fill="none" stroke="#000" d="m19053 4575.1-52 14"/><path id="path435" fill="none" stroke="#000" d="m18950 4603.1-51 14"/><path id="path437" fill="none" stroke="#000" d="m18848 4631.1-51 14"/><path id="path439" fill="none" stroke="#000" d="m18745 4659.1-51 14"/><path id="path441" fill="none" stroke="#000" d="m18643 4686.1-51 14"/><path id="path443" fill="none" stroke="#000" d="m18540 4714.1-51 14"/><path id="path445" fill="none" stroke="#000" d="m18438 4742.1-51 14"/><path id="path447" fill="none" stroke="#000" d="m18335 4770.1-51 14"/><path id="path449" fill="none" stroke="#000" d="m18233 4798.1-51 14"/><path id="path451" fill="none" stroke="#000" d="m18130 4825.1-51 14"/><path id="path453" fill="none" stroke="#000" d="m18028 4853.1-51 14"/><path id="path455" fill="none" stroke="#000" d="m17925 4881.1-51 14"/><path id="path457" fill="none" stroke="#000" d="m17823 4909.1-51 14"/><path id="path459" fill="none" stroke="#000" d="m17720 4937.1-51 13"/><path id="path461" fill="none" stroke="#000" d="m17618 4964.1-51 14"/><path id="path463" fill="none" stroke="#000" d="m17516 4992.1-52 14"/><path id="path465" fill="none" stroke="#000" d="m17413 5020.1-51 14"/><path id="path467" fill="none" stroke="#000" d="m17311 5048.1-52 14"/><path id="path469" fill="none" stroke="#000" d="m17208 5076.1-51 13"/><path id="path471" fill="none" stroke="#000" d="m17106 5103.1-52 14"/><path id="path473" fill="none" stroke="#000" d="m17003 5131.1-51 14"/><path id="path475" fill="none" stroke="#000" d="m16901 5159.1-52 14"/><path id="path477" fill="none" stroke="#000" d="m16798 5187.1-51 14"/><path id="path479" fill="none" stroke="#000" d="m16696 5214.1-52 14"/><path id="path481" fill="none" stroke="#000" d="m16593 5242.1-51 14"/><path id="path483" fill="none" stroke="#000" d="m16491 5270.1-52 14"/><path id="path485" fill="none" stroke="#000" d="m16388 5298.1-51 14"/><path id="path487" fill="none" stroke="#000" d="m16286 5326.1-52 14"/><path id="path489" fill="none" stroke="#000" d="m16183 5353.1-51 14"/><path id="path491" fill="none" stroke="#000" d="m16081 5381.1-51 14"/><path id="path493" fill="none" stroke="#000" d="m15978 5409.1-51 14"/><path id="path495" fill="none" stroke="#000" d="m15876 5437.1-51 14"/><path id="path497" fill="none" stroke="#000" d="m15773 5465.1-51 14"/><path id="path499" fill="none" stroke="#000" d="m15671 5492.1-51 14"/><path id="path501" fill="none" stroke="#000" d="m15568 5520.1-51 14"/><path id="path503" fill="none" stroke="#000" d="m15466 5548.1-51 14"/><path id="path505" fill="none" stroke="#000" d="m15363 5576.1-51 14"/><path id="path507" fill="none" stroke="#000" d="m15261 5604.1-51 13"/><path id="path509" fill="none" stroke="#000" d="m15158 5631.1-51 14"/><path id="path511" fill="none" stroke="#000" d="m15056 5659.1-51 14"/><path id="path513" fill="none" stroke="#000" d="m14953 5687.1-51 14"/><path id="path515" d="m14485 5814.1 474 27-79-290-395 263z"/></svg>