<svg xmlns="http://www.w3.org/2000/svg" xmlns:svg="http://www.w3.org/2000/svg" id="svg2" width="3.1in" height="1.8in" version="1.1" viewBox="-12 -12 3699 2124"><metadata id="metadata98"/><defs id="defs96"><marker id="Arrow2Lend" orient="auto" overflow="visible" refX="0" refY="0"><path id="path3868" fill-rule="evenodd" stroke-linejoin="round" stroke-width=".625" d="M 8.7185878,4.0337352 L -2.2072895,0.016013256 L 8.7185884,-4.0017078 C 6.9730900,-1.6296469 6.9831476,1.6157441 8.7185878,4.0337352 z" transform="scale(1.1) rotate(180) translate(1,0)"/></marker></defs><g id="g4" fill="none" stroke-width="2.4"><rect id="rect6" width="3675" height="2100" x="0" y="0" fill="#ff0" stroke="#000" stroke-linecap="butt" stroke-linejoin="miter" stroke-width="7" rx="0"/><rect id="rect8" width="750" height="225" x="75" y="1350" fill="#ffbfbf" stroke="#000" stroke-linecap="butt" stroke-linejoin="miter" stroke-width="7" rx="0"/><rect id="rect10" width="750" height="225" x="75" y="1575" fill="#ffbfbf" stroke="#000" stroke-linecap="butt" stroke-linejoin="miter" stroke-width="7" rx="0"/><rect id="rect12" width="750" height="225" x="75" y="1800" fill="#ffbfbf" stroke="#000" stroke-linecap="butt" stroke-linejoin="miter" stroke-width="7" rx="0"/><path id="path14" stroke="#000" stroke-linecap="butt" stroke-width="7" d="M 1800,900 A 118 118 0 0 0 1800 1125"/><path id="path16" stroke="#000" stroke-linecap="butt" stroke-width="7" d="M 750,900 A 75 75 0 0 0 750 1050"/><polyline id="polyline18" stroke="#000" stroke-dasharray="none" stroke-linecap="butt" stroke-linejoin="miter" stroke-miterlimit="4" stroke-width="7" marker-end="url(#Arrow2Lend)" points="750 900 750 691"/><rect id="rect22" width="375" height="300" x="75" y="375" fill="#ffbfbf" stroke="#000" stroke-linecap="butt" stroke-linejoin="miter" stroke-width="7" rx="0"/><rect id="rect24" width="375" height="300" x="600" y="375" fill="#ffbfbf" stroke="#000" stroke-linecap="butt" stroke-linejoin="miter" stroke-width="7" rx="0"/><rect id="rect26" width="375" height="300" x="1650" y="375" fill="#ffbfbf" stroke="#000" stroke-linecap="butt" stroke-linejoin="miter" stroke-width="7" rx="0"/><rect id="rect28" width="375" height="300" x="2175" y="375" fill="#ffbfbf" stroke="#000" stroke-linecap="butt" stroke-linejoin="miter" stroke-width="7" rx="0"/><rect id="rect30" width="375" height="300" x="3225" y="375" fill="#ffbfbf" stroke="#000" stroke-linecap="butt" stroke-linejoin="miter" stroke-width="7" rx="0"/><polyline id="polyline32" stroke="#000" stroke-dasharray="none" stroke-linecap="butt" stroke-linejoin="miter" stroke-miterlimit="4" stroke-width="7" marker-end="url(#Arrow2Lend)" points="675 375 675 150 300 150 300 358"/><polyline id="polyline36" stroke="#000" stroke-dasharray="none" stroke-linecap="butt" stroke-linejoin="miter" stroke-miterlimit="4" stroke-width="7" marker-end="url(#Arrow2Lend)" points="1725 375 1725 150 900 150 900 358"/><polyline id="polyline40" stroke="#000" stroke-dasharray="none" stroke-linecap="butt" stroke-linejoin="miter" stroke-miterlimit="4" stroke-width="7" marker-end="url(#Arrow2Lend)" points="2250 375 2250 75 825 75 825 358"/><polyline id="polyline44" stroke="#000" stroke-dasharray="none" stroke-linecap="butt" stroke-linejoin="miter" stroke-miterlimit="4" stroke-width="7" marker-end="url(#Arrow2Lend)" points="2775 675 2775 975 1425 975 1425 691"/><rect id="rect48" width="375" height="300" x="2700" y="375" fill="#ffbfbf" stroke="#000" stroke-linecap="butt" stroke-linejoin="miter" stroke-width="7" rx="0"/><rect id="rect50" width="375" height="300" x="1125" y="375" fill="#ffbfbf" stroke="#000" stroke-linecap="butt" stroke-linejoin="miter" stroke-width="7" rx="0"/><polyline id="polyline52" stroke="#000" stroke-dasharray="none" stroke-linecap="butt" stroke-linejoin="miter" stroke-miterlimit="4" stroke-width="7" marker-end="url(#Arrow2Lend)" points="3300 675 3300 1050 1350 1050 1350 691"/><polyline id="polyline56" stroke="#000" stroke-dasharray="none" stroke-linecap="butt" stroke-linejoin="miter" stroke-miterlimit="4" stroke-width="7" marker-end="url(#Arrow2Lend)" points="825 1425 975 1425 975 1200 225 1200 225 691"/><polyline id="polyline60" stroke="#000" stroke-dasharray="none" stroke-linecap="butt" stroke-linejoin="miter" stroke-miterlimit="4" stroke-width="7" marker-end="url(#Arrow2Lend)" points="1200 675 1200 975 300 975 300 691"/><text id="text64" x="150" y="1500" fill="#000" font-family="Helvetica" font-size="108" font-style="normal" font-weight="normal" text-anchor="start" xml:space="preserve">-&gt;level[0]</text><text id="text66" x="150" y="1725" fill="#000" font-family="Helvetica" font-size="108" font-style="normal" font-weight="normal" text-anchor="start" xml:space="preserve">-&gt;level[1]</text><text id="text68" x="150" y="1950" fill="#000" font-family="Helvetica" font-size="108" font-style="normal" font-weight="normal" text-anchor="start" xml:space="preserve">-&gt;level[2]</text><text id="text70" x="300" y="525" fill="#000" font-family="Times" font-size="96" font-style="normal" font-weight="normal" text-anchor="middle" xml:space="preserve">0:7</text><text id="text72" x="1350" y="525" fill="#000" font-family="Times" font-size="96" font-style="normal" font-weight="normal" text-anchor="middle" xml:space="preserve">4:7</text><text id="text74" x="1875" y="525" fill="#000" font-family="Times" font-size="96" font-style="normal" font-weight="normal" text-anchor="middle" xml:space="preserve">0:1</text><text id="text76" x="2400" y="525" fill="#000" font-family="Times" font-size="96" font-style="normal" font-weight="normal" text-anchor="middle" xml:space="preserve">2:3</text><text id="text78" x="2925" y="525" fill="#000" font-family="Times" font-size="96" font-style="normal" font-weight="normal" text-anchor="middle" xml:space="preserve">4:5</text><text id="text80" x="3450" y="525" fill="#000" font-family="Times" font-size="96" font-style="normal" font-weight="normal" text-anchor="middle" xml:space="preserve">6:7</text><text id="text82" x="825" y="525" fill="#000" font-family="Times" font-size="96" font-style="normal" font-weight="normal" text-anchor="middle" xml:space="preserve">0:3</text><text id="text84" x="3600" y="150" fill="#000" font-family="Courier" font-size="96" font-style="normal" font-weight="normal" text-anchor="end" xml:space="preserve">struct rcu_state</text><polyline id="polyline86" stroke="#000" stroke-dasharray="none" stroke-linecap="butt" stroke-linejoin="miter" stroke-miterlimit="4" stroke-width="7" marker-end="none" points="825 1875 1800 1875 1800 1125"/><polyline id="polyline88" stroke="#000" stroke-dasharray="none" stroke-linecap="butt" stroke-linejoin="miter" stroke-miterlimit="4" stroke-width="7" marker-end="url(#Arrow2Lend)" points="1800 900 1800 691"/><polyline id="polyline92" stroke="#000" stroke-linecap="butt" stroke-linejoin="miter" stroke-width="7" points="825 1650 1200 1650 1200 1125 750 1125 750 1050"/></g></svg>