<svg xmlns="http://www.w3.org/2000/svg" xmlns:svg="http://www.w3.org/2000/svg" id="svg2" width="3.1in" height="86.4" version="1.1" viewBox="-12 -12 3699 1074"><metadata id="metadata66"/><defs id="defs64"><marker id="Arrow2Lend" orient="auto" overflow="visible" refX="0" refY="0"><path id="path3836" fill-rule="evenodd" stroke-linejoin="round" stroke-width=".625" d="M 8.7185878,4.0337352 L -2.2072895,0.016013256 L 8.7185884,-4.0017078 C 6.9730900,-1.6296469 6.9831476,1.6157441 8.7185878,4.0337352 z" transform="scale(1.1) rotate(180) translate(1,0)"/></marker><marker id="Arrow2Mend" orient="auto" overflow="visible" refX="0" refY="0"><path id="path3842" fill-rule="evenodd" stroke-linejoin="round" stroke-width=".625" d="M 8.7185878,4.0337352 L -2.2072895,0.016013256 L 8.7185884,-4.0017078 C 6.9730900,-1.6296469 6.9831476,1.6157441 8.7185878,4.0337352 z" transform="scale(0.6) rotate(180) translate(0,0)"/></marker><marker id="Arrow1Mend" orient="auto" overflow="visible" refX="0" refY="0"><path id="path3824" fill-rule="evenodd" stroke="#000" stroke-width="1pt" d="M 0.0,0.0 L 5.0,-5.0 L -12.5,0.0 L 5.0,5.0 L 0.0,0.0 z" transform="scale(0.4) rotate(180) translate(10,0)"/></marker></defs><g id="g4" fill="none" stroke-width="2.4"><rect id="rect6" width="3675" height="1050" x="0" y="0" fill="#ff0" stroke="#000" stroke-linecap="butt" stroke-linejoin="miter" stroke-width="7" rx="0"/><rect id="rect8" width="375" height="300" x="75" y="375" fill="#ffbfbf" stroke="#000" stroke-linecap="butt" stroke-linejoin="miter" stroke-width="7" rx="0"/><rect id="rect10" width="375" height="300" x="600" y="375" fill="#ffbfbf" stroke="#000" stroke-linecap="butt" stroke-linejoin="miter" stroke-width="7" rx="0"/><rect id="rect12" width="375" height="300" x="1125" y="375" fill="#ffbfbf" stroke="#000" stroke-linecap="butt" stroke-linejoin="miter" stroke-width="7" rx="0"/><rect id="rect14" width="375" height="300" x="1650" y="375" fill="#ffbfbf" stroke="#000" stroke-linecap="butt" stroke-linejoin="miter" stroke-width="7" rx="0"/><rect id="rect16" width="375" height="300" x="2175" y="375" fill="#ffbfbf" stroke="#000" stroke-linecap="butt" stroke-linejoin="miter" stroke-width="7" rx="0"/><rect id="rect18" width="375" height="300" x="3225" y="375" fill="#ffbfbf" stroke="#000" stroke-linecap="butt" stroke-linejoin="miter" stroke-width="7" rx="0"/><polyline id="polyline20" stroke="#000" stroke-dasharray="none" stroke-linecap="butt" stroke-linejoin="miter" stroke-miterlimit="4" stroke-width="7.001" marker-end="url(#Arrow2Lend)" points="675 375 675 150 300 150 300 358"/><polyline id="polyline24" stroke="#000" stroke-dasharray="none" stroke-linecap="butt" stroke-linejoin="miter" stroke-miterlimit="4" stroke-width="7.001" marker-end="url(#Arrow2Lend)" points="1200 675 1200 900 300 900 300 691"/><polyline id="polyline28" stroke="#000" stroke-dasharray="none" stroke-linecap="butt" stroke-linejoin="miter" stroke-miterlimit="4" stroke-width="7.001" marker-end="url(#Arrow2Lend)" points="1725 375 1725 150 900 150 900 358"/><polyline id="polyline32" stroke="#000" stroke-dasharray="none" stroke-linecap="butt" stroke-linejoin="miter" stroke-miterlimit="4" stroke-width="7.001" marker-end="url(#Arrow2Lend)" points="2250 375 2250 75 825 75 825 358"/><polyline id="polyline36" stroke="#000" stroke-dasharray="none" stroke-linecap="butt" stroke-linejoin="miter" stroke-miterlimit="4" stroke-width="7.001" marker-end="url(#Arrow2Lend)" points="2775 675 2775 900 1425 900 1425 691"/><polyline id="polyline40" stroke="#000" stroke-dasharray="none" stroke-linecap="butt" stroke-linejoin="miter" stroke-miterlimit="4" stroke-width="7.001" marker-end="url(#Arrow2Lend)" points="3300 675 3300 975 1350 975 1350 691"/><rect id="rect44" width="375" height="300" x="2700" y="375" fill="#ffbfbf" stroke="#000" stroke-linecap="butt" stroke-linejoin="miter" stroke-width="7" rx="0"/><text id="text46" x="300" y="525" fill="#000" font-family="Times" font-size="96" font-style="normal" font-weight="normal" text-anchor="middle" xml:space="preserve">0:7</text><text id="text48" x="1350" y="525" fill="#000" font-family="Times" font-size="96" font-style="normal" font-weight="normal" text-anchor="middle" xml:space="preserve">4:7</text><text id="text50" x="1875" y="525" fill="#000" font-family="Times" font-size="96" font-style="normal" font-weight="normal" text-anchor="middle" xml:space="preserve">0:1</text><text id="text52" x="2400" y="525" fill="#000" font-family="Times" font-size="96" font-style="normal" font-weight="normal" text-anchor="middle" xml:space="preserve">2:3</text><text id="text54" x="2925" y="525" fill="#000" font-family="Times" font-size="96" font-style="normal" font-weight="normal" text-anchor="middle" xml:space="preserve">4:5</text><text id="text56" x="3450" y="525" fill="#000" font-family="Times" font-size="96" font-style="normal" font-weight="normal" text-anchor="middle" xml:space="preserve">6:7</text><text id="text58" x="825" y="525" fill="#000" font-family="Times" font-size="96" font-style="normal" font-weight="normal" text-anchor="middle" xml:space="preserve">0:3</text><text id="text60" x="3600" y="150" fill="#000" font-family="Courier" font-size="96" font-style="normal" font-weight="normal" text-anchor="end" xml:space="preserve">struct rcu_state</text></g></svg>